<mxfile host="app.diagrams.net" modified="2021-03-15T08:43:14.691Z" agent="5.0 (Windows NT 10.0; Win64; x64) AppleWebKit/537.36 (KHTML, like Gecko) Chrome/89.0.4389.82 Safari/537.36" etag="wEZEhnYbbcS8RELbqXr2" version="14.4.8" type="github">
  <diagram id="KiDKe5JeoNmM0_PjzhRu" name="Page-1">
    <mxGraphModel dx="2858" dy="1009" grid="1" gridSize="10" guides="1" tooltips="1" connect="1" arrows="1" fold="1" page="1" pageScale="1" pageWidth="827" pageHeight="1169" math="0" shadow="0">
      <root>
        <mxCell id="0" />
        <mxCell id="1" parent="0" />
        <mxCell id="cr6yeHusOqUj-yIQ8VOg-1" value="" style="shape=image;verticalLabelPosition=bottom;labelBackgroundColor=#ffffff;verticalAlign=top;aspect=fixed;imageAspect=0;image=data:image/png,iVBORw0KGgoAAAANSUhEUgAABWkAAAMjCAYAAADX/pLvAAAAAXNSR0IArs4c6QAAAARnQU1BAACxjwv8YQUAAAAJcEhZcwAADsMAAA7DAcdvqGQAAP+lSURBVHhe7N0JfBT13cfxZLNsSCAxiICAHIqCIIIoIkKR+77CTSBBFIuhiFZExapgUZRDRZFSbKm1tNhiqUVKi0FB0YpFRUWRq4BEqlUKCPiQUkr9PjvDhFwbspud2cxmP+/n9Xs9ZXZmM9kchk+G/8QJAAAAAAAAAFBhiLQAAAAAAAAAUIGItAAAAAAAAABQgYi0AAAAAAAAAFCBiLQAAAAAAAAAUIGItAAAAAAAAABQgYi0AAAAAAAAAFCBiLQAAAAAAAAAUIGItAAAAAAAAABQgYi0AAAAAAAAAFCBiLQAAAAAAAAAUIGItAAAAAAAAABQgRyPtO9t/6eefOG9IvPi+p3Wo0V9/tWxEvsWnhWv7bD2LCrSxx34+njA/fMnWo773auV+7jfrttu7VnUPw5G9rgvDn4bcP/8ifbjvvzXuY97IadyH7c851Nrz6K+POTMcb95JfBx/zz0fwH3z59oP+6rw5X7uK/LOO7Xa7dZexZV7uOOnAi4f/4s+0t0H3ewjON+VdmP+/Mn1p5F/esbZ457vrTjjuYF3D9/ouW4X64JfNyhSn7c4WPnPu65P31s7VlUeY87cuzfAffPn8p+3C9Wl3Lc8cpx3NLVW609i/rGqeNeDnzc0W9PBtw/f6L9uGP/d+7jfl7Jj/vZqo+sPYsq73HHT/wn4P758+wfY/O4byvJcUte+tDas6j/y3PmuJ+WetypgPvnT7Qfd+Lf5z5u8R+i+7i8k2eOe+ujA9aW8DgeaY2A2GPKiiIz9ekN1qNFfbT76xL7Fp5IH3fnU+utPYty6rgfLgh83Na/Hwy4f/7YfdzHe5w57o4nX7P2LOoTh467vbTj9v4r4P75Y/dx28o4bsoT9h736b6yjnvV2rOo8h93KOD++XPb4/Yet/2zcx83eX5kj/vB/HXWnkXt2O/QcfMCH7dz/+GA++dPeY+bVNpxuc4clz03x9qzqF0OHXdrKcft/vxIwP3zx+7j/l7WcXNsPu7AuY+b+Ngr1p5Flfe4Pf/4JuD++fN9m4/bW9Zxj0b2uFseXWvtWdS+L5w5bsLs0o47GnD//CnvcTeXctxnXzp03CN/sfYsar9Dx930cCnH/fNYwP3zx+7jcr8693HjbT7OuJgh0P75c+OsP1t7FlXe44xfvgfaP38ifdy4H0f2uKwfr7H2LMq4SCDQ/vlT3uMyHwp8nPFL+0D750+5j5sZ+Djjl+GB9s+f8h43duafrD2LMn4ZHmj//CnvcWNmBD7O+OV0oP3zx+7jjF8WB9o/f+w+zvhlcaD98yfjwdXWnkWV+7gjJwLunz+jbT7O+KVooP3zZ9QDET7u/petPYsyfpkaaP/8Ke9xI0s77mhewP3zp7zHjfhR4OOMXzYG2j9/ynvc8B+tsvYsyvhlY6D986fcx90X+Djjl3iB9s8f2487fu7jhtl8nPFLtUD758/Q6X+09iyqvMcZv+QKtH/+DLnX3uM+2PmV+Xhpv1QMVcQi7cBpf9Cav+4xZ9PHX1iPFmV80ebvE2gq+3Fvf/wPa8+ijG8ugfbPn6g5bmvg44xvZoH2zx+OCzylHWd8sw60f/78NdqP83+zDrR//pT2GyyOK99xb5ZynPEfzUD750/UHPdh4OOM/0gH2j9/OC7wlHaccQVLoP3zZ+MHn1t7FlVZjnuD4wJOeY97fUuutWdRxhVBgfbPn2g/zrgiKND++cNxgae044wrngLtnz8b3q/cx61/f7+1Z1HGlVKB9s8fjgs8698LfJxxZVag/fMn2o8zriALtH/+vPYuxwWa8h736rufWXsWlXfyvwH3z59oOW7d5sDH/fs/HBdIeY87WcmP+8+p0wH3z5+cv+2z9iyqvMcZVxBHZaQt7ZJwAAAAAAAAAIgmxjKGRFoAAAAAAAAAqCBRF2mNf7JtrAlorK8CAAAAAAAAANEu6iItAAAAAAAAAFQmRFoAAAAAAAAAqEBEWgAAAAAAAACoQGs37dWkeeu0auNua0t4iLQAAAAAAAAAUIGItAAAAAAAAABQgRyPtOs2f6bsuTlauWGntQUAAAAAAAAAkM/xSLvitR3mIrpLXvrQ2gIAAAAAAAAAyEekBQAAAAAAAIAKRKQFAAAAAAAAgBAcOpqnnbmHdfDICWtLeIi0AAAAAAAAABCC5Tmfms1z6eqt1pbwEGkBAAAABx34+rj+9Nc9EZ+1m/ZaZ1C6f31zIuCxTk9p5/btif8E3D8SY7xtAACAYBFpAQAAgCjy6rufmT8PR3oGTvuDdQal+3DX1wGPdXoG3BX43IygHWj/SMznXx2zzgIAAKBsRFoAAAAgihSOtIMf3Oj4DLx/g/m2Qo20gZ7L7sk/t2AibaDjnZj8t0ekBQAAoYi6SHv4WJ522biILgAAABBN8iOtESjHL/7S8Rn3zOdn3l4Ikbb/va8EfC67J//cyoq0faa+HPB4J6bPXavNt0mkBQAAoYi6SAsAAADEMiJtwRBpAQBAZUGkBQAAAKIIkbZgiLQAAKCyINICAAAAUaTSR9pFuzXyoTeU/vAnygz0eKEh0gIAgMpi7aa9mjRvnVZt3G1tCQ+RFgAAAHBQpYi0Cz/QgOwFum7EbHWclKNRzxjb92to9p1qWDdN8fFxiotPUlKjIWozaZOyAj2Hf4i0AAAAgRFpAQAAAAdFe6TNeuhnatGk1pkQG2fEWJ+qt3xQfe6epfrVPYqvUk81m/dVwxZtVD3R/+fEK9Uie4vGBXiucCNt1oxfq8PoR9V+VIiTsUyDF5Z8PmOItAAAwA0cj7TrNn+m7Lk5Wrlhp7UFAAAAiB3nirROREdbI+0zG9W+VS3FV71cjXrNUsdx89W2axdV9yYppXYDJaT10DVTt54NshnT5+qSOolKaHi7+iwo9lz+CTfSjp08Qalez5lYHMpUHaYbniz5fMYQaQEAgBs4HmlXvLbD/KFnyUsfWlsAAACA2HGuSOtEdLQz0mZNv091fGmqP3x9ofVmt6t3z1ZKiEvUBf1eLrYO7QENH5eupCpXqfW0fYW2n5lwI+34xfs0bPI01T/fq3hfS102fJFuuGlx2TNhpYaaSzSUHCItAABwAyItAAAA4KBzL3dgf3S0M9KOnThWSb7rdPX0/UW2Z949TbW8KWqc9XGR7cZkTZ+uOr4L1XTinhKPhR9pz0zGXdNVL8WnpNaPlnpFcbBDpAUAAG5ApAUAAAAcFMyatHZGRzsjbeaUW5VWpbGaZW8vsn3cnBfVrmumWt/yTom1ZzOyxyulSlNdMWVvke3G2BVpxy/O1ZDMQarmvUhNxr8bcP3bYIdICwAAyuPQ0TztzD2sg0dOWFvCQ6QFAAAAHBTcjcPsi452Rtrx855Ts1o+VWl0ozrdt63M88qctUwtL02Tp+YYdZlb8nH7Iq1/Fq5X+3bXqnb7+Uov5ariYIZICwAAymN5zqfmzxBLV2+1toSHSAsAAAA4KLhI6x+boqOtkXZxrobelKE0n0fxCTVVo/syjQm43071HtRLNVK8ivfUVYORrxZbq/bM2BppbRoiLQAAKA8iLQAAABBFgo60No29kdaYfRo2ZZaat2qriwatCRhfxy/eox5dGqvKBR3UbPTLGrUo0D5EWgAAUHkQaQEAAIAoEv2RNrgZO2eLRj8d+LH8IdICAIDKIuoi7eFjedpl4yK6AAAAQDSJlUgbzBBpAQBAZRF1kRYAAACIZUTagiHSAgCAyoJICwAAAEQRIm3B2Btp92rwjePUsNNCDX6q5OMZ02apSZs71GP2gRKPFR4iLQAAKA8iLQAAABBFgo+09kRH5yJt+Odnb6Tdrn7D+6p6QrLS2i/Q4AUFj42eNlMNavrkrZ+hTg/uK3RMySHSAgCA8li7aa8mzVunVRt3W1vCQ6QFAAAAHBR8pLUnOjoXacM/P3sjrTE71H9EP6UkJOm8dvM16MkDGn3XDDU4338uF41Rpxnnfq2MIdICAAA3INICAAAADgptuYPwo6NzkdaY8M7P/khrjP+cRg5QijdRqS3TVdd/LlUaZOqGmWW/VsYQaQEAgBs4HmnXbf5M2XNztHLDTmsLAAAAEDtCX5M2vOjobKQ1pvzn50ykNWaHevduo4T4OMVX66529wf3WhlDpAUAAG7geKRd8doO84eeJS99aG0BAAAAYkf5bhxW/ujofKQ1pnzn50ykPaBRd9yjemk++eo0VfUqSUptO0cDnwi0b8kh0gIAADcg0gIAAAAOCj3ShhcdnY+05T8/+yPtAY2ccqfqpvqUePGt6jZrpwZljlCaL1GpV8/WgCDOiUgLAADcgEgLAAAAOCi0SBt+dHQ20oZ3fvZG2gMaMfl2XZjiVWKTbHV7JNfavkeDs0aa55TS5mH1f7z4cUWHSAsAAMrj0NE87cw9rINHTlhbwkOkBQAAABwUfKS1Jzo6F2nDPz9bI+2irerZ5zqlXDpZ3c+eS/7s1eBxo1Sjdh9dN31vsceKDpEWAACUx/KcT82fIZau3mptCQ+RFgAAAHBQ0JHWpujoWKS14fzsvZLWP4t2KOPxA4EfW7xfGfN3BdhedIi0AACgPIi0AAAAQBQJabkDG6Kjc1fS+ifM87M90towRFoAAFAeRFoAAAAgioR+47DwxtFIG+YQaQEAQGURdZH28LE87bJxEV0AAAAgmhBpC4ZICwAAKouoi7QAAABALKv0kXbRbo186A2lP/yJMgM9XmiItAAAoLIg0gIAAABRpFJE2oUfaED2Al03YrY6TsrRqGeM7fs1NPtONaybpvj4OMXFJymp0RC1mbRJWYGewz9EWgAAUFkQaQEAAIAoEu2RNuuhn6lFk1pnQmycEWN9qt7yQfW5e5bqV/covko91WzeVw1btFH1RP+fE69Ui+wtGhfgucKNtFkzfq0Oox9V+1EhTsYyDV5Y8vmMIdICAIDyWLtprybNW6dVG3dbW8JDpAUAAAAcdK5I60R0tDXSPrNR7VvVUnzVy9Wo1yx1HDdfbbt2UXVvklJqN1BCWg9dM3Xr2SCbMX2uLqmTqISGt6vPgmLP5Z9wI+3YyROU6vWcicWhTNVhuuHJks9nDJEWAAC4AZEWAAAAcNC5Iq0T0dHOSJs1/T7V8aWp/vD1hdab3a7ePVspIS5RF/R7udg6tAc0fFy6kqpcpdbT9hXafmbCjbTjF+/TsMnTVP98r+J9LXXZ8EW64abFZc+ElRpqLtFQcoi0AADADRyPtOs2f6bsuTlauWGntQUAAACIHede7sD+6GhnpB07caySfNfp6un7i2zPvHuaanlT1Djr4yLbjcmaPl11fBeq6cQ9JR4LP9KemYy7pqteik9JrR8t9YriYIdICwAA3MDxSLvitR3mDz1LXvrQ2gIAAADEjmDWpLUzOtoZaTOn3Kq0Ko3VLHt7ke3j5ryodl0z1fqWd0qsPZuRPV4pVZrqiil7i2w3xq5IO35xroZkDlI170VqMv7dgOvfBjtEWgAA4AZEWgAAAMBBwd04zL7oaGekHT/vOTWr5VOVRjeq033byjyvzFnL1PLSNHlqjlGXuSUfty/S+mfherVvd61qt5+v9FKuKg5miLQAAMANiLQAAABAED7//HN169ZNc+bM0cmTJ62tZQsu0vrHpuhoa6RdnKuhN2UozedRfEJN1ei+TGMC7rdTvQf1Uo0Ur+I9ddVg5KvF1qo9M7ZGWpuGSAsAAMrj0NE87cw9rINHTlhbwkOkBQAAAIKwcePGszfuatKkiVavXq3vvvvOerR0QUdam8beSGvMPg2bMkvNW7XVRYPWBIyv4xfvUY8ujVXlgg5qNvpljVoUaB8iLQAAqDyW53xq/gyxdPVWa0t4iLQAAABAkF599VW1aNHibKzt3bu3duzYYT0aWPRH2uBm7JwtGv104Mfyh0gLAAAqCyItAAAAUIFOnTqlp556Suedd54Zar1er6ZOnaqjR49aexQVK5E2mCHSAgCAyoJICwAAALjAwYMHNXHiRMXHx5uxtnbt2vrFL36h//3vf9YeZxBpC4ZICwAAKouoi7SHj+Vpl42L6AIAAABusmXLFnXs2PHsEght27bVpk2brEeJtIWHSAsAACqLqIu0AAAAQGVn3EDshRdeUP369c/G2qysLH3xxRdE2kJDpAUAAJUFkRYAAABRZ968ebr66qsr/TRt2vRspM2f2x98xvwBnkhrd6TdrwE3Tte1E17W8AWBHg9u8iNt2449An5MGffMn/70J+szBQCAikekBQAAQNS5/fbbS8TLWJk2XUaYP8CXHWntiY6xE2n3qme3JvLEeeStcbUadX1QN0zdpDEB9y198iNtclrdgB8/xj3zq1/9yvpMAQCg4q3dtFeT5q3Tqo27rS3hIdICAADAcfmR1lgC4P3336+Us2HDBnXr1q1IVJo8ebL/B/g9Z6JpmZHWnujoXKQNPyLbG2m/1Jgfr1Sn9FvU+JKL5I33v+bxiUpu2FeXD16o3jN3alyAY4pPfqRdu35TwI8rU/HTokULIi0AoNIj0gIAAMBx+ZH2qaeesrZUHv/73//0/PPP68ILLzTfx/j4eN1888366quvzMdDWZPWjujoXKQNPyLbHWkLZp9G3PtLte+bofp1a8rjf+3iE2rp/CvHqU3W75Q+/0CAY84Ma9K6n/HLHSItAKCyczzSrtv8mbLn5mjlhp3WFgAAAMSayhppN2/erOuuu85834y5/vrr9d5771mPnlG+G4eVPzo6F2nDj8jORdpCs2iHhtzxjK7pNlh1aqcpPt4jT1qmupZy9S+R1v2ItACAWOB4pF3x2g7zh54lL31obQEAAECsqWyR9p///KfGjx9/Ns7WrVtXy5YtM6+qLa58kbbQhBgdnYy0BVO+iByZSLtLQ6c+q3Z9xqpBo3ry+l+v+PPGquuTAfb1D5HW/Yi0AIBYQKQFAACA4ypLpP3Pf/6j+fPnKyUlxXx/fD6f7r33Xh0/ftzao6TwI21o0TEykbbQhBCRnYu0+zRy+vO6vt9YXXRRLSUY0dhTQ2ktMtR6zK81eG5ugGPODJHW/Yi0AIBYQKQFAACA4ypDpD1w4ICaNWtmvh/GDBw4UH//+9+tR0tX3uUOyhsdIx9pg4/IdkfaMTNfVKf0CWp8cf7yCz5VrdddTQc8oZ4PbAvpxmFEWvci0gIA3OjQ0TztzD2sg0dOWFvCQ6QFAACA4ypDpN24caP5Phihdu3atdbWsoV04zAbomNkIm35IrK9kbbgRmYJqS3VoNO9+t6UN5WxKNC+pQ+R1v2ItAAAN1qe86n5M8TS1VutLeEh0gIAAMBxlWW5gz179ujUqVPWn4ITfKS1Jzo6GWnDjcj2Rtp9GpA5VdeMe1FDHi/9RmplDZHW/Yi0AAA3ItICAAAg6kQy0h7f845yXnlFOe/t10lrW0UKPtLaEx2di7ThR2R7I609Q6R1PyItAMCNiLQAAACIOpGLtKe0e2E/VfO/rdTRv9Iha2tFCvvGYSGOc5E2/IhMpEV5EGkBAG4UdZH28LE87bJxEV0AAABEHyJtZYi04Y8TkXbc3FfUZehkNWs/RI2vHqBGbfqXnLY/Uu+nAh9PpHU/Ii0AwI2iLtICAAAARNrgI2240dHpSBvO+dkeaef/Xq2bpCne//E2Pr9KnarDdMOTAY73D5HW/Yi0AAA3ItICAAAg6hBpg4y0NkRHRyNtmOdnb6Q9oBFZg5UYn6S0tjPVffo7Gjl3m0bPCzDzdykr4HMQaaMBkRYA4EZEWgAAAESdioq0B7/ZptVP36eJGUOUPmyssu97Si9u/iKiNxQLPtLaEx2di7Thn5+9kXavevdqoYTkfurwSPlvtEakdT8iLQDAjdZu2qtJ89Zp1cbd1pbwEGkBAADguIqItNV6TtTk79WW1/+/PV6vvB6PeQ6eqk008LHX9dVp6xCHBR9p7YmOzkXa8M/P3ki7T/36tlZCWqa6lnJVcTBDpHU/Ii0AIBYQaQEAAOC4ioi0xtvz1uuqqc+/pc+On1LePz/SH2cPVbNkj+J8zZX90heKRKcNPtLaEx2di7Thn5+9kfZLjbltotL8H8srbtse8PFghkjrfkRaAEAscDzSrtv8mbLn5mjlhp3WFgAAAMSaCom0vpaavKp4iP1Gb83ooBSPRynd5+ujCKx7EMqatHZER+cibfjnZ3ekHb/oXXXrdrWS6vRV6xt/qwEz39XIOR9pVInZocxAx/uHSOt+RFoAQCxwPNKueG2H+UPPkpc+tLYAAAAg1lREpE3uOjdghD295ycamOpRXLXumv/xKWurc0K6cZgN0dHJSBvu+dkbafeqd7/rlVqrrnzWUhalzjlutEakdT8iLQAgFhBpAQAA4LjIR1qfmv3wFZ2wthZx4nVNb+1TnOdC3fKH49ZG54S0Jq0N0dG5SBv++dkbafdpQMY4XXzNIDUua9o9oN5PBXoOIm00INICAGIBkRYAAACOi3ykrap2M99WnrW1iJNb9OgNyf7zSVXGssPWRueEsiatHdHRuUgb/vnZG2ntGSKt+xFpAQBudOhonnbmHtbBIwEvCwgZkRYAAACOq4graVvd+3rgK2nz3tIDbauaV9JOWOmmK2ntGecibfjjZKQd98RmDbhjmbre8jN1neR/n2Z8XOqSEIWHSOt+RFoAgBstz/nU/Bli6eqt1pbwEGkBAADguMhHWo9qZvxKX1lbCzv9xXMaeb5HccmdNHuL83cOK2+kLW90jFSkLc/5ORJpn35b3QYM1PkpXsX7P8eMzzNz4qsp5fKb1OGebYGPs4ZI635EWgCAGxFpAQAAEHUq4sZh3vojtXRP8RuDndS2p/uppidOVds+oLcCrodgr5AjbZjR0fFIG8b52R5pF72vrp2vkDfeI1+dTrqkyxRdNfBeXdX7FjVp0VyJHo/iaw5Wx5m5gY/3D5HW/Yi0AAA3ItICAAAg6lREpI2L8+qivrOUsz+/xH6rXS/drc61vYrzNtToX+z27+28kCKtDdHR0Ugb5vnZHWkzp96hml6fUq+dr4FPFH98r4bccrMuqOp/vMsyjSnyWMEQad2PSAsAcKOoi7SHj+Vpl42L6AIAACD6VMSatJf1Sdf1NT3ynt9U1/fuq17tmijVE6c4bx11nr5GuaetQxwWSqS1Izo6GWnDPT97I+1+DRh0nRKS++r6WQcCPG7MNnXt1EgJdbPVq5QbrRFp3Y9ICwBwo6iLtAAAAEDkI21VtfnRG8p9a4l+mH6dLq2VopRal+iavt/X7N9v1RFr70gIPtLaEx2di7Thn5+9kXavenVvKm+9H6h3Ka/F+MW5GjzsBnmTR6jzk4EeJ9JGAyItAMCNiLQAAACIOpGLtO4TfKS1Jzo6F2nDPz+7r6QdOPh6eav1V4eHS4vG29WtU2Ml1JmonqWcM5HW/Yi0AAA3ItICAAAg6hBpg7uS1o7o6OSVtOGen72R9ktl3vVD1fQmKu36pzS4RBTer2HZt6pWkk/VO/5co4s8VjBEWvcj0gIA3Gjtpr2aNG+dVm3cbW0JD5EWAAAAjiPSBhNp7YmOzkXa8M/P7kg7ftF76tKpmRLivUqs11WXdrtTV6ffr6v7TVLTVq2U5PUovkZftb9/f+Dj/UOkdT8iLQAgFhBpAQAA4DgibXCR1o7o6GSkDff8bI+0xjy5QZ179VRaslfx/s8x4/PMnPgUpV4+QR3v3Rb4OGuItO5HpAUAxALHI+26zZ8pe26OVm7YaW0BAABArCHSBhlpjQkzOjoaaY0J4/wcibTWjJv3lvrd9pw637RYnW99Qf1mbFVmgP2KD5HW/Yi0AIBY4HikXfHaDvOHniUvfWhtAQAAQKwh0oYQaa0pb3R0PNJaU57zcybS7tWwOxeq3YQcZeVvW/iqOnSfoDZZf9TwpwvvW3KItO5HpAUAxAIiLQAAABxHpA0l0oYXHZ2PtOU/P/sj7Tb1Te+uagkeeVvO1tBF1vYnntWlKR7FxSeqeuuH1O/xwscUHSKt+xFpAQCxgEgLAAAAxxFpg4204UdHZyNteOdnd6TNvOce1U70KqnpRHWculljCz029pE16tyvh6onVFOtfi8XeazwEGndj0gLAHCjQ0fztDP3sA4eOWFtCQ+RFgAAAI4j0gYXae2Ijk5G2nDPz95Iu18DB18vb3IvtX8oN8Dj/ln0gW5oX18JF01Rn1Ku8CXSuh+RFgDgRstzPjV/hli6equ1JTxEWgAAADiOSBtMpLUnOjoXacM/P3sj7V716tFU3vqT1fupQI8bk6v0YZ3lrTZSnZ8M9DiRNhoQaQEAbkSkBQAAQNQh0gYTae2Jjs5F2vDPz5krafvq+lkHAjxuzA5173yJEupMVM9SzplI635EWgCAGxFpAQAAEHWItKFcSRtedHT+Stryn5+9kfZLZU6bqguq+JR6zWz1n1f8nPZoyC23qFayTymdntPoIo8VDJHW/Yi0AAA3irpIe/hYnnbZuIguAAAAog+RNphIa090dC7Shn9+dkfa8Yu2qFuXlvLGe5SQ1lL1r8lQsy4TdHnHYWpwSSNVMbbXGqrvzSxleQb/EGndj0gLAHCjqIu0AAAAAJE2uEhrR3R0MtKGe362R1pjnv6beg7NVN065yk+Ps78PIuL8yg+8SLVbnePus7YE/g4a4i07kekBQC4EZEWAAAAUYdIG2SkNSbM6OhopDUmjPNzJNKenT0aNTNH/ab+Uf3ufV3DnyhtSYaiQ6R1PyItAMCNiLQAAACIOkTaECLt2SlfdHQ80p6d0M/P2UhbviHSuh+RFgDgRms37dWkeeu0auNua0t4iLQAAABwHJG2PJG2fBO5SBv6EGlRHkRaAEAsINICAADAcURaIq0xRFqUB5EWABALHI+06zZ/puy5OVq5Yae1BQAAALGGSLvCjIFjntjl+Iyev918e6FE2p63/z7gc9k9+edWVqQ1ZtTcTyIy+W+PSOteRFoAQCxwPNKueG2H+UPPkpc+tLYAAAAg1hBpz4TASE4okTbSE0ykjfQQad2LSAsAiAVEWgAAADguliPt37Z9ad5UItJz51PrrTMo3c7cwwGPdXp+uCDwuf3rmxO6f8mbFTIHj5ywzgJuQ6QFAMQCIi0AAAAcF8uRFkB4iLQAADc6dDTP/IW3Xb/oJdICAADAcURaAOVFpAUAuNHynE/N5rl09VZrS3iItAAAAHAckRZAeRFpAQBuRKQFAABA1CHSAigvIi0AwI2ItAAAAIg6RFoA5UWkBQC4UdRF2sPH8rTLxkV0AQAAEH2ItADKi0gLAHCjqIu0AAAAAJEWQHkRaQEAbkSkBQAAQNQh0gIoLyItAMCNiLQAAACIOkRaAOVFpAUAuNHaTXs1ad46rdq429oSHiItAAAAHEekBVBeRFr7/G3bF/rTX/dU2Oz+/Ih1JgCA4oi0AAAAcByRFkB5EWntc+9P3jD/aW5FzW9e+dQ6EwBAcY5H2nWbP1P23Byt3LDT2gIAAIBYQ6QFUF5EWvvkR9red67S4Ac3RmyItABQNscj7YrXdpjfjJe89KG1BQAAALGGSAugvIi09smPtKPnfarxi7+M2Ax5aBORFgDKQKQFAACA44i0AMqLSGsfIi0AuBeRFgAAAI4j0gIoLyKtfYi0AGCfQ0fztDP3sA4eOWFtCQ+RFgAAAI4j0gIoLyKtfYi0AGCf5Tmfmt/blq7eam0JD5EWAAAAjiPSAigvIq19iLQAYB8iLQAAAKIOkRZAeRFp7UOkBQD7EGkBAAAQdYi0AMqLSGsfIi0A2CfqIu3hY3naZeMiugAAAIg+RFoA5UWktQ+RFgDsE3WRFgAAACDSAigvIq19iLQAYB8iLQAAAKIOkRZAeRFp7WNLpF20WyMfekPpD3+izECPBxgiLYDKiEgLAACAqEOkBVBeRFr7BB1pF36gAdkLdN2I2eo4KUejnjG279fQ7DvVsG6a4uPjFBefpKRGQ9Rm0iZlBXqOQkOkBVAZrd20V5PmrdOqjbutLeEh0gIAAMBxRFoA5UWktU8wkTbroZ+pRZNaZ0Ks/3WPi/epessH1efuWapf3aP4KvVUs3lfNWzRRtUT/X9OvFItsrdoXIDnyh8iLQCUjUgLAAAAxxFpAZQXkdY+ZUbaZzaqfataiq96uRr1mqWO4+arbdcuqu5NUkrtBkpI66Frpm49G2Qzps/VJXUSldDwdvVZUOy5Cg2RFgDK5nikXbf5M2XPzdHKDTutLQAAAIg1RFoA5UWktU9ZkTZr+n2q40tT/eHrC603u129e7ZSQlyiLuj3crF1aA9o+Lh0JVW5Sq2n7Su0vegQaQGgbI5H2hWv7TC/GS956UNrCwAAAGINkRZAeRFp7VNWpB07caySfNfp6un7i2zPvHuaanlT1Djr4yLbjcmaPl11fBeq6cQ9JR7LHyItAJSNSAsAAADHEWmln7+81fwXZpGeX6z+2DqD0v1+/c6Axzo9pZ1b/r/Gi/Q8+LO3rDOAmxBp7VNWpM2ccqvSqjRWs+ztRbaPm/Oi2nXNVOtb3imx9mxG9nilVGmqK6bsLbK98BBpAaBsRFoAAAA4jkgrPfzcmUgR6Xn0+XesMyjd4j98GPBYp2f2LwOf24vrdwbc3+kZ9+M/W2cANyHS2qfMNWnnPadmtXyq0uhGdbpv2zlvBmZM5qxlanlpmjw1x6jL3MD7GEOkBVAZHTqap525h3XwyAlrS3iItAAAAHAckbYg0qbP/KvGPLHL8THejvH2Qom0A+/fEPC57J78cysr0va795WAx9s9Ix/7yHx7RFp3ItLap8xIuzhXQ2/KUJrPo/iEmqrRfZnGBNxvp3oP6qUaKV7Fe+qqwchXi61VW3SItAAqo+U5n5rf25au3mptCQ+RFgAAAI4j0hZE2pFztgaMGHZPfngMJdIOe/jdgM9l9+SfW1mR1oi5gY63e8Y+tdd8e0RadyLS2qfsSGvMPg2bMkvNW7XVRYPWlBJf96hHl8aqckEHNRv9skYtCrRPwRBpAVRGRFoAAABEHSItkbbwEGlR3IkTJ/T222/ru+++s7YUOFekPddxKCm4SBvcjJ2zRaOfDvxY8SHSAqiMiLQAAABvTZE2jGeM+egJ60VxNyItkbbwEGlR3A9/+EPze8TPfvYza0uBc0XakSNHmo+tWbPG2oJzsTPShjJEWgCVUdRF2sPH8rTLxkV0AQAA9PrN0roRjDFbZlsvirsRaWMg0i7arZEPvaH0hz8559qUxhBpUdyLL75ofo+44IILdOTIEWvrGaVF2g0bNpjbk5KSdODAAWsrzoVICwD2ibpICwAAYDsibcEQaaNGpYi0Cz/QgOwFum7EbHWclKNRzxjb92to9p1qWDdN8fFxiotPUlKjIWozaZOyAj2Hf4i0KM5YrqBz587m9wnj+0VhgSLtf//7X7Vs2dLc/vDDD1tbURYiLQDYh0gLAABApC0YIm3UiPZIm/XQz9SiSa0zIdb/sYyL96l6ywfV5+5Zql/do/gq9VSzeV81bNFG1RP9f068Ui2yt2hcgOcKJ9Jmzfi1Oox+VO1HhTgZyzR4YdHnyh8irTt89NFH8ng8SkhI0LZt26ytgSPtokWLzG2NGzdWXl6etRVlCS3S7tXgG8epYaeFGvxUycczps1SkzZ3qMfsAyUeKz5EWgCVEZEWAACASFswRNqoUVqkdSI6GmNrpH1mo9q3qqX4qperUa9Z6jhuvtp27aLq3iSl1G6ghLQeumbq1rNBNmP6XF1SJ1EJDW9XnwXFnss/4UTasZMnKNXrOROKQ5mqw3TDk0Wf6+xzEmldY9KkSebHq3v37mdvBlY80h46dEg1atQwt/3hD38wtyE4oUXa7eo3vK+qJyQrrf0CDS70tTx62kw1qOmTt36GOj24r9AxgYdIC6AyWrtprybNW6dVG3dbW8JDpAUApxzZqb/mvKJXXik5OTmvav0bf9W72/br8ElrfzsdO1zieY/veUc5xtt+b7+ceJPR6MjOt8zX5JWcv2kvS6dHFyJtwRBpo0ZpkdaJ6GiMnZE2a/p9quNLU/3h6wutN7tdvXu2UkJcoi7o93KxdWgPaPi4dCVVuUqtp5UMOOFE2vGL92nY5Gmqf75X8b6Wumz4It1w0+KyZ8JKDTWXZyg5RFr3KBxgX3rpJXNb8UgbKOQiOKEvd7BD/Uf0U0pCks5rN1+Dnjyg0XfNUIPzffJeNEadZpQdaI0h0gJA2Yi0AOCQkx88ps7JAf5SXWQ8Sr7wKg2641n99Z+nrSPD8a12rZ6tjHYZenZ/4ec7pd0L+6ma/22mjv6VDllbY9rpvVoypKY8xsfB21Djf/dP2fERQIQQaQuGSBs1Sl/uwP7oaIydkXbsxLFK8l2nq6fvL7I98+5pquVNUeOsj4tsNyZr+nTV8V2ophP3lHgsvEh7ZjLumq56KT4ltX70nFcUBzNEWnfJX8rg4osv1r///e8ikba0JREQnPKtSbtD/UcOUIo3Uakt01X3fJ+qNMjUDTODC7TGEGkBoGyOR9p1mz9T9twcrdyw09oCALHhbKT11tTl13dV166Fp4s6dbhWLRueJ6/HiLVe1en2sDYWvZlx6L5+XqNSPYpLSdcSIu05ndr2pHr7Xytvzdqq6fWoZvpP9fdT1oNwPyJtwRBpo0ZZa9LaGR2NsTPSZk65VWlVGqtZ9vYi28fNeVHtumaq9S3vlFh7NiN7vFKqNNUVU/YW2W6MHZF2/OJcDckcpGrei9Rk/LsB174Ndoi07mLcFOzKK680v2c88sgjZyPt888/X+rNxRCc8t84bId6926jhPg4xVfrrnb3Bx9ojSHSAkDZHI+0K17bYX4zXvLSh9YWAIgNZyNtcjfN/7iUBQZO/VNv/2Ssmlf1KM5znrrN3RLeUgRf/VIjU/1vk0hbhpN695GOSvZUVbtpP9b4Bl55qnXRnA9YCCJqEGkLhkgbNcq+cZh90dEYOyPt+HnPqVktn6o0ulGd7ttW5rllzlqmlpemyVNzjLrMLfm4PZHWPwvXq327a1W7/Xyln+Oq4rKGSOs+GzZsML9nJCcnm7/gNv53//79zf9fs2ZNHTkS7m+2Y1P5Iu0BjbrjHtVL88lXp6mqV0lSats5GvhEoH0DD5EWAMpGpAUAhwQVaQ2nv9TvxjeU1/iLSKfZ2hJOJyTSBufERt3XpqrifM115yuf6/e3NPK//lV11fTX9a21C1yOSFswRNqoUXak9Y9N0dEYWyPt4lwNvSlDaT6P4hNqqkb3ZRoTcL+d6j2ol2qkeBXvqasGI18ttlbtmbEt0to0RFp3Gj58uPl9o/gsWbLE2gOhCj3SHtDIKXeqbqpPiRffqm6zdmpQ5gj/94JEpV49WwOCDLVEWgAoG5EWABwSdKTVae1bPEgp/r90eBvcqlXFKuGxv2/Qssfv0+Txo5Q+sL8GpI/QuEn36fEX3lZunrWT8rRpQab69bpGDbz+t+mtrzY9+qhP/+9ryUfG2y4aaQ/m5eqtZY/qzpv8zzkoXaNunqZ5L7yjL/L/uf+pnXr+tgHq0zddM/9y2NqY76Q+WXqr+vfpo/63LNGHxd+1w3/RzCF91Tf9Qa0pVIODez8Mp7TrV7dpQJ++GnjHb7Qn4BIEp7R3+Q81sG9fDX84R6FeS/PNX27X5b44+ZpO0Z+P+U951SRd6n/dvJdm649cZhwdiLQFQ6SNGkFFWhvH3khrzD4NmzJLzVu11UWD1gSMr+MX71GPLo1V5YIOajb6ZY1aFGgfIi2Cs3//flWtWrVIoL3qqqt0+jSryJdXaJH2gEZMvl0XpniV2CRb3R7Jtbbv0eCskWaoTWnzsPo/Xvy4kkOkBVAZHTqap525h3XwiD13oSbSAoBDgo+0p/TJ4z3MgOpteofWnv3+fkzvLRmn1jWsO357PPJV9cljrmFr/Nmnhv3m6+1jxr4ntP7+jmrSqI5Sjcc9KarT6GJdfFlvPfY3o4AWRNpqvW/TPb0bypf/PPnjSdblGT/XVvPtn9CGe1rJF+dTszteKXp16el9Wjw41bzhlidloBbvLfoXpeNrpugyr0cpfZ/WTjOwhvJ+nHHy/dnqlOyRJ7Wvnt4RoNKe2qGn+/rPwVNPY5d9EeINvw5aV8761HLaOh03Nh17RVOv8PnP5UJl/DKXG4hFAyJtwRBpo0b0R9rgZuycLRr9dODH8odIi2DNmDGj4GcV/7z55pvWIyiPkCLtoq3q2ec6pVw6Wd3PBtr82avB40apRu0+um56yXWniw+RFkBltDznU/N729LVW60t4SHSAoBDgo60376nOd3PkyfOo5rDlyrXKoTH35qh9ikeeZJbKOPxNdr65bc67f+/b7/8SH9+6ka1MW4Q5qmpIc/uLYiKQSx3YPwFx1uvk7Kf+qPe2ZWrA3/frD/MHqqmxrq43vrK+s2Z6Hn8L7erqS9OVdvN1NuFr3Q9+FvdeGF+cL1Q439X+NLTE3r93lbyeaqpx/xP/G+1nO/HqW16oleKPJ4U9Xpim/k8hZ36eL56VPPI2/Amrfja2hik05//ShnG+Vdtqwfeyi/iJ/TW/deoqv9jcF6fp/RpwKt34SpE2oIh0kaNWIm0wQyRFsE6ceLE2UBbvXp1ayvKK+TlDhbt8P/8diDwY4v3K2P+rgDbSw6RFkBlRKQFgChxzkh7+qSOf71XH+Q8rxnDWijFuKrUd7kmrfrKCpXH9KfbLjWv9rws+48q2SEPa1X2Jf7HvWr0g9UFV7oGE2l9rTTlT/8sCKKG019o+biLzOe75LY1Z57vyB91ayOv4qr10hOFquXxPxtXyvrU7KordZ7Hp+ZTc3T24t+TmzWrQ7L/fe6k2e8b73M53w/jfH8yUDU8HlXrNk9bi7x8J7Xl0RuU7PGqyaRV/mcIxSn9ffFgne9/XmP9X/MULflX78ZVvU4zNxVZfwFuRKQtGCJt1CDSFox9kXavBt84Tg07LdTgp0o+njFtlpq0uUM9ZpcWmc4MkdadDh48qM2bN+u+++5TYmKifve732nbtm3697//be2BUJXvxmHhD5EWQGVEpAWAKHE20lpXf5xzvLV1w31r9UXBpaQ6uPtdvb7mD1q/I1AwPKmP5nZVcpxHtcavOPNP9g1BRNqqbR/QWyWe8pR2PtXbfDx15C+tmPq1fntjPXk8NTR86edW1M3TXx+8VlW9TXTr07PU1f/+FY6dp7Y9oZ7VPKp63Uyd6ZzlfD/8Tu9fqhG1jCtwb9Cjhe+mlveOHmpv3PTrct3xl0JrJATj1Md6vKdxhW6qej/5qf/sCjn1qRb0NpZx8KnFHWv1jbUZLkWkLRgibdQILtLaEx2NiY1Iu139hvdV9YRkpbVfoMELCh4bPW2mGtT0yVs/Q50e3FfomJJDpHWHvLw8M8RmZGSoXr16JX9essbj8ah169aaNm2aGXG/++476xlQFiItANgn6iLt4WN52mXjIroAEC3KirQeX6rqNb1WvcdO01Mvbzt3FDz9rb7as1WbXl2l5c/O14wpY9X98hrmEgnn3/i7kCJtytCf60CRy2gNp5X7bLp587KUIfmPn9aBX45WLY9XF9384pkrVk99qid6VpOn9hgt2/9nTbnMK09qun66zzjgtPb9NF3nearqqvs2KuC1qMG+H4bTX2p5Vn1545LV4eF3lZ9p8966X9dUjZOv1d1an3/p7fEv9Pcd27V9e7HZsVtfFF7rdvMsXe//mHhSuuvh9duK7f+pNjzcw7yq2dtgvH77zxIvEtyESFswRNqoEVyktSc6GuNcpA0/JNsXaY3Zof4j+iklIUnntZuvQU8e0Oi7ZqjB+f7X6qIx6jSj7NeKSFuxDh06ZF4tm5aWVuRnpZSUFPNGYT179lS/fv3UuXNnXXbZZWakLbyfsY8Rd//3v/9Zz4jS2BJpF+3WyIfeUPrDn5RyA8GSQ6QFUBlFXaQFgFhVsNxBVz363hEdO3bs7Bw/fkIny2yAedr36iJNHd5Rl9Wsat6oK/8vI8aVoBdeeGYd21AjberoX6nwKrJnFI60P9Pn1qGn9y1R+nke+ZrfqVe+9f/586Uacb5HKf0Wavepr7U8q4483vq6+cXD/gf/qWVjasvja6G71hUsXFCu98NycOX3dbE3rtCVud9qvXlDs6pq+8BbZ0PwiZypau4reN6z471Mt6/NP5dvteHe1v5jA+xXfDw1lf7Tvxe90hbuQqQtGCJt1Ah+uYPwo6MxzkXa8EOyvZHWGP9rNnKAUryJSm2Zrrr+16pKg0zdMDO414pIWzGMK2CfffbZInG2bdu2WrBggT799NNSo6uxTu369et1xx13qFatWmePve666/Txxx9beyGQoCPtwg80IHuBrhsxWx0n5WjUM8b2/Rqafaca1k1TfLz/NY9PUlKjIWozaZOyAj1HoSHSAqiMiLQAECWCvnFYQKe0a9l4Na9m3FTLq5rNvqdBY2/VtJnz9dPlf9am3V/p/cc6m8sEOBlpdWqHnu6TIo+xTus7eTqy8hY18Carw6zNOmlcObt4sFI9Pl0x7VWdOLxStzT0ynvZFK05e/VqOd+PfN+s0ZRmPsVVvUb3G2s0HH9Fdzb3/zm5gx5+t+A1DSrSHrGey3OemnbsrT59+gScG1rUNKNxtS6P6YNQP2yIHCJtwRBpo0Zoa9KGFx2NcS7SGhNeSLY/0hqzQ717t1FCfJziq3VXu/uDf62ItJH3zTffaODAgWf/m929e3dt2rTJejR4xvq0S5YsUd26dc3n8fl8Wrx4MUsglCKYSJv10M/UokmtMyHW+PjE+1S95YPqc/cs1a/uUXyVeqrZvK8atmij6on+PydeqRbZWzQuwHPlD5EWQGVEpAWAKBFWpD22RlOaGkExRddP+7P2lzj8hF6/17ii1KMa437rXKQ114ztouS4aurx+AfKmXaF/y8/zTU158wSNic/mqMu/vcxuePDemvVbbrU61WjW/+oI+ajfuV9P876Vq/dfaV55ew197+lw6/cqeY+j6p1naePCj9XEMsdfL3iZjX0xslb/0a9cI6lDI6smaJmRvCtepWmv174imC4CpG2YIi0USP0G4eVPzoa42ykNab8Idn+SHtAo+64R/XSfPLVaarqVZKU2naOBj4RaN+SQ6SNrH/84x9q0aKF+T2hRo0a+u1vfxt2VD1+/LgmTpx4Jir6x7jKluUPSioz0j6zUe1b1VJ81cvVqNcsdRw3X227dlF1b5JSajdQQloPXTN169kgmzF9ri6pk6iEhrerT6Gr6osPkRZAZbR2015NmrdOqzbutraEh0gLAA4JJ9Ke2r5AvasZx3YscsXoWcf/qhntk82lA1LH/qZgPduDz2uUGWkHabG5Tmy+8kZaKe9vD6l9VY/OGzBNP+zof5v1b9KK/CfI26j72lQ113gdM6qZfN76Gr/ioPVgGO9HIXl/fVDXVo1T1fYPaPG01vJ5UtXnqe3+9ygEp3P1y9F1/G/Hq0a3/F4FZxjAtxt0b2uf/y94Xl166x8DvFZwBSJtwRBpo0ZokTa86GiM85HWmPKFZHsj7QGNnHKn6qb6lHjxreo2a6cGZY5Qmi9RqVfP1oAgXjMibeR8/fXXuvTSS83vB8b6svv27bMescevf/1rJSQknA21XFFbVFmRNmv6farjS1P94esLrTe7Xb17tlJCXKIu6PdysXVoD2j4uHQlVblKraeV/vVPpAWAshFpAcAhYV1Je2iFxtf3Ks5zvrrPeqtIKMz7/E0tHt/avMGV8ReQlOFL9WV+VD3uP66WR3G+lrpt1ReFQmb5I60ZYq+qKk+1VKV6PTov/Vl9dvbxY1o9uYm8Ho95Ew9PnTFadvZk/Mr7fhR28n3N7pQsj6+JmjbxyVNjsBb/PbTVYk/t/okG1vC/Lt5L9YOXz17nW4o8/e3H16uq/5w8F47WL3MDnRQqHJG2YIi0USP4SBt+dDTG+Uhb/pBsX6Q9oBGTb9eFKV4lNslWt0dyre17NDhrpPmapbR5WP0fL35c0SHSRsZ//vMfXX/99Wf+u5+SosaNG+vAgQPWo/ZYvny5GWnzQ+3ChQutR2AoK9KOnThWSb7rdPX0/UW2Z949TbW8/o9Z1sdFthuTNX266vguVNOJe0o8lj9EWgAom+ORdt3mz5Q9N0crN+y0tgBAbAhvTdpjeuvhLqplBExPii5p318jx4zWkN7tdEmqR56a12jshH7mP99P7jRbW/Kf/uQHeqxzNfPKVI+nqlJqXqmp5pqsYURafaucqc2tG24lq+vcj1T4vfnqN5mqY4ZWj2oOX6qiTbOc70cRp/TJ4z2tmOtRrRFLVWQlhzKd1NZ53czjfZffobVn18st3cmP56tHirGO7nnq/dSnoV21i8gg0hYMkTZqBBdp7YmOxjgbacMLybZF2kVb1bPPdUq5dLK6n32t8mevBo8bpRq1++i66XuLPVZ0iLSRMW3aNPP7QIMGDbR//3717dvXvKrWWP7ADi+88IKqVKmi559/3vzfxtsy/vzBBx9Ye6CsSJs55ValVWmsZtnbi2wfN+dFteuaqda3vFNi7dmM7PFKqdJUV0wp/euMSAsAZXM80q54bYf5zXjJSx9aWwAgNoQXaf1Of6m3fn63Rne+Qg1qJCs5tY6atOmpMdMWas32b3Rq/1INr+mRJ7WXnvikICMeevsn+n7Xy1W7mleeuGrq98zfdSqsSCt98/IP1MTrf198rTX9jTxr6xmn9y7WoNQzQXPw4j3+ZyqmnO9HYWevhPXU09hff1HybZxL3juaeV1V/1/UfLry7vUKapXZU7u1eND5Zuyuet1MbSr6LsMNiLQFQ6SNGkFFWpuiozHORdrwQ7J9V9L6Z9EOZTx+IPBji/crY/6uANuLDpHWeVu2bDnzr2788847Zz7uxk2/jJt22hFqjXVtjSD7y1/+0toiTZ482fy+c/XVV+v06ZB+eqi0ylyTdt5zalbLpyqNblSn+7ad82ZgxmTOWqaWl6bJU3OMuswNvI8xRFoAKBuRFgDgeqf3Pav08z3yNrxZL35tbUSl8thjj2n8+PHmlVVBIdIWDJE24p577jnzBkW5ubnWluAEvdyBDdHRGMcirQ0h2dZIa8MQacv2f//3f/roo4/KvcZrt27dzO8Bd955p7XlDCPU9u7d21yftryh9ne/+50ZaI2vzcKMczau2jXernF1bbR6++23lZ6ernXr1llbyq/MSLs4V0NvylCaz6P4hJqq0X2ZxgTcb6d6D+qlGilexXvqqsHIV4utVVt0iLQAUDYiLQDA5U7p74sHq4bHp6a3/UllrSiL6JR/l++qVatqxowZOnHihPVIKYi0BUOkjbj8NTWTkpL00EMPKS8vuMvtQ7txWPjj3JW0/gkzJBNpo8+ECRPMz3tjiYJdu3ZZW4NjXDlrHHveeefpm29K3ibUCLW9evUyQ+0XX3xhbQ3OihUrzED7i1/8wtpSlBFnjbfdrFmzqL2J2MyZM833wZj+/ftr587yLyVYdqQ1Zp+GTZml5q3a6qJBa0qJr3vUo0tjVbmgg5qNflmjFgXap2CItAAqo0NH87Qz97AOHinj7y5BItICAFzt1P5VmtImWZ6q1+rBt+z5jx/cx7hxzOjRo8/+JdS48sn4i3epf6Em0hYMkTbiin++NmzYUL///e/LDECVKtKGOUTa6LNq1Sozshqf80YUveeee3T8+HHr0XMz/qWEcZxxTGmMX3b07NlTTZs2DTrUvvjii+cMtIZTp06pfv365tt//fXXra3RxXgf5s2bp9TUVPP98Hq95vfUw4cPW3sEL7hIG9yMnbNFo58O/FjxIdICqIyW53xqfm9bunqrtSU8RFoAgAsd1G8nXafrO16rprV88sR5den45fqM5eQqvTfffFNXXXWV+ZdQYzp37mz+89oSiLQFQ6StMBs3blTr1q3Pfr526dJFH3/8sfVoSUTagiHSRqevv/7avKI2Pj7e/JyvW7eufv3rX5/zFxRGYMyPu2VdAZofao2rXr/88ktra2DGL0Z8Pp+WLl1qbSndfffdZ779H/zgB9aW6GS8/rfeeqsSEhLM96dGjRrm99T//ve/1h5lszPShjJEWgCVEZEWABADTuiVHzaTz/8XkDhPNTXp/2O9coBCGyuMm7ssWbJENWvWNP8SatxkZtKkSTp0qNAt74i0BUOkrVDG5+tPf/rTIp+vxs2KAl3hVukj7aLdGvnQG0p/+JNzrk1pDJE2ur377rtq166d+TlvTIcOHcwbgwXy17/+1dzn8ssvt7acmxFqe/ToYe7/z3/+09paVH6g/fnPf25tObe//e1v5jkYNyirDD755BMzZue//kbU/tOf/mQ9em5EWgCwD5EWABATTn/zmT546w299eF+HbO2IbYcOXJEU6ZMKXLF0DPPPHPmiiEibcEQaV3BiLKFP1/PP/98LV68uMgd5StFpF34gQZkL9B1I2ar46QcjXrG2L5fQ7PvVMO6aYqPj1NcfJKSGg1Rm0mblBXoOfwTTqTNmvFrdRj9qNqPCnEylmnwwqLPlT9E2tD973//0y9/+UvVrl3b/Jw3rq41rvL817/+Ze1xxoIFC8zHv//971tbymasS969e/eAoXblypVmoP3Zz35mbSmb8d8NYw1p4zzKs0SAWxlh1gi0xvtljBFujYB7LkRaALBP1EXaw8fytMvGRXQBAEBsMf7CafxlPf8voS1bttSGJ/sGDpaxOERaVzE+X/PvYm9Mq1at9MYbb5iPlRZpnYiOxtgdabMe+plaNKl1JsQa71+8T9VbPqg+d89S/eoexVepp5rN+6phizaqnuj/c+KVapG9ReMCPFc4kXbs5AlK9XrOvsZBT9VhuuHJos919jmJtOV29OhRTZ061Vwn1XidjV+oLVq06Ow/wTfCrbH96aefNv8cLCPUGl9LzZs311dffWVu+8Mf/mAG2meffdb8cyiuvvpq8zyMm5hVJsZyEsZra/xiyHj/jF8UGa/5wYMHrT2KItICgH2iLtICgNsYN3u54YYbGIaJounUqdOZyFJoerSprf2/7hc4XMbSbJlt/jNj447fbp7rr79eV155pfmxDPR4ZZp+/fqV+Hw13v/pi141f5AvHmmdiI7G2Bppn9mo9q1qKb7q5WrUa5Y6jpuvtl27qLo3SSm1GyghrYeumbr1bJDNmD5Xl9RJVELD29VnQbHn8k84kda88/zkaap/vlfxvpa6bPgi3XDT4rJnwkoNNa/8LTmBIm1OTo55V/2HHnpIP/7xjzVr1iw9/PDDeuSRR8yZPXu2Hn30UT322GOaM2eO5s6da97caf78+Xr88cf1xBNP6MknnzSvJDXG+AWFEdMWLlxo/qsAI2T+5Cc/Ma+4NpbMMJZ5MeKjcYWoMcY/5TfWWzVuivXcc8+ZV60+//zz+tWvfqVly5aZa8H+5je/0fLly8154YUX9Nvf/la/+93vzBsvGjfVMpYFMK48NeLmSy+9pD/+8Y/mDcCMefnll7V69Wrzasw1a9boz3/+s/7yl79o7dq1euWVV8z3f926dXr11VfNee2117R+/Xpt2LDBvAGX8csHY11mYy3xt956yzzf5OTkIp+jxtsYPHiw+b+NcwhV4VBrvP9GoDVep/IYNGiQeR7Gx+rtt982z9t4P4z3y3hfjffdeC2M18Y4V+P1M15P47U1Xm/j7RsfD+NjZHzMjI+h8TE1Ps7Gx934PDA+L4zPlRkzZuiBBx4w18I1bpZ211136Yc//KF5tb2xLq4RUW+55RbddNNNGjdunMaOHWv+fDpy5EgNGzZM6enpGjhwoPm9pHfv3ubyD127djX/e9ixY0e1b99e1157rRmejXWxje+tF154YZHX3hjjvP7zn/9Yr8AZboq0LVq0MM+bcW7uvvtu69UG4AQiLQCE6ZJLLinxQyzDMNE5d49opu9yhgeOl7EyW2abgSHQ68O4awbcusD8Qb7kcgf2R0dj7Iy0WdPvUx1fmuoPX19ovdnt6t2zlRLiEnVBv5eLrUN7QMPHpSupylVqPW1foe1nJrxIe2Yy7pqueik+JbV+9JxXFAczgSKtcXVooI8jE9rUqVPH/P9G+C0PI9Qa/4LCeA4jhJdXRkZGkfOKhRkyZIj+8Y9/WK/AGaFF2v0acON0XTvhZQ0P8MuWUCZQpL3gggsCnjdj3xi/EADgHCItAIQpP9IaV0MYV1AwDOP+Ma5MKv4Xjy0/6RE4WsbabJlt/rNW4wowxh1jhKTin6/GFYtlrUlrZ3Q0xs5IO3biWCX5rtPV0/cX2Z559zTV8qaocdbHRbYbkzV9uur4LlTTiXtKPGZHpB2/OFdDMgepmvciNRn/bsBlFYKdQJHWiIrGFZEPPvigeVXk/fffrx/96EfmGFdITve/f/fee695paRxtdq0adPMKyaNuHvnnXeaV07ecccd5hjLfRhXUd52223mjeWMqymNGyJmZ2ebEWXixInmmq3G1ZXGTJgwQTfffLN5peX48eN14403mldcZmVlKTMz07zycsyYMWZ4NMa4CnPUqFHmlZgjRozQ8OHDzSsyhw4daoY648pM44pW42pSY4yrNAcMGHD2yu++ffuqT58+Mq7a7NWrl7m2qXH1prHUjDHG1azGlZxdunRR586dz/4Lh+9973vmlZ3GjcOMq8WrVq1a4nM//wZjxpW65WFc2VqlShVddtll5pWXX3/9tfVIaIzXxTgP4+Zhxvka52+8P8b7Z7zPxmtgvCbG62S8bsZraLymxutsvO7Gx8H4uBgfK+NjZ3wsjY+t8fE2Pv7G54PxOWJ8vhhXXxtXXRtXWhvfD4wrq42rqY2rqI2rp42rgY0rj40rpI0ro40roo0roY0roI0rn40rno3vGcZrZnweGlcyG1cwG1cuGzdiM5ZsMG7e9v777+vDDz80r37OD9nGGEtPGFdUBxJapN2rnt2ayBPnkbfG1WrU9UHdMHWTxgTc99wTKNIay1h8+eWXjANjfO8yPheItICz1m7aq0nz1mnVxt3WlvAQaQHEnPxIu2fPHmsLALfKzc01o0P+XzwbNWpk/gX2uw03BQ6WsThRsiZtLDBudmfEuMI3uyu8NmfZNw6zLzoaY2ekzZxyq9KqNFaz7O1Fto+b86Ladc1U61veKXG+GdnjlVKlqa6YsrfIdmPsibT+Wbhe7dtdq9rt5yv9HFcVlzWsSRseI5wakdm4eZjxuW9cIWks2WDcOM+InMY2I0aGylguwVjiwAib//d//2dG1SuuuKJcoTZ/rWjjXx5UFsZ6tEYErl69uvm+GctNGMtwFF/ioLBQlzsY8+OV6pR+ixpfcpG85o0BE5XcsK8uH7xQvWfuDPr7FGvSRpaxhIrxOUGkBaILkRZAzCHSAu6Xl5dnXj2bfzdu4/8bfza2m16/OXCwjMUh0lY4I0QZ61Tm/9Ndj8djXml36NAha48zyo60/rEpOhpjZ6QdP+85NavlU5VGN6rTfdvKDDOZs5ap5aVp8tQcoy5zSz5uW6S1aYi05WPEQGNN1tTUVPNz37iC07iy9JtvvrH2kHnVsfGYcYVpKIwrSRMTE81Am88ItcZVvMZVo6XdGKs0DRs2NM9j165d1pboZqyla6zVa7xPxhhXThu/2CxL+dek3acR9/5S7ftmqH7dmvLExyk+oZbOv3Kc2mT9TunzDwQ4pmCItJFFpAWik+ORdt3mz5Q9N0crN+y0tgBAxSLSAu713XffmTe6Ma6Yzf+Lp3ElbYm/eBJpC4ZIW6GMGya1adPm7Oer8U/BP/roI+vRooKKtDaOrZF2ca6G3pShNJ9H8Qk1VaP7slL+yfNO9R7USzVSvIr31FWDka8WW6v2zBBpo5/xT/GbNm169nPfWDZh586Sf+cz/tm98bixnEKwjGVDjEBrXIle3LfffmsuVRBKqDX+Wb1xDsaVpsYvVaLZgQMHzi7dYEyzZs3MG7wFy5Ybhy3aoSF3PKNrug1Wndppio/3yJOWqa7nWLeWSBtZRFogOjkeaVe8tsP8ZrzkpQ+tLQBQsYi0gDt9/PHH5pqH+X/xbNWqlXn38ICItAVDpK0QRigpfCOiBg0amOtJGr9oKE10R1pj9mnYlFlq3qqtLhq0JmB8Hb94j3p0aawqF3RQs9Eva9SiQPsQaaOZEWKNIJv/uW+E2nOtN/vFF1+Y+xmB9Oy/hjiH/ED7zDPPWFtKyg+1V155ZVChdtmyZeY5GGvtRitjaYM5c+aoWrVq5vti/P/HHnvsnEsbBGJPpN2loVOfVbs+Y9WgUT154z2KP2+suj4ZYF9riLSRRaQFohORFkDMIdIC7mMsZZC/juf555+vxYsXn13HMyAibcEQaSPOuOGPEZyMz1fjRknGDVqMO9CXJfojbXAzds4WjX468GP5Q6SNPkePHjWXMjCWNDA+940lDp588smgImHbtm3NY4xfZJzLmjVrzEBr3GCrLEaoNW5cZoTaf/3rX9bWwPKj8rnCr5vt3btXl19+ufk+GGPc1Ozzzz+3Hg1NOMsdjJz+vK7vN1YXXVRLCcZyB54aSmuRodZjfq3Bc3MDHFMwRNrIItIC0YlICyDmEGkB9zHu2G2s42nc9fzw4cPW1nMg0hYMkTbijLvY54eSzz77zNpatliJtMEMkTb65N/E0bg5mHGTsFBu3mVEV+NYI6qWxrga1wi0Tz/9tLWlbMePH1fHjh3Nf3lRWqjdvXu3ec7GDchCXcfWLfKXjDCWNnj11VetreUT8o3DZr6oTukT1Pji/BuH+VS1Xnc1HfCEej5Q9vrU+UOkjSwiLRAZh47maWfuYR08UvYv64NBpAUQc4i0gPsY6wXu27fP+lMQiLQFQ6SNuC+//FIffPCB9afgEWkLhkgbfX7729+av5goz+e+EVPT0tLMn78CrZ/6l7/8xbwq/amnnrK2BC8/1LZu3brEzfoMY8eONd/uzTf7/7sRxd5//31zyYNwhRZp96pntybyxHmUkNpSDTrdq+9NeVMZpSxjcq4h0kYWkRaIjOU5n5rf25au3mptCQ+RFkDMIdIClQCRtmCItFGDSFswRNrYY6yfavz8ZVwN+u9//9vaKq1du9YMtAsWLLC2hM4ItR06dCgRao11zY23aVyhG9IvAiux0CLtPg3InKprxr2oIY8fCPB48EOkjSwiLRAZRFoACBORFqgEiLQFQ6SNGkTagiHSxh4jzBqB1vgZzFjaxvDKK6+YgdZY2zZcx44dM5ciueqqq8xQa0zDhg3Ntzdz5kxrL9hy47ByDJE2soi0QGQQaQEgTERaoBIg0hYMkTZqEGkLxr5Iu18Dbpyuaye8rOELAj0e3BBpI+O9994z14Y1fg677bbbzED7xBNPWI+GLz/UGlfU5q8d3a5dO1uWCagsyhNpx819RV2GTlaz9kPU+OoBatSmf8lp+yP1firw8cYQaSOLSAtERtRF2sPH8rTLxkV0ASBcRFqgEiDSFgyRNmoEF2ntiY7GOBdpwz9H+yJtwZqZ3hpXq1HXB3XD1E0aE3Df0odIGznPPfec+XOYMUOHDrW22ucf//iHUlNTzeevV6+eDhw4YD0CQ8iRdv7v1bpJmuKtj1mpU3WYbngywPHWEGkji0gLREbURVoAcBsiLVAJEGkLhkgbNYKLtPZER2Oci7Thn6N9kfZLjfnxSnVKv0WNL8m/+3yikhv21eWDF6r3zJ1B3X2eSBtZjz/++Nm4d/vtt+vkyZPWI+HZtWuXWrVqZT5vrVq1tG3bNusR5Ast0h7QiKzBSoxPUlrbmeo+/R2NnLvNf2yAmb9LWQGf48wQaSOLSAtEBpEWAMJEpAUqASJtwRBpAzr29w1a9vh9mjx+lNIH9teA9BEaN+k+Pf7C28rNs3aKsGCXO7AjOhrjXKQN/xztjLQFs08j7v2l2vfNUP26NeXxn1d8Qi2df+U4tcn6ndLnl37jIyJt5C1dulRVqlQxfya74oortHHjRuuR0BmRd968eUpOTjafr2nTptq9e7f1KAoLLdLuVe9eLZSQ3E8dHuHGYdGESAtEBpEWAMJEpAUqASJtwRBpizmm95aMU+saHvN7fZzHI19VnzyeM1ftxXl8athvvt4+Zu0eQaGvSVv+6GiMk5G2YMp3js5E2kKzaIeG3PGMruk2WHVqpyk+3iNPWqa6lrI8A5G2Yvztb3/TpZdeeuZr0z89evTQ6tWrg15D9uuvv9b8+fPVoEGDs88xduxYHT161NoDxYUWafepX9/WSjC+ds6xlEEwQ6SNLCItEBlrN+3VpHnrtGqjPb8YJNICiDlEWqASINIWDJG2iONvzVD7FI88yS2U8fgabf3yW532/9+3X36kPz91o9qkehTnqakhz+71b42ssG4cFmJ0NCYykbbQhHCOzkfaXRo69Vm16zNWDRrVk9d/LvHnjS01NBFpK05eXp5+/OMfq3r16mdDa40aNTRs2DDNnTtXL730kt5880298847Wr9+vZYtW6Z7771XHTt2lMdj/TLGPy1bttQrr7xiPStKE+qatGNum6g0X3Ndcdv2gI8HO0TayCLSAtGJSAsg5hBpgUqASFswRNpCjulPt10qb5xPl2X/UV9bWwsc1qrsS/yPe9XoB6v1rbU1UsKLtKFFR2MiH2mDP0dnIu0+jZz+vK7vN1YXXVRLCcZVvZ4aSmuRodZjfq3Bc3MDHHNmiLQV78iRI+aSBS1atDgbXssaY7mEAQMGmFff/u9//7OeCecS8o3DFr2rbt2uVlKdvmp94281YOa7/u9hH2lUidmhzEDHW0OkjSwiLRCdHI+06zZ/puy5OVq5Yae1BQAqFpEWqASItAVDpC3klA7uflevr/mD1u8ItPDsSX00t6uS4zyqNX6FjltbI6U8yx2UNzoaE5lIW75ztDPSjpn5ojqlT1Dji/PXx/Wpar3uajrgCfV8YBs3DotCf//73801a6dMmWJG2A4dOqhdu3bq3LmzRo4cqQceeMAMs8eOVcC6JVEu5DVp+12v1Fp15St01XLAqTpMN5zjl0ZE2sgi0gLRyfFIu+K1HeY34yUvfWhtAYCKRaQFKgEibcEQaUt3+lt9tWerNr26Ssufna8ZU8aq++U15Inz6Pwbf+faSGtHdDTGyUgb7jnaF2n3qme3JubHNCG1pRp0ulffm/KmMhYF2rf0IdIiVoS6Ju2AjHG6+JpBalzWtHtAvZ8K9BxnhkgbWURaIDoRaQHEHCItUAkQaQuGSFtMnva9ukhTh3fUZTWrymNc4WWNx5OqCy88z+WR1p7oaIxzkTb8c7Qv0u7TgMypumbcixryePnvPk+kRawIebkDm4ZIG1lEWiA6EWkBxBwiLVAJEGkLhkhbyCntWjZezasZNwfzqmaz72nQ2Fs1beZ8/XT5n7Vp91d6/7HO5nIH7o209kRHY5yLtOGfo32R1p4h0iJWEGljA5EWiIxDR/O0M/ewDh45YW0JD5EWQMwh0gKVAJG2YIi0BY6t0ZSmPsV5UnT9tD9r/0lr+1kn9Pq9reSL86jGuN9GwZq04Y1zkTb8sTvSjpv7iroMnaxm7Yeo8dUD1KhN/5LT9kel/nNsIi1iRTiRdtwTmzXgjmXqesvP1HXSCvWf8fE5bxZWeIi0kUWkBSJjec6n5ve2pau3WlvCQ6QFEHOItEAlQKQtGCLtWae2L1DvanGKS+6oh98tUWil43/VjPbJ5hIIqWN/o2+szZESSqQNNzoa43SkDeccbY2083+v1k3SFO//uBr/fS91znFjIyItYkW5Iu3Tb6vbgIE6P8Vb9OssvppSLr9JHe7ZFvi4QkOkjSwiLRAZRFoACBORFqgEiLQFQ6QtcGiFxtf3Ks5zvrrPekuHrM2GvM/f1OLxrZXiORMXUoYv1ZenrQcjJOhIa0N0NMbRSBvmOdoXaQ9oRNZgJcYnKa3tTHWf/o5Gzt2m0fMCzPxdygr4HERaxI6QI+2i99W18xXyxnvkq9NJl3SZoqsG3quret+iJi2aK9HjUXzNweo4Mzfw8dYQaSOLSAtEBpEWAMJEpAUqASJtwRBpCzmmtx7uolpGiPWk6JL2/TVyzGgN6d1Ol6R65Kl5jcZO6KeG3jgld5qtLQEutnVScJHWnuhojHORNvxztC/S7lXvXi2UkNxPHR7hxmFAWUKNtJlT71BNr0+p187XwCeKP75XQ265WRdU9T/eZZnGFHms6BBpI4tIC0RG1EXaw8fytMvGRXQBIFxEWqASINIWDJG2qNNf6q2f363Rna9QgxrJSk6toyZtemrMtIVas/0bndq/VMNreuRJ7aUnPjllHRQZwUVae6KjMc5F2vDP0b5Iu0/9+rZWQlqmup7jquKyhkiLWBFapN2vAYOu83+t99X1s0r7Wt+mrp0aKaFutnqdY/kVIm1kEWmByIi6SAsAbkOkBSoBIm3BEGmjRnCR1p7oaIxzkTb8c7Qv0n6pMbdNVJqvua64bXvAx4MZIi1iRWiRdq96dW8qb70fnGP961wNHnaDvMkj1Pkc3w+ItJFFpAUig0gLAGEi0gKVAJG2YIi0USPYNWntiI7GOBdpwz9HOyPt+EXvqlu3q5VUp69a3/hbDZj5rv81/kijSsyOUu9ET6RFrAj1StqBg6+Xt1p/dXi4tCtpt6tbp8ZKqDNRPbmS1jWItEBkEGkBIExEWqASINIWDJE2agR94zAboqMxTkbacM/Rvki7V737Xa/UWnXl83jM/76XOue40RqRFrEi5DVp7/qhanoTlXb9Uxpc4utnv4Zl36paST5V7/hzjS7yWNEh0kYWkRaIjLWb9mrSvHVatXG3tSU8RFoAMYdIC1QCRNqCIdJGjaDXpLUhOhrjXKQN/xzti7T7NCBjnC6+ZpAalzXtHij1n2wTaRErQo204xe9py6dmikh3qvEel11abc7dXX6/bq63yQ1bdVKSV6P4mv0Vfv79wc+3hoibWQRaYHoRKQFEHOItEAl8MUb0oFXGWP+9YH1osDtgl2T1o7oaIxzkTb8c7Qv0tozRFrEipAjrTFPblDnXj2VluxVfOFfwsSnKPXyCep477bAxxUaIm1kEWmB6OR4pF23+TNlz83Ryg07rS0AULGItACAihD0cgc2jXORNvxxKtKOe2KzBtyxTF1v+Zm6Tlqh/jM+PueSEPlDpEWsKFektWbcvLfU77bn1Pmmxep86wvqN2NrUF9fxhBpI4tIC0QnxyPtitd2mN+Ml7z0obUFACoWkRYAUBHKE2nLGx2NiVSkLc852h5pn35b3QYM1Pkpxa/0q6aUy29Sh3vOfaUfkRaxonyRdq+G3blQ7SbkKCt/28JX1aH7BLXJ+qOGP11438BDpI0sIi0QnYi0AGIOkRYAUBFCirRhRkdjHI+0YZyjrZF20fvq2vkKeeM98tXppEu6TNFVA+/VVb1vUZMWzZXo8Si+5mB1nJkb+Hj/EGkRK0KPtNvUN727qiV45G05W0MXWdufeFaXpnj8X++Jqt76IfV7vPAxJYdIG1lEWiA6EWkBxBwiLQCgIgQdaW2IjsY4GmnDPEc7I23m1DtU0+tT6rXzNfCJ4o/v1ZBbbtYFVf2Pd1mmMUUeKxgiLWJFqJE28557VDvRq6SmE9Vx6maNLfTY2EfWqHO/HqqeUE21+r1c5LHiQ6SNLCItEBmHjuZpZ+5hHTxywtoSHiItgJhDpAUAVIRgI60d0dEYJyNtuOdoX6TdrwGDrlNCcl9dP+tAgMeN2aaunRopoW62epVyozUiLWJFaJF2vwYOvl7e5F5q/1ApvxRa9IFuaF9fCRdNUZ9zLHtApI0sIi0QGctzPjW/ty1dvdXaEh4iLYCYQ6QFAFSE4CKtPdHRGOcibfjnaF+k3ate3ZvKW+8H6l3qa5GrwcNukDd5hDo/GehxIi1iR2iR1v/11cP/9VV/8jm/vtKHdZa32shSv76MIdJGFpEWiAwiLQCEiUgLoGzfau/6Jbp7+BA9/IY9/3wJCC7S2hMdjXEu0oZ/jnZeSWte6Vetvzo8XFow3q5unRoroc5E9SzlfIm0iBXlu5L2XL+Q2aHunS8559eXMUTayCLSApFBpAWAMBFpAZTuuHbn/ER3DmyhGp44xfmaa2oOkRb2CPZKWjuiozFOXkkb7jnaF2m/VOZdP1RNb6LSrn9Kg0sE4f0aln2raiX5VL3jzzW6yGMFQ6RFrAh5TdppU3VBFZ9Sr5mt/vOKf73v0ZBbblGtZJ9SOj1X6teXMUTayCLSApERdZH28LE87bJxEV0ACBeRFkCpjn+iDTlbtOu9n2h4fS+RFrYKek1aG6KjMc5F2vDP0c5IO37Re+rSqZkS4r1KrNdVl3a7U1en36+r+01S01atlOT1KL5GX7W/f3/g4/1DpEWsCDXSjl+0Rd26tDRvEpiQ1lL1r8lQsy4TdHnHYWpwSSNVMbbXGqrvlXEjQyJtZBFpgciIukgLAG5DpAVQppMfa363ZCItbBVspLUjOhrjZKQN9xxtjbTGPLlBnXv1VFqyV/H+/8Yb/503Jz5FqZdPUMd7twU+zhoiLWJFyJHWmKf/pp5DM1W3znmKj8//+vJ/jSdepNrt7lHXGXsCH1doiLSRRaQFIoNICwBhItICKNOp3VrYtxqRFrYKOtIaE2Z0NMbRSGtMGOdoe6S1Zty8t9TvtufU+abF6nzrC+o3Y6syA+xXfIi0iBXlirRnZ49GzcxRv6l/VL97X9fwJ0pb7qTkEGkji0gLRAaRFgDCRKQFUKZTf9cz/Ym0sFdIkdaa8kZHYxyPtNaU5xztj7R7NezOhWo3IUdZ+dsWvqoO3SeoTdYfNfzpwvuWHCItYkV4kbb8Q6SNLCItEBlrN+3VpHnrtGrjbmtLeIi0AGIOkRZAmYi0cEBokTa86GiM85G2/Odob6Tdpr7p3VUtwSNvy9kausja/sSzujTFo7j4RFVv/ZD6PV74mKJDpEWsINLGBiItEJ2ItABiDpEWQJmItHBA8JE2/OhojLORNrxztDPSZt5zj2onepXUdKI6Tt2ssYUeG/vIGnXu10PVE6qpVr+XizxWeIi0iBVE2thApAWik+ORdt3mz5Q9N0crN+y0tgBAxSLSAigTkRYOCDbS2hEdjXEy0oZ7jvZF2v0aOPh6eZN7qf1DpdxdftEHuqF9fSVcNEV9Srm6l0iLWEGkjQ1EWiA6OR5pV7y2w/xmvOSlD60tAFCxiLQAykSkhQOCi7T2REdjnIu04Z+jfZF2r3r1aCpv/cnq/VSgx43JVfqwzvJWG6nOTwZ6nEiL2EGkjQ1EWiA6EWkBxBwiLYAyEWnhgOAirT3R0RjnIm3452j/lbR9df2s0u40v0PdO1+ihDoT1bOU8yXSIlYQaWMDkRaITkRaADGHSAugTERaOCC0K2nDi47GOH8lbfnP0b5I+6Uyp03VBVV8Sr1mtvrPK34+ezTklltUK9mnlE7PaXSRxwqGSItYQaSNDURaIDIOHc3TztzDOnjEnr8vEGkBxBwiLYAyEWnhgKDXpLUhOhrjXKQN/xztjLTjF21Rty4t5Y33KCGtpepfk6FmXSbo8o7D1OCSRqpibK81VN+bWcrSDP4h0iJWEGljA5EWiIzlOZ+a39uWrt5qbQkPkRZAzCHSAigTkRYOCDbS2hEdjXEy0oZ7jrZGWmOe/pt6Ds1U3TrnKT4+zvzvfFycR/GJF6l2u3vUdcaewMdZQ6RFrCDSxgYiLRAZRFoACBORFkCZTu3Wwn5GpL1cd75CpIU9go60xoQZHY1xNNIaE8Y52h5pz84ejZqZo35T/6h+976u4U+UthxD0SHSIlYQaWMDkRaIDCItAISJSAugTCff0yPfS1acp55ufvGItREIT0iR9uyULzoa43ikPTuhn6NzkbZ8Q6RFrCDSxgYiLRAZURdpDx/L0y4bF9EFgHARaQGU6nSuXl0yS/eM76wG3jNXBZ53ZbqmPDBPKz8+ae1Ufqd252jpk7M1c8aDevDBMzNjxizNW/wnfcKPSpVe+SJt+SdykTb0IdICFYNIGxuItEBkRF2kBQC3IdICqFCnv9DKW5vK5/8+5Kl2tSat2KHj1kOo3Ii0BUOkBSpGfqQdPONNjZr7ScSm77Q15tsl0kYGkRaIDCItAISJSAugYp3Qa3e3lC/Oo5rDl+qz09ZmVHpE2oIh0gIVIz/SVtQQaSODSAtEBpEWAMJEpAVQoU5t15O9qinOk6pBi/eKRhs78iNtzztWavCDGx2fnrf/3nx7oURaYwI9l92Tf25lRVpjBty3zvHpc9dq820RaVHZ/XLNJ7p/yZsVNq9vybXOBE4i0gKRsXbTXk2at06rNu62toSHSAsg5hBpAVSk0/t/rqE1PIqr1l3zPz5lbUUsyI+0kZ5QI20kJ5hIG8kh0gKoDIi0QHQi0gKIOURaABXp6+VZutATp6rX/1h/C/9eZIgiW3Z+pTV/3RPx+WDXV9YZlO7Tff8KeKzTY7wmgXxx8Fu988kXEZ9gXisAcDsiLRCdHI+06zZ/puy5OVq5Yae1BQAqFpEWQMX5RquyL5Y3zqfW01/XCWsrAACAXYi0QHRyPNKueG2H+U+Hlrz0obUFACoWkRZAhTnxqqZd4VOcr6mm/OW4tREAAMA+RFogOhFpAcQcIi2AipK3aabaVY2Tt8EtWnnY2ggAAGAjIi0QnYi0AGIOkRZAxTipj+d3U3KcR7XHLNOXp63NAAAANiLSApFx6GieduYe1sEj9ixiRqQFEHOItEBs+u6779SuXTvVr1/f0Xn99dett1jM6T1aPChVHs95Sl/ymWi0AADACURaIDKW53xqNs+lq7daW8JDpAUQc4i0QOz6+uuvza99J+c///mP9daKOv3lr5RRyyNPSm8t2H7K2goAAGAvIi0QGURaAAgTkRZARTj8+wlq4I1TcqfZev+ktREAAMBmRFogMoi0ABAmIi2AyDuutXc0ky+uqq6+/y3lWVsBAADsRqQFIiPqIu3hY3naZeMiugAQLiItgIj7dp2mXeFTnPdSTVlz3NoIAABgPyItEBlRF2kBwG2ItAAi67S+WDFBTbxxiqvWR0/vZD1aAADgHCItEBlEWgAIE5EWQGSc0LY//VSPP3izvlffa37fifOkqtWwaZr9zGp9ypoHAADAAURaIDKItAAQJiItAAAAgMqKSAtExtpNezVp3jqt2rjb2hIeIi2AmEOkBQAAAFBZEWmB6ESkBRBziLQAzvhWe9cv0d3Dh+jhN0K4wenJL/Tuymf0YPZYZYyfrGkzf633uT8qAABwCSItEJ0cj7TrNn+m7Lk5Wrlhp7UFACoWkRaIdce1O+cnunNgC9XwxCnO11xTc4KprKf11duLdWuHi9So6+16duN+0WYBAIDbEGmB6OR4pF3x2g5zEd0lL31obQGAikWkBWLc8U+0IWeLdr33Ew03bugVVKTN084VU9S+ZjW1HP8LfXjM2gwAAOAyRFogOhFpAcQcIi0A08mPNb9bchCR9rT2r7pdbVO9qtfvcW0m0AIAABcj0gLRiUgLIOYQaQGYTu3Wwr7Vyoy0p3Ys1ciGXnlq9dVTW09aWwEAANyJSAtExqGjedqZe1gHj9izCBqRFkDMIdICMJ36u57pX0akPX1Avxt/ibxxPl3xw7X6xtoMAADgVkRaIDKW53xqNs+lq7daW8JDpAUQc4i0AExBRNqTH85TtxSP4qq210Pv5Ol47hat+8NyLVv+R72+/ZBOWfsBAAC4BZEWiAwiLQCEiUgLwFRmpD2p92d3UrL/+4X34gG69Za+6vC9nurb/SrVr+qRp2oj9bxvlfawAgIAAHARIi0QGURaAAgTkRaAqaxIe/ozLUlPlSfOo5rXT9LP3zqgMz32tL5cP1Pda3sU56mp7o/9Td+a2wEAACoekRaIjKiLtIeP5WmXjYvoAkC4iLQATGVF2rw3NL21z//9Illd5nxoBdp8J/S3WR2V7ImTt8F4/e4razMAAEAFI9ICkRF1kRYA3IZIC8BUVqT99s+a0sTr/36RoiE/P6DT1uZ8pz55XD2qxfmPb6YfvsIvowEAgDsQaYHIINICQJiItABMZUXaE+t1z5XGlbSpGv2rQ9bGQk7kaGpz/+Oe8zXud8esjQAAABWLSAtEBpEWAMJEpAVgCmJN2p8ONtakrabeC7brlLX5rJPva3anZMV5L9Pta1mVFgAAuAORFoiMtZv2atK8dVq1cbe1JTxEWgAxh0gLwFRWpNUpbXuil1I8XtW/+UUdtraelbdJM6+rKk+dMVr2RfHFEAAAACoGkRaITkRaADGHSAvAdGq3FvYzIu3lurOUNWVPf/5bjb/EK2+jm7Wi2M3BTh/4pUbVrKoWU9YowGIIAAAAFYJIC0QnxyPtus2fKXtujlZu2GltAYCKRaQFYDr5nh75XrLiPPV084tHrI3FndKe5Tfp8qqp6vjgG4Wupj2kjTM768Krp2hVLlfRIni7Pz+inbmHIz7H/u+kdQal2/fFNwGPdXpKO7fPvzoWcH+n5+sj3AgQQHQj0gLRyfFIu+K1HeYiukte+tDaAgAVi0gLxLjTuXp1ySzdM76zGnjj/N8PPDrvynRNeWCeVn4cKBZ9oy1LJ6rdhY3U7Qdz9fPnFuuR73fXNX3v1e+3E3MQmn5TV5o/G0d6Nryfa51B6cb9+M8Bj3V61r+33zqDoqY+vSHg/k7P4j/w9xYA0Y1IC0QnIi2AmEOkBVAeeV98oFdWPK/nlq3QX/72mY5b24FQ5EfaPnetVt+7/+z45IfHUCJtzztWBnwuuyf/3IKJtIGOt3vy3xaRFkC0I9IC0YlICyDmEGkBABUlP9KOW3RA4xd/6fgM/NF68+2FEmnHPrU34HPZPQPvPxNhy4q0o+dvD3i83TPs4XfNt0ekBRDtiLRAZBw6mmculXTQpqWSiLQAYg6RFgBQUYi0BUOkBQBnEGmByFie86n5s8PS1VutLeEh0gKIOURaAEBFIdIWDJEWAJxBpAUig0gLAGEi0gIAKkqljrSLdmvkQ28o/eFPlBno8WJDpAUAZxBpgcgg0gJAmIi0AICKEvWRduEHGpC9QNeNmK2Ok3I06hlj+34Nzb5TDeumKT4+TnHxSUpqNERtJm1SVqDnsIZICwDOINICkRF1kfbwsTztsnERXQAIF5EWAFBRojnSZj30M7VoUutMiPX/dzQu3qfqLR9Un7tnqX51j+Kr1FPN5n3VsEUbVU/0/znxSrXI3qJxAZ7LmHAibdaMX6vD6EfVflSIk7FMgxcWfa78IdICqCyItEBkRF2kBQC3IdICACpKaZHWiehojG2R9pmNat+qluKrXq5GvWap47j5atu1i6p7k5RSu4ES0nromqlbzwbZjOlzdUmdRCU0vF19FhR7LmvCibRjJ09QqtdzJhaHMlWH6YYniz5X/hBpAVQWRFogMoi0ABAmIi0AoKKUFmmdiI7G2BVps6bfpzq+NNUfvr7QerPb1btnKyXEJeqCfi8XW4f2gIaPS1dSlavUetq+QtsLJrzlDvZp2ORpqn++V/G+lrps+CLdcNPismfCSg01l2goOURaAJUFkRaIDCItAISJSAsAqCilL3dgf3Q0xq5IO3biWCX5rtPV0/cX2Z559zTV8qaocdbHRbYbkzV9uur4LlTTiXtKPGaMHWvSZtw1XfVSfEpq/eg5rygOZoi0ACoLIi0QGWs37dWkeeu0auNua0t4iLQAYg6RFgBQUcpak9bO6GiMXZE2c8qtSqvSWM2yiwbTcXNeVLuumWp9yzsl1p7NyB6vlCpNdcWUwGvc2nPjsFwNyRykat6L1GT8u6WufxvMEGkBVBZEWiA6EWkBxBwiLQCgopR94zD7oqMxtq1JO+85NavlU5VGN6rTfdvKPK/MWcvU8tI0eWqOUZe5gfexJ9L6Z+F6tW93rWq3n6/0c1xVXNYQaQFUFkRaIDo5HmnXbf5M2XNztHLDTmsLAFQsIi0AoKKUHWn9Y1N0NMa2SLs4V0NvylCaz6P4hJqq0X2ZxpTYx5id6j2ol2qkeBXvqasGI18ttlZtwdgWaW0aIi2AyoJIC0QnxyPtitd2mD/sLHmJH3YAuAORFgBQUYKKtDaOfZHWmH0aNmWWmrdqq4sGrSklvu5Rjy6NVeWCDmo2+mWNWhRonzNDpAUAZxBpgehEpAUQc4i0AICKEt2RNrgZO2eLRj8d+LHCQ6QFAGcQaYHoRKQFEHOItACAihILkTbYIdICgDOItEBkHDqap525h3XwyAlrS3iItABiDpEWAFBRiLQFQ6QFAGcQaYHIWJ7zqfmzw9LVW60t4SHSAog5RFoAQEUh0haMfZF2rwbfOE4NOy3U4KdKPp4xbZaatLlDPWaf+zUn0gKoLIi0QGQQaQEgTERaAEBFCS7S2hMdjXEm0tpzfvZF2u3qN7yvqickK639Ag1eUPDY6Gkz1aCmT976Ger04L5Cx5QcIi2AyoJIC0QGkRYAwkSkBQBUlOAirT3R0RhnIq0952fvcgc71H9EP6UkJOm8dvM16MkDGn3XDDU4338uF41Rpxllv1ZEWgCVBZEWiIyoi7SHj+Vpl42L6AJAuIi0AICKEvxyB+FHR2OcW+4g/POzf01a/zmNHKAUb6JSW6arrv9cqjTI1A0zg3utiLQAKgsiLRAZURdpAcBtiLQAgIoS2pq04UVHY5xdkza883PmxmE71Lt3GyXExym+Wne1uz/414pIC6CyINICkUGkBYAwEWkBABUl9BuHlT86GuP8jcPKf372R9oDGnXHPaqX5pOvTlNVr5Kk1LZzNPCJQPuWHCItgMqCSAtEBpEWAMJEpAUAVJTQIm140dEYZyNteOdnb6Q9oJFT7lTdVJ8SL75V3Wbt1KDMEUrzJSr16tkaEMQ5EWkBVBZEWiAy1m7aq0nz1mnVxt3WlvAQaQHEHCItAKCiBB9pw4+OxjgXacM/P/si7QGNmHy7LkzxKrFJtro9kmtt36PBWSPNc0pp87D6P178uKJDpAVQWRBpgehEpAUQc4i0AICKElyktSc6GuNMpLXn/GyLtIu2qmef65Ry6WR1P3su+bNXg8eNUo3afXTd9HO/X0RaAJUFkRaITo5H2nWbP1P23Byt3LDT2gIAFYtICwCoKEFFWpuiozGORFqbzs/W5Q4W7VDG46W9pvuVMX9XgO1Fh0gLoLIg0gLRyfFIu+K1HeYPO0te4ocdAO5ApAUAVJSglzuwIToa49hyBzacn/03DgtviLQAKgsiLRCdiLQAYg6RFgBQUUK7cVj44+yNw8IbIi0AOINIC0QnIi2AmEOkBQBUFCJtwRBpAcAZRFogMg4dzdPO3MM6eOSEtSU8RFoAMYdICwAIxZEjR3TihD0/fFfqSLtot0Y+9IbSH/5EmYEeLzZEWgBwBpEWiIzlOZ+aPzssXb3V2hIeIi2AmEOkBQAEy4izaWlpql27tn7xi1/of//7n/VI+UR9pF34gQZkL9B1I2ar46QcjXrG2L5fQ7PvVMO6aYqPj1NcfJKSGg1Rm0mblBXoOawh0gKAM4i0QGQQaQEgTERaAECw/vvf/6pr167mfzeMufbaa/XOO+9Yj4YumiNt1kM/U4smtc6EWOP1iPepessH1efuWapf3aP4KvVUs3lfNWzRRtUT/X9OvFItsrdoXIDnMiacSJs149fqMPpRtR8V4mQs0+CFRZ8rf4i0ACoLIi0QGURaAAgTkRYAEIrvvvtOv/nNb1SvXr2zsTYrK0tffPGFtUfwSou0TkRHY2yLtM9sVPtWtRRf9XI16jVLHcfNV9uuXVTdm6SU2g2UkNZD10zdejbIZkyfq0vqJCqh4e3qs6DYc1kTTqQdO3mCUr2esx+PoKfqMN3wZNHnyh8iLYDKgkgLREbURdrDx/K0y8ZFdAEgXERaAEB5fPvtt/rRj34kn89n/nekevXqmjNnjk6ePGntUbbSIq0T0dEYuyJt1vT7VMeXpvrD1xdab3a7evdspYS4RF3Q7+Vi69Ae0PBx6UqqcpVaT9tXaHvBhLfcwT4NmzxN9c/3Kt7XUpcNX6Qbblpc9kxYqaHmEg0lJ1Ck/d73vqcLL7yQccHs3LnT+qgAKAuRFoiMqIu0AOA2RFoAQDiM/34MHjz4bCi99NJLtXr1avOK27KUvtyB/dHRGLsi7diJY5Xku05XT99fZHvm3dNUy5uixlkfF9luTNb06arju1BNJ+4p8ZgxdqxJm3HXdNVL8Smp9aPnvKI4mAkUaZs1a3b248xU7Gzbts36qAAoC5EWiAwiLQCEiUgLALBDTk6OmjdvfjYi9enTRzt27LAeDaysNWntjI7G2BVpM6fcqrQqjdUsu2gwHTfnRbXrmqnWt7xTYu3ZjOzxSqnSVFdMCbzGrT03DsvVkMxBqua9SE3Gv1vq+rfBTKBI+/XXX+vLL79kKnBq1KhBpAVCRKQFIoNICwBhItICgLscPHjQ/KfM0TiffPKJsrOzz4ZaY4yrbI8ePWq9d0WVfeMw+6KjMbatSTvvOTWr5VOVRjeq033byjyvzFnL1PLSNHlqjlGXuYH3sSfS+mfherVvd61qt5+v9HNcVVzWsCatO7Vo0cL8uiLSAsEj0gKRsXbTXk2at06rNu62toSHSAsg5hBpAcBd7r///rOBs7JM7dq19cILL1jvYYGyI61/bIqOxtgWaRfnauhNGUrzeRSfUFM1ui/TmBL7GLNTvQf1Uo0Ur+I9ddVg5KvF1qotGNsirU1DpHUnIi0QOiItEJ2ItABiDpEWANylcKRt2rRp1M1ll1129vzzZ9SoUcrNLRlGg4q0No59kdaYfRo2ZZaat2qriwatKSW+7lGPLo1V5YIOajb6ZY1aFGifM0OkRTCItEDoiLRAdHI80q7b/Jmy5+Zo5QbuxgnAHYi0AOAu+ZH24YcftrZEj48//lhdu3Y1z9+Y1q1b64033rAeLSm6I21wM3bOFo1+OvBjhYdIi2AQaYHQEWmB6OR4pF3x2g7zh50lL/HDDgB3INICgLtEY6Q9fPiwJk+eLI/HY577+eefb/6l+PTp09YegcVCpA12iLQIBpEWCB2RFohORFoAMYdICwDuEk2R1oiwixcvNqOscc4JCQm67bbbzGgbDCJtwRBpEQwiLRA6Ii0QnYi0AGIOkRYA3CVaIq2xjEGrVq3MczWmW7du+uSTT6xHg0OkLRgiLYJBpAVCR6QFIuPQ0TztzD2sg0dOWFvCQ6QFEHOItADgLm6PtMYNwEaOHGmeozGNGjXSypUr9d1331l7BI9IWzBEWgSDSAuEjkgLRMbynE/Nnx2Wrt5qbQkPkRZAzCHSAoC7uDnSnjhxQmlpaeb5JSUladasWcrLy7MeDR2RtmCItAgGkRYIHZEWiAwiLQCEiUgLAO7i5khrrEE7cOBAjR071ryiNlxE2oKxL9Lu14Abp+vaCS9r+IJAjwc3RFp3ItICoSPSApFBpAWAMBFpAcBdounGYeEKLtLaEx2NcSbS2nN+9kXaverZrYk8cR55a1ytRl0f1A1TN2lMwH1LHyKtOxFpgdARaYHIiLpIe/hYnnbZuIguAISLSAsA7kKkLT72REdjnIm09pyfncsdjPnxSnVKv0WNL7lI3vg4xcUnKrlhX10+eKF6z9ypcQGOKT5EWnci0gKhI9ICkRF1kRYA3IZICwDuQqQtOXZER2OcWu7AjvNzZk3afRpx7y/Vvm+G6tetKY//3OITaun8K8epTdbvlD6/9NedSOtORFogdERaIDKItAAQJiItALgLkfZcU/7oaIzza9KW//wcv3HYoh0acsczuqbbYNWpnab4eI88aZnqWsoSDURadyLSAqEj0gKRQaQFgDARaQHAXYi0QU6I0dGYiN44LMTzcz7S7tLQqc+qXZ+xatConrz+84k/b6y6PhlgX/8Qad2JSAuEjkgLRMbaTXs1ad46rdq429oSHiItgJhDpAUAdyHSBjkhRkdjIhtpQzs/p5Y7GDn9eV3fb6wuuqiWEowrez01lNYiQ63H/FqD5+YGOObMEGndiUgLhI5IC0QnIi2AmEOkBQB3IdKea8ofHY2JxHIH5T0/W28cNvNFdUqfoMYX56+R61PVet3VdMAT6vnANm4cFsWItEDoiLRAdHI80q7b/Jmy5+Zo5Yad1hYAqFhEWgBwl0hG2uN73lHOK68o5739Omlti6SgbxxmQ3Q0xrEbh9lwfvZF2r3q2a2JPHEeJaS2VINO9+p7U95UxqJA+5Y+RFp3ItICoSPSAtHJ8Ui74rUd5g87S17ihx0A7kCkBQB3iVykPaXdC/upmv9tpY7+lQ5ZWyMpuEhrT3Q0xplIa8/52Rdp92lA5lRdM+5FDXm8HMtIWEOkdSciLRA6Ii0QnYi0AGIOkRYA3IVIW3zsiY7GOBNp7Tk/x28cFuIQad2JSAuEjkgLRCciLYCYQ6QFAHch0jo3Eb1xWIhjd6QdN/cVdRk6Wc3aD1HjqweoUZv+Jaftj9T7qcDHE2ndiUgLhI5IC0TGoaN52pl7WAePnLC2hIdICyDmEGkBwF2ItIEn3OhojJORNtzzszXSzv+9WjdJU7z/Y2t8LpU6VYfphicDHO8fIq07EWmB0BFpgchYnvOp+bPD0tVbrS3hIdICiDlEWgBwl4qKtAe/2abVT9+niRlDlD5srLLve0ovbv7C0RuKBR1pbYiOxjgWaW04P/si7QGNyBqsxPgkpbWdqe7T39HIuds0el6Amb9LWQGfg0jrVkRaIHREWiAyiLQAECYiLQC4S0VE2mo9J2ry92rL6//fHq9XXo/HPAdP1SYa+Njr+uq0dYjNgou09kRHY5yJtPacn32Rdq9692qhhOR+6vBI+ZeRINK6E5EWCB2RFogMIi0AhIlICwDuUhGR1nh73npdNfX5t/TZ8VPK++dH+uPsoWqW7FGcr7myX/pCTnTa4CKtPdHRGGcirT3nZ1+k3ad+fVsrIS1TXc9xVXFZQ6R1JyItEDoiLRAZURdpDx/L0y4bF9EFgHARaQHAXSok0vpaavKq4iH2G701o4NSPB6ldJ+vjxxY9yC4SGtPdDTGmUhrz/nZuSbtmNsmKs3XXFfcFsT6taUMkdadiLRA6Ii0QGREXaQFALch0gKAu1REpE3uOjdghD295ycamOpRXLXumv/xKWurfYJdk9aO6GiMU2vS2nF+tt44bNG76tbtaiXV6avWN/5WA2a+q5FzPtKoErNDmYGO9w+R1p2ItEDoiLRAZBBpASBMRFoAcJfIR1qfmv3wFQX8d14nXtf01j7FeS7ULX84bm20T9A3DrMhOhrj2I3DbDg/W9ek7Xe9UmvVlc9aW7jUOceNzIi07kSkBUJHpAUig0gLAGEi0gKAu0Q+0lZVu5lvK8/aWsTJLXr0hmT/+aQqY9lha6N9gl6T1oboaIxja9LacH52rkk7IGOcLr5mkBqXNe0eUO+nAj0HkdatiLRA6Ii0QGSs3bRXk+at06qNu60t4XFnpP33IemDxxgmuifvoPUJDbch0gKAu1TElbSt7n098JW0eW/pgbZVzStpJ6ysqCtp7YmOxji1Jq0d52frcgc2DJHWnYi0QOiItEB0cmek/b8vpHUjGCa659uy/zKEikGkBQB3iXyk9ahmxq/0lbW1sNNfPKeR53sUl9xJs7fYf+ewoJc7sGkcW+7AhnEq0o57YrMG3LFMXW/5mbpOWqH+Mz4+55IQ+UOkdSciLRA6Ii0QnRyPtOs2f6bsuTlauWGntSUIRFqmMgyR1rWItADgLhVx4zBv/ZFauqf4jcFOatvT/VTTE6eqbR/QWwHXQwhPeSJteaOjMZGItOU9P9sj7dNvq9uAgTo/xat4/8fY+JwyJ76aUi6/SR3u2Rb4OGuItO5EpAVCR6QFopPjkXbFazvMH3aWvBTCDztEWqYyDJHWtYi0AOAuFRFp4+K8uqjvLOXszy+x32rXS3erc22v4rwNNfoXu/172y+kSBtmdDTG0Ugb5vnZGmkXva+una+QN94jX51OuqTLFF018F5d1fsWNWnRXIkej+JrDlbHmbmBj/cPkdadiLRA6Ii0QHQi0jKMU0OkdS0iLQC4S0WsSXtZn3RdX9Mj7/lNdX3vvurVrolSPXGK89ZR5+lrlHvaOsRmQUdaG6KjMY5FWhvOz85Imzn1DtX0+pR67XwNfKL443s15JabdUFV/+NdlmlMkccKhkjrTkRaIHREWiA6EWkZxqkh0roWkRYA3CXykbaq2vzoDeW+tUQ/TL9Ol9ZKUUqtS3RN3+9r9u+36oi1txOCjbR2REdjnIq0dpyffZF2vwYMuk4JyX11/azSXtdt6tqpkRLqZqtXKTcyI9K6E5EWCB2RFoiMQ0fztDP3sA4eCXg72pARaRnGqSHSuhaRFgDcJXKRtuIFF2ntiY7GOBNp7Tk/+yLtXvXq3lTeej9Q71Jfi1wNHnaDvMkj1PnJQI8Tad2KSAuEjkgLRMbynE/Nnx2Wrt5qbQkPkZZhnBoirWsRaQHAXYi0xcee6GiMM5HWnvOz80ragYOvl7daf3V4uLTXdbu6dWqshDoT1bOUcybSuhORFggdkRaIDCItw0TLEGldi0gLAO5CpC0+9kRHY5y6ktaO87N1Tdq7fqia3kSlXf+UBpeIwvs1LPtW1UryqXrHn2t0kccKhkjrTkRaIHREWiAyiLQMEy1DpHUtIi0AuAuRtuTYER2NcWxNWhvOz85IO37Re+rSqZkS4r1KrNdVl3a7U1en36+r+01S01atlOT1KL5GX7W/f3/g4/1DpHUnIi0QOiItEBlRF2kPH8vTrlAX0SXSMpVhiLSuRaQFAHch0gYYG6KjMU5FWjvOz9ZIa8yTG9S5V0+lJXsV7/98Mj6nzIlPUerlE9Tx3m2Bj7OGSOtORFogdERaIDKiLtKWC5GWqQxDpHUtIi0AuAuRtpQJMzoa41ikNSbM87M90lozbt5b6nfbc+p802J1vvUF9ZuxVZkB9is+RFp3ItICoSPSApFBpGWYaBkirWsRaQHAXYi0557yRkdjHI201pT3/OyPtHs17M6FajchR1n52xa+qg7dJ6hN1h81/OnC+5YcIq07EWmB0BFpgcgg0jJMtAyR1rWItADgLkTa0ia86GiMs5E2vPOzN9JuU9/07qqW4JG35WwNXWRtf+JZXZriUVx8oqq3fkj9Hi98TNEh0roTkRYIHZEWiIy1m/Zq0rx1WrVxt7UlPERahnFqiLSuRaQFAHch0gaa8KOjMc5F2vDPz85Im3nPPaqd6FVS04nqOHWzxhZ6bOwja9S5Xw9VT6imWv1eLvJY4SHSuhORFggdkRaITkRahnFqiLSuRaQFAHch0pYcO6KjMU5FWjvOz75Iu18DB18vb3IvtX8oN8Dj/ln0gW5oX18JF01Rn1Ku8CXSuhORFggdkRaITo5H2nWbP1P23Byt3LDT2hIEIi1TGYZI61pEWgBwFyJt8bEnOhrjTKS15/zsi7R71atHU3nrT1bvpwI9bkyu0od1lrfaSHV+MtDjRFq3ItICoSPSAtHJ8Ui74rUd5g87S14K4YcdIi1TGYZI61pEWgBwFyJt8bEnOhrjTKS15/zsv5K2r66fVdrrukPdO1+ihDoT1bOUcybSuhORFggdkRaITkRahnFqiLSuRaQFAHch0hYfe6KjMc5eSRve+dm6Ju20qbqgik+p18xW/3nFz2mPhtxyi2ol+5TS6TmNLvJYwRBp3YlIC4SOSAtEJyItwzg1RFrXItICgLsQaUuOHdHRGMfWpLXh/OyMtOMXbVG3Li3ljfcoIa2l6l+ToWZdJujyjsPU4JJGqmJsrzVU35tZyvIM/iHSuhORFggdkRaIjENH87Qz97AOHjlhbQkPkZZhnBoirWsRaQHAXYi0AcaG6GiMU5HWjvOzNdIa8/Tf1HNopurWOU/x8XHm51RcnEfxiRepdrt71HXGnsDHWUOkdSciLRA6Ii0QGctzPjV/dli6equ1JTxEWoZxaoi0rkWkBQB3IdKWMmFGR2Mci7TGhHl+tkfas7NHo2bm+F/rP6rfva9r+BNBvNb+IdK6E5EWCB2RFogMIi3DRMsQaV2LSAsA7kKkLWvKFx2NcTTSnp3ynZ9zkbZ8Q6R1JyItEDoiLRAZRFqGiZYh0roWkRYA3IVI69xEJtKWb4i0CAaRFggdkRaIjKiLtIeP5WlXqIvoEmmZyjBEWtci0gKAuxBpnRsibfBDpHUnIi0QOiItEBlRF2nLhUjLVIYh0roWkRYA3IVI69xUhkg78rGPlPX0Z45P+sy/mm+PSOsuRFogdERaIDKItAwTLUOkdS0iLQC4SyxG2khPKJE20lNWpI30EGndhUgLhI5IC0QGkZZhomWItK5FpAUAdyHSOj/RGGkf+vlfNfL+lyM+v/rzJ9YZwA2ItEDoiLRAZKzdtFeT5q3Tqo27rS3hIdIyjFNDpHUtIi0AuEssRVoAoSHSAqEj0gLRiUjLME4Nkda1iLQA4C5EWgClIdICoSPSAtHJ8Ui7bvNnyp6bo5UbdlpbgkCkZSrDEGldi0gLAO5CpAVQGiItEDoiLRCdHI+0K17bYa41teSlEBbgJ9IylWGItK5FpAUAdyHSAigNkRYIHZEWiE5EWoZxaoi0rkWkBQB3IdICKA2RFggdkRaITkRahnFqiLSuRaQFAHch0gIoDZEWCB2RFoiMQ0fztDP3sA4eOWFtCQ+RlmGcGiKtaxFpAcBdiLQASkOkdY4RF4z7x1TkHD/xH+tsYCciLRAZy3M+NZvn0tVbrS3hIdIyjFNDpHUtIi0AuAuRFkBpiLTO+erw/5l/V6/I+eb4v62zgZ2ItEBkEGkZJlqGSOtaRFoAcBciLYDSEGmdUzjSjnliV0Qn/+0SaZ1BpAUig0jLMNEyRFrXItICgLsQaQGUhkjrnPxI2/vOVRq/+MuITq8f/oFI6yAiLRAZURdpDx/L065QF9El0jKVYYi0rkWkBQB3IdICKA2R1jlE2sqLSAtERtRF2nIh0jKVYYi0rkWkBQB3IdICKA2R1jlE2sqLSAtEBpGWYaJliLSuRaQFAHch0gIoDZHWOUTayotIC0QGkZZhomWItK5FpAUAdyHSAigNkdY5RNrKi0gLRMbaTXs1ad46rdq429oSHiItwzg1RFrXItICgLsQaQGUhkjrHCJt5UWkBaITkZZhnBoirWsRaQHAXYi0AEpDpHUOkbbyItIC0cnxSLtu82fKnpujlRt2WluCQKRlKsMQaV2LSAsA7kKkBVAaIq1ziLSVF5EWiE6OR9oVr+0wv/kueelDa0sQiLRMZRgirWsRaQHAXYi0AEpDpHUOkbbyItI67N0HpbWDGTfPpqnWByu6EGkZxqkh0roWkRYA3IVIC6A0RFrnEGkrLyKtw/7UXVoSx7h5Vl5jfbCii//MnUWkZWJ2iLSuRaQFAHch0gIoDZHWOUTayotI6zAirfsnQpH20NE87cw9rINHTlhbwuM/c2cRaZmYHSKtaxFpAcBdiLQASkOkdQ6RtvIi0jqMSOv+iVCkXZ7zqfm9bOnqrdaW8PjP3FlEWiZmh0jrWkRaoBRv3ylt9P8wz7h3dv3a+mBVLkRaAKUh0jrHlki7aLdGPvSG0h/+RJmBHi9liLTOItI6jEjr/iHSBkakZWJ2iLSuRaQFSrFhfODvZ4x75tOfWh+syoVIC6A0RFrnBB1pF36gAdkLdN2I2eo4KUejnjG279fQ7DvVsG6a4uPjFBefpKRGQ9Rm0iZlBXqOYkOkdRaR1mFEWvcPkTYwIi0Ts0OkdS0iLVAKIq37h0gLIMYQaZ0TTKTNeuhnatGk1pkQ6/84xMX7VL3lg+pz9yzVr+5RfJV6qtm8rxq2aKPqif4/J16pFtlbNC7AcxUeIq2ziLQOI9K6f4i0gR0+lqddoS6iS6RlKsMQaV2LSAuUgkjr/iHSAogxRFrnlBlpn9mo9q1qKb7q5WrUa5Y6jpuvtl27qLo3SSm1GyghrYeumbr1bJDNmD5Xl9RJVELD29VnQbHnKjZEWmcRaR1GpHX/EGltRKRlKsMQaV2LSAuUgkjr/iHSRiXjYoVNH38R8dn86ZfWGZTu6LcnAx7r9PxtW+Bzyzt5KuD+kRjjbcN9iLTOKSvSZk2/T3V8aao/fH2h9Wa3q3fPVkqIS9QF/V4utg7tAQ0fl66kKlep9bR9hbaXHCKts4i0DiPSun+ItDYi0jKVYYi0rkWkBUpBpHX/EGmj0qvvfmb+AB/pGTjtD9YZlO7DXV8HPNbpGXBX4HM78PXxgPtHYj7/6ph1FnATIq1zyoq0YyeOVZLvOl09fX+R7Zl3T1Mtb4oaZ31cZLsxWdOnq47vQjWduKfEY4WHSOssIq3DiLTuHyKtjYi0TGUYIq1rEWmBUhBp3T9E2qhUONIOuO9Vx6ffPWvNtxVqpA30XHZPv3tfOfO2goi0gY53YvLfHpHWnYi0zikr0mZOuVVpVRqrWfb2ItvHzXlR7bpmqvUt75RYezYje7xSqjTVFVP2FtlefIi0ziLSOoxI6/6JUKRdu2mvJs1bp1Ubd1tbwuM/cxci0jKVYYi0rkWkBUpBpHX/EGmjUn6kHXj/hoCxwu4Z98znZ95eCJG2/72vBHwuuyf/3MqKtH2mvhzweCemz12rzbdJpHUnIq1zylyTdt5zalbLpyqNblSn+7aVeTOwzFnL1PLSNHlqjlGXuYH3yR8irbOItA4j0rp/IhRp7eY/cxci0jKVYYi0rkWkBUpBpHX/EGmjEpG2YIi0CBWR1jllRtrFuRp6U4bSfB7FJ9RUje7LNCbgfjvVe1Av1UjxKt5TVw1GvlpsrdqSQ6R1FpHWYURa9w+RNrB1mz9T9twcrdyw09oSBCItUxmGSOtaRFqgFERa9w+RNioRaQuGSItATp8+rby8POtPRZ0r0v7vf/8r9TiUrexIa8w+DZsyS81btdVFg9aUEl/3qEeXxqpyQQc1G/2yRi0KtE/RIdI6i0jrMCKt+4dIG9iK13aY33yXvPShtSUIRFqmMgyR1rWItEApiLTuHyJtVKr0kXbRbo186A2lP/xJmVfPEWkRyLBhw5SWlqb9+/dbWwqUFmm/++479e7d2zzu0KFD1laEIrhIG9yMnbNFo58O/FigIdKG79SpU3rxxRd15MgRa0uBc0Xacx2HIBFp3T9E2sCItEzMDpHWtYi0QCmItO4fIm1UqhSRduEHGpC9QNeNmK2Ok3I06hlj+34Nzb5TDeumKT4+TnHxSUpqNERtJm1SVqDn8A+RFoFkZWWZ3wOGDx9ubSlQWqRdsWKFub1mzZr69ttvra0IhZ2RNtQh0obvhRdeML8G0tPTrS0FzhVpH3roIfOxu+++29qCkBFp3T9E2sCItEzMDpHWtYi0QCmItO4fIm1UivZIm/XQz9SiSa0zIdb/cYqL96l6ywfV5+5Zql/do/gq9VSzeV81bNFG1RP9f068Ui2ytwS8yVC4kTZrxq/VYfSjaj8qxMlYpsELSz6fMUTaivf5558rOTnZ/PzasGGDtfWMQJH2xIkTatCggbn92WeftbYiVETa6Pbll1+qWrVq5tfBunXrrK1nlBZpjavVq1ataj62ceNGaytCRqR1/0Qo0h46mqeduYd18MgJa0t4/GfuLCItE7NDpHUtIi1QCiKt+4dIG5XOFWmdiI62RtpnNqp9q1qKr3q5GvWapY7j5qtt1y6q7k1SSu0GSkjroWumbj0bZDOmz9UldRKV0PB29VlQ7Ln8E26kHTt5glK9HvPzJaSpOkw3PFny+Ywh0rqD8fVvfKyuvPJK/fe//7W2Bo60M2fONLe1adPGXM8W5UOkjX5z5swxvxaaN29uLmOQr7RIa1ytbmwfPXq0tQXlQqR1/0Qo0i7P+dT8XrZ09VZrS3j8Z+4sIi0Ts0OkdS0iLVAKIq37h0gblc4VaZ2IjnZG2qzp96mOL031h68vtN7sdvXu2UoJcYm6oN/LxdahPaDh49KVVOUqtZ62r9D2MxNupDVvYjR5muqf71W8r6UuG75IN9y0uOyZsFJDzSUaSg6R1h2MG4A1btzY/PxetGiRtbVkpC18JeCbb75pbkP5hBZp92rwjePUsNNCDX6q5OMZ02apSZs71GP2gRKPBRoirT1OnjypSy+91Px6eOqpp6ytgSOtcZW6sS0pKcm8eh1hINK6f4i0gRFpmZgdIq1rEWmBUhBp3T9E2qh07uUO7I+OdkbasRPHKsl3na6evr/I9sy7p6mWN0WNsz4ust2YrOnTVcd3oZpO3FPisfAj7ZnJuGu66qX4lNT60VKvKA52iLTu8dJLL5nfC2rUqHH2ZmDFI23+lYAZGRnmn1F+oUXa7eo3vK+qJyQrrf0CDS50pfzoaTPVoKZP3voZ6vRgyV/OBBoirX1Wr15tfk2cd955OnjwoLmteKQ1rk43rlI3tlXW/9ZGFJHW/UOkDYxIy8TsEGldy5FIe2Sn/przil55peTk5Lyq9W/8Ve9u26/DJ6397XbscJHnPr7nHeUYb/u9/XLqTbrZ6a8+1uvFPg5nPx6vva633tuuL47zzyNLINK6f4i0USmYNWntjI52RtrMKbcqrUpjNcveXmT7uDkvql3XTLW+5Z0Sa89mZI9XSpWmumLK3iLbjbEr0o5fnKshmYNUzXuRmox/N+D6t8EOkdY9vvvuO3Xv3t38fvCDH/zA3FY40uZfCWisX3vgwAHzcZRf6Msd7FD/Ef2UkpCk89rN16AnD2j0XTPU4HyfvBeNUacZwQVaY4i09jG+bvr06WN+bXz/+983txWPtMbV6cafjavVjavWESYirfuHSBvY4WN52hXqIrpEWqYyDJHWtZyItCc/eEydkwP8c9Qi41HyhVdp0B3P6q//tCsQfqtdq2cro12Gnt2f/5yntHthP1Xzv83U0b/SmetQYsuJnKlq7gv0McgfjzznXaouN83Vn//OD6pnEWndP0TaqBTcjcPsi452Rtrx855Ts1o+VWl0ozrdt63M88qctUwtL02Tp+YYdZlb8nH7Iq1/Fq5X+3bXqnb7+Uov5ariYIZI6y5GjE1ISJDH49FHH310NtIa/7tly5aV+ntFpJVvTdod6j9ygFK8iUptma665/u/PzTI1A0zgw+0xhBp7bVjxw55vV7Fx8fr/fffLxJpjavSjavTjT//4Q9l/3cBQSDSun+ItDYi0jKVYYi0ruVopPXW1OXXd1XXroWnizp1uFYtG54nr8cIhF7V6fawNh6xDg7H189rVKpHcSnpWkKkPetspPXWU6sbSn4srrykpqqaHwuPUlpP1ku5XFVrItK6f4i0USm4SOsfm6KjrZF2ca6G3pShNJ9H8Qk1VaP7Mo0JuN9O9R7USzVSvIr31FWDka8WW6v2zNgaaW0aIq373H777eb3hM6dO5s3RDL+96RJk8z/f/HFF+vf/ybs2aH8Nw7bod692yghPk7x1bqr3f2hBVpjiLT2mzp1qvk10rFjRy1evNj830akNa5KN/63cZW6cdUtbECkdf8QaW1EpGUqwxBpXcvRSJvcTfM/LmWBgVP/1Ns/GavmVT2K85ynbnO3hL8UwVe/1MhU/9sl0hZxNtKmjtQvv7I2FnFCn736mAY19Po/F6rqqns36Lj1SEwj0rp/iLRRKehIa9PYG2mN2adhU2apeau2umjQmoDxdfziPerRpbGqXNBBzUa/rFGLAu1DpEVwjhw5opo1a5rfF4qPsW4t7FG+SHtAo+64R/XSfPLVaarqVZKU2naOBj4RaN/Sh0hrv6NHj6p27drm10mnTp3M/9++fXvzqnTj6vT8dZ1hAyKt+4dIayMiLVMZhkjrWhUWaQ2nv9TvxjeU1//2kzvN1pZwKy2RNqCyI63hpN59uIOS/a9T1etmahOrHhBpo2GItFEp+iNtcDN2zhaNfjrwY/lDpEWwlixZYn5fKDxcCWiv0CPtAY2ccqfqpvqUePGt6jZrpwZljlCaL1GpV8/WgBBCLZHWGb/4xS9KfN0YY1ydDhsRad0/EYq0azft1aR567Rq425rS3j8Z+5CRFqmMgyR1rUqNNLqtPYtHqQU/9v3NrhVq761NluO/X2Dlj1+nyaPH6X0gf01IH2Exk26T4+/8LZyi0TEPG1akKl+va5RA6//7Xrrq02PPurT//ta8tG3RSLtwbxcvbXsUd15k/85B6Vr1M3TNO+Fd/TFKeupDKd26vnbBqhP33TN/Mtha2O+k/pk6a3q36eP+t+yRB8Wf/cO/0Uzh/RV3/QHtaZQEQ7ufTmlXb+6TQP69NXAO36jPYXP6axT2rv8hxrYt6+GP5yjYFaJCC7SSl//cqRS/a9T1Tb36U0iLZE2GoZIG5ViJdIGM0RaBOv06dO66qqrioQmrgS0V2iR9oBGTL5dF6Z4ldgkW90eybW279HgrJFmqE1p87D6P178uMBDpHXG//73P7Vt27bI141xVbpxdTpsRKR1/0Qo0trNf+YuRKRlKsMQaV2rYiPtKX3yeA8zoHqb3qG1Z++peEzvLRmn1jU8Z36g8njkq+qTx1w31fizTw37zdfbZ//+eELr7++oJo3qKNXYx5OiOo0u1sWX9dZjfzt2NtJW632b7undUL7858kfT7Iuz/i5tp59+ye04Z5W8sX51OyOV1SkHZ/ep8WDU+XxH+dJGajFe4uu33p8zRRd5vUope/T2mlG1tDel5Pvz1anZI88qX319I4AlfbUDj3d1//2PfU0dtkXCmb12OAi7dda9YPL/e+zV5dmr4rJK45LINK6f4i0UYlIWzBEWoTizTffPPuzS69evaytsEtIkXbRVvXsc51SLp2s7mcDbf7s1eBxo1Sjdh9dN31vsccCD5HWOZs2bTr7dWOMcVU6bEakdf8QaQNbt/kzZc/N0coNO60tQSDSMpVhiLSuVaGR9tv3NKf7efLEeVRz+FLl36/q+Fsz1D7FI09yC2U8vkZbv/xWp/3/9+2XH+nPT92oNsbNwTw1NeTZvUUjZRnLHRjvp7deJ2U/9Ue9sytXB/6+WX+YPVRNjXVxvfWV9ZuC6Hn8L7erqS9OVdvN1NuFryo9+FvdeGF+cL1Q439XOGee0Ov3tpLPU0095n/if8vleF9ObdMTvVLk8aSo1xPbzOf4f/bOBL6JOn3jbRpCaWkpYEFuBOUSQUQ5Re6rXOWmXKKwAgIqCAqrgqKogCAgsqisB4ouyiog/qGIB6K4oKgotxSorKgsBQHpYu36/PMOM6VH2mYyM8kkeb77eT4rv8kk0zQznfnmnfeXm6xv56NTrAPO6rdh9S/qYDHkSNq4XliwYx/27bucvd9+he3vv4nFd3VCDZcDrqtT8Pd9Hkt4ww9KWvuHkjYooaS9HHMlbRr63DoS1dssQZ9FBZenTJ2N2k3uRqc5xwssyx1KWvsiE4QlJycrM9P/8MMPbHVgMrrbHSzd7z63K2x/OoaU+Qc9jHsOJa21VKxY8dK5uztSlU5MhpLW/qGk9czqLfuVg+/yt79WR7yAkpYJhVDS2ha/S9rsizj3Sxq+Sn0ZM/s3QJxUlLrqYfzan1VBehbvTrwazggXrhn3Dgp6yAysHVfLvdyJGneuz1vlWpykdTXCpHd/yhGxCtk/YtXIqsrz1Zq44fLznX4HY2s4ERHbBQv2XpaW596TSlkX6l5/Hco4XKg/JRU5BbgXd2B2qxj3z90Gc76Un9uXn8W9vc/2QlmHA7Ed5mF3nrfvInY9fgtiHE7UHr/WvbZ35Eha9eTUc9yv12AEVnzDKcNyoKS1fyhpgxLvJa050tE6SWt8+8yVtPuQNKA7SkfFIKHF0+jz9OVlQ6bOQrXyLjirpKDNQ0XPPE9Jaw9EwO7cuRMzZ85Ehw4dkJiYmO/vdgTi4+PRvHlz3H333di4cSN+//13dW3iC75NHGZOKGnNR/ahtLQ0bNq0CYsWLULJkiUxffp0rF+/XmkVkpXFogTToKS1fyhpPUNJy4RtKGlti6WSNt/FhMc4K+CWGRvxY445zcLJQzvx0YZ/4oP9nhqjXsQ3c9sjJsKBxFGrkUcpFiNpo298ENsKPGUWDizqqiyPH/RSLpH6C964tTIcjrIYsOIHVexm4tOHbkK0szbGLp6N9u6fUSY8U3ysm6w9C9A51pFr4i3ffpbsYyswMFGqb2/B47lnU8v8HA+3iFak9t3/5/3Fc46kdcRfagNx1eXUqHYlykp7BeX34UD564dj0SeaMA9zKGntH0raoMR7SWuOdLRO0hrfPnMlrWQ/egxMQlxUKZRpNh+9Fx7HkHtnolo597ZUHYo2M4t+rySUtIFFqmWXLl2KunXr5j1fcsfpdOKKK65QZqyPjnafD+RbLstmzJiBX37x8lYbkgdK2uDn4sWLWL16NQYOHIhy5coV2Edyp1SpUujcuTOWLVsG9qg1CCWt/UNJ6xlKWiZsQ0lrWwIhaR2ueFSucxO6DpuKRev24Iy6nkeyz+Pnw7ux/f21WPXcfMycNAwd65VVWiSUu/UfuiRtXL8XcLyAfcxG+nPJyuRlcX1zL8/G8ZeGINHhRNXb37xUtZq1Fws6x8JRYShWHnsPk65xwhGfjL8dkZWyceRvySjjiMb1M7bCk5L1+mfJPoFVI6rAGRGDVo/uhKZpM7c9gKbREXA1moYPtJLfcz/i+/15Wxgo2X8IP6rX18X2pM08if0fvYSpnau5X9N9EXjVULz8PasLKGmDIJS0QYm+dgfGpaN1klZibPvMl7QS9zYN6ok4Z0nEN0xGJfe2lKg2HLfMKv69klDSBgap+luzZg2qVauWc7505ZVXYsKECXjnnXeQnp6uTIKkIY8/efIktmzZggcffBANGjTIWS82NhZPPPEEKwV1YoqkXXoIgx7+GMmPfofhnpYXEkpaY/z222+YM2dOgYpzaXPQvn17DB06NGesW7duSqFC7seJsJV97cSJE+ozEl1Q0to/fpK0p37NxIH0DJw8nXOvqSHcW24tlLRM2IaS1rZY2+6gPR7/4jTOnj2bk3PnLuBisWWamTjy/lJMGdAa15SPVqs8L8XhiHdftFzqY6tX0sYPecXDhFi5Je3z+CHXtmUfWY7kMg646k/GpvPuf/+wAgPLORCXtASHsn7BqhEV4XBWwe1vZrgX/oSVQyvA4WqAezfnbsLg289ycs1fcJUzIldV7nl8oExmFo0bH9yWI4ELbWXgvAZ3bby0HcVKWpXsH97AqFpO9/oxaDl7R44cDlsoae0fStqgRH9PWmPS0VpJK/F9+6yRtJL96Nq1CaIiIxAZ2xHNHvDuvZJQ0vqfc+fOISUlJedveKNGjfDWW2/hjz/+UB9RPCJtP/vsM/To0SPneWRW+yNHjqiPIMXhtaRd8hV6jnsazQfOQevxqRj8jIwfQ79xk1G9UgIi3ftdRGQplKrRF03Gb8cIT8+RL5S0viPtC6pWrZrzub/++uvx9NNPK9c2sl9oaMs1fv75Z7zyyitKNa22TL7gkNYIub8QIV5ASWv/+EnSrkrdqxzLVqzfrY4Yw73l1kJJy4RtKGltS0AnDvNIFg6uHIX6sTKhlhPl696M3sPGYuqs+fjbqvew/dDP+PKJtkqLAKslLbL2Y3G3ODiim2PW55k4vWYMqjlj0EoRmNk4sqwP4h0uXDv1fVzIWIMx1Z1wXjMJG3Kuaw38LGc2YFJdFyKim+IB6dFwbhMm13f/O6YVHt15+T01U9JKj9xVw8sp0jh+0Iso8qHhACWt/UNJG5T4NnGY79LRekkr8W37rJG0xzH47vtQOcEFV8U6KF2iFOJvfBK9Fnh6bMFQ0vqXH3/8UZGyss+LIHr22WcNT2y0efNmVK9eXXnO8uXLK7Pbk+LxRtKOePh5NKideEnEyvlWpAulGz6EbtNmo0ppByJLVEb5+t1RvUETlC7p/nfJ69Bg3C6M9PBcuUNJqx+pFJ80adKl34M7N9xwA95///08YjY32uM88d1336FPnz45j+natSsyMryd/YFQ0gZBKGk9Q0nLhG0oaW2L7STt2Q2YVMeFCEccWk59D8cKrH4BH90vFaUOlB35hrWSVukZ2w4xEbHo9NRXSJ16LVyu+piSeun2jYvfPIl27p8zpvWj2LZ2Iq52OlFj7DvI6Wpl5GfBeWyZdp1SOdv0gW3I2DQZ9V0OxLafh29yP48Z7Q5y+AUrUy61Xygz+GUPE52FGZS09g8lbVCiX9Iak47WS1rft898SXscgyZNRqV4F0peNRYdZh9A7+EDkeAqifgb5qCnF9tESes/5Nbq2rVrK/v7NddcgwMHDqhLjHPmzBl0795dee6YmBilypYUTbGS9pmtaNEoEZHR9VCjy2y0HjkfN7Zvh9LOUoirUA1RCZ3QdMruHCGbMn0ualUsiajqd6Fbrp7VnkJJq4/MzEwkJSUpn+8SJUpgwYIFxX65IY+VFMW6deuU3s7yuHr16uH48ePqElIklLT2DyWtZyhpmbANJa1tsZukzdr3NLrGyrqt81SM5nDuU8xsEaO0DYgf9lrefrYnX8ZgRdL2xjKlT6xgRNK6TwL/9TBaRDtQpudU3NPa/bpVbsNq7Ukyt2JGk2g44jpi6OC6cDmrYNTqk+pCgz+Lm8xPH8JN0RGIbvEglk1tDJcjHt0W7XP/RPrwVtJmHX4RQ6pdanfQ+rHLvXDDFkpa+4eSNijRJ2mNS0drJa2x7TNX0h7HwAl34co4J0rWHocOj6Wr44fRZ8QgZZvimjyKHk/lXy9vKGn9w4ULF5TKP9nXo6KicMcddxRaAegrr776KiIjI5XXkEmUzDzXC0WKk7Qjps9ARVcCqgz4IFe/2X3o2rkRoiJK4oqkdfn60B7HgJHJKFXiejSeWnR1PSWt90gFrSZopVLc2y8g5PGS4pD+zw0bNlQeW6dOHaX3MykGSlr7h5LWMxlnM3FQbxNdSlomFEJJa1tsV0l7ajVGVXEiwlEOHWdvyyNVM3/4BMtGNUac49JJVtyAFTiRW6qec6+b6ECEqyEmrv1RlZnGJK0iYq+PhiM2HvFOB8okP4ejOY85i/UTasPpcMAhqTgUK3NvkJGfRbj4Jea0iYHDVRt1arvgKNsHy3yY0CtH0sYNwAvHLvcHvpQzOHV8Pz57exHGtqpwaeKwKgPw/EFONkJJGwShpA1KvJe05khH6ySt8e0zVdIu3Y3O3Zoj7uoJ6JizLVrS0GfkYJSt0A3Np6flW5Y3lLT+4S9/+Yuyn8t5mLQnSEhIwD333GOaqH399deVCsMXX3wxp09tkyZN8Pvvv6uPIPkpTtIOu2MYSrma44bpx/KMD582FYnOONQc8W2eccmI6dNR0XUl6txxuMCy3KGk9R6txYFUvO7Zs0cdLR5ZR+IN0upAetvK49u0acNJ+IqDktb+oaQ1EUpaJhRCSWtb7NeT9iy2PdoOiSIvHXGo1aIHBg0dgr5dm6FWvAOO8k0xbHQSqjsjENNmDnblfvqLX+GJtrFKZarDEY248tdhysbTxiQtziN1Sn243MulwrT93G/yVJj+/NpwVFREqwPlB6xAep71DfwsCln47qnOqsh1IHHgCuR0cdBBoX1rPcQR3wRjXz/IKlqBktb+oaQNSryWtCZJR8skrQnbZ24lrTtL9yPlqeOely07hpT5Bz2M5w0lrfVI30zZx0uWLInduy9dyO7cuRNlypTB5MmTDYvaN954QxG0L7/8svLvX3/9Ned8b/bs2coYKUhxknb4pLFIKFETdcftyzM+8sk30az9cDQe83mB3rMp40YhrkQdXDup6OMUJa13SDsC+Ry7XC7dvZZlPYm3SDuSypUrK+vMnDlTHSUeoaS1fyhpTYSSlgmFUNLaFvtJWjfZJ7DthWkY0vZaVCsbg5j4iqjdpDOGTl2CDfvOIOvYCgwo74AjvgsWfJf3m+1Tnz2Lv7SvhwqxTjgiYpH0zD7sMyRpgTPr7kRtp/vncTXG9I8z1dFLZKctQ+94mRisDPosO+x+tnwY+FmErEPPoldZef7KGPbqjwWf3wuKkrQOhwux5aui3k1dkHL3PKze9YtPrxGSUNLaP5S0QYmudgcmSEfrKmndMbh9pktaE0JJay3SN/Paa69V9vHHH39cHb3Ejh07EB8fjylTpvgsalevXq0I2pdeekkducRHH32kvGapUqWUycpIQYrtSTvvRdRNdKFEjVvRZsaeYicDGz57JRpenQBH+aFoN9fzY7RQ0hbP+fPnUaVKFeVzLD1o9SLrSfTw8ccfK+s4nU7s379fHSUFoKS1fyhpTYSSlgmFUNLaFiskLTGP7CPPIbmcA87qt+PNsJ/Jy89Q0to/lLRBif6Jw4zFUklrMJS0wcngwYPRunVrfPrpp+qI97z11lvK/l2jRg1cvFjwi2xN1E6dOlW3qH3zzTeVCkNpceCJfv36Ka8t1bqhxJgxY9C0aVOlQtkIxUraZenod1sKElwOREaVR9mOKzHU4+MOoGvvLigb50SkoxKqDXo/X6/aggkHSSuf94ULF+ZUj+vlscceUz6/N954Y7GThHlC1pXoRWtNkpycrI6ELosXL1Z6Za9Zs0Yd8RJKWvvHT5J24/Y0jJ+3GWu3HlJHjOHechtCScuEQihpbQslrZ3JwvfL+qCsw4U6E9/FaXWU+AlKWvuHkjYooaS9HEra4ESEoCZ8RNj+8MMP6pLiadeunbLe0qVL1ZGC/Otf/1JE7bRp07wWtSJ/RdD+/e9/V0cKsmvXLuW1pa2CzI4fKnTs2DHn99G3b18cOXJEXaKP4iWt5Aj6T5qN+o1uRNXeGwqRr4fRqV1NlLiiFeoOWYfBSz09Jm/CQdJu2LBB+R3JPA4TJ07E6dPen9n+97//VXrQyvoffPCBOqoP7TOil59++gnR0dHKuqFeTTt27Nic96lt27b4+msvJ7ynpLV//CRpzca95TaEkpYJhVDS2hZKWvuSdWwtJjWJgSP6Jjy0TceEk8QcKGntH0raoCTkJe3SQxj08MdIfvS7YqvnKGmDkwsXLmDWrFlK6wDZV+X/pWeljBeFtBmQx4vwkT6xRfH5558jLi4O9913X7GiVhO0K1asUEcKR6oQZRv++c/i94dgQSo0n3jiCcTGxio/m/T6feihh/Dbb7+pj/AO7yStdxn25C4MWex5maeESyXt3XffjaioKOX3JNL1hRdewP/+9z/1EYUjfZZlHZn8ztdWILK+xBe0alqpcA9lpEJ5+fLlSExMVH5eEeqjR4/Gzz//rD6iEChp7R9KWs9s3nEU4+amYs2HB9QRL6CkZUIhlLS2hZLWbpzEG+Obo2Xrm1An0QVHhBNXj1qFo2wU6zNnzpzB0aNH1X/pgJLW/qGk9RveXER7S0hI2iVfoee4p9F84By0Hp+Kwc/I+DH0GzcZ1SslIDIyAhGRpVCqRl80Gb8dIzw9hzuUtMGNVNAOGTJE2V8lVatWxapVq9SlBZE2BPK4Xr16qSNFo4na+++/v1AxJbcli6AV2eUNIjNlG6RFQKjx73//G8OGDcvz+/jHP/7htdQzU9LqTTj1pP3222+VKk3t93TTTTcpbT6KYsCAAcpjFy1apI7oR3s9X/jss8+UdaVNia+SOJiQL5Huvfdepb+1/NxyHHryySc9tmhRoKS1fyhpPbN6y37l4Lv8bS/LxgVKWiYUQklrWyhp7cYFbLqnLlxyIumIRe0ej2DTcRpaI7Rq1UqpBBg/fjxOnSo4dVyhUNLaP5S0fuHpp59WKv9mzJihTNxilGCXtCMefh4NaideErFyrI50oXTDh9Bt2mxUKe1AZInKKF+/O6o3aILSJd3/LnkdGozb5XGSIaOSdsTMV9FqyONoMVhnUlaiz5KCzyehpNWP9KbVKlQlLVu2xM6dO9WllxExKsv1THokM9iXLl0a06dPLyCHpBpWBO3zzz+vjhSPtFKQbZDJy0IV+X1IX03t93HLLbfgm2++UZcWDiWt/5DPslTHVq5cOef3JBWbJ0+eVB9xGfmSsGzZsspj0tLS1FH9aK/jC7IN5cuXV9YPp2umQ4cOoXfv3jnvnVw3euxXS0lr/1DSeoaSlgnbUNLakrNnz6J69ephd8Jhd7LPHMVX2z7Gtq+PgZfIxpFv/rVb6+QkX/oA/vHHH+rSIqCktX8oaf2C3PqoXaDJBbVUChqpJCpK0lohHU2VtM9sRYtGiYiMrocaXWaj9cj5uLF9O5R2lkJchWqISuiEplN25wjZlOlzUatiSURVvwvdns73XO4YlbTDJoxGvNOR8/vxOtH9ccvCgs8noaT1DdknXnrpJVSqVEl5jyMjIzFy5EicOHFCfcSlLw1lmd6emlLFJ6JWvijR9r23335bEbTPPfec8m9vkZYMsg0yW71XfwuDFLltW+S11sdUvqy98847i/yylpLW/8gXf1IprlVsJiQk4Jlnnsnz2ZRrFFl25ZVXGvrbI88h8ZWePXsq64tcDjdkUr6GDRvmvIfSWztPv1pKWvuHktYzlLRM2IaS1jb85z//UaoxNDmrRaoMUlNT1UcRElrs3bsXnTp1yvm8X3fddfjoo4/UpYVASWv/UNL6Dam+k1tStX1IZrb/6quv1KX6KErSWiEdzZS0I6bPQEVXAqoM+CBXv9l96Nq5EaIiSuKKpHX5+tAex4CRyShV4no0nnok1/ilGJW0yiRGE6aiSjknIl0Ncc2ApbjltmXFZ/Qa9FNaNBQMJa0xRDqJTJW+qPLZFLk6Z84cZeIjuVVaxnz5YlyqQ+W5/vrXv+YIWvkCxRcqVKigbIf0yA11ZHKq3H1Qy5Urh2XLlikSNz+UtIHjwIED6NKly6XjuTtynrZ161Zl2f/93/8pYx06dFD+7Svac/uKyGRZP1T7xReH7DOy7+T+4kPuDvjll18oaYMhfpK0p37NxIH0DJw8bc58Ku4ttxZKWiZsQ0lrC0RKabfqFJbbb78dv//+u7oGIaGDVF+88847qFmzZs7nfdCgQUhPL+T4RElr/1DS+hW53VN6amqCRyoFZSZo+fJPD0W3OzBfOpopaYfdMQylXM1xw/RjecaHT5uKRGccao74Ns+4ZMT06ajouhJ17jhcYJlxSXspKfdOR+U4F0o1frzQimJvk1/SSk9vmRTrwQcfVD6bIiBFVsiEVjKJjvQtnDx5Mu655x7cddddmDRpEiZMmKBULY4bN075jMikO3Irs5xjjBo1CrfeeitGjBiB4cOHY+jQoUhJScHgwYOVY7L0nuzfv78yS3+fPn2UW22lgq1Hjx7o3r07unXrpsiczp07K7P6i7iRqi7pcdmmTRvlCwSpWG3RogWaN2+ufLkgrQjk9neZdKhx48Zo1KiRUhUmt/zXr18f9erVQ506dXD11Vejdu3auOqqq5S/FfKFdrVq1VClShWlilwq+SpWrKhMqiOiQoSfVP6VKVNG6dkoEjUmJiZnQrHc0ZbLf+vdZzS2bdumyF+RIyJLfOWaa64psH1aZL/WIq8jEcGpRSpwtUj1o0SEsRbZPi3SJkUi74cWeX+0yERfEnlftMj7pCU+Pl6JvL9a5P3WInfHSOT3oEXOc7XI70iiTYKUO/K7/Pjjj9V35BJ2krQiJqUqWz578hkUwS+fS7ndXD6n8nmVz22DBg2Uz7J8pq+//nrlcy6fd/ncy+dfWm/IPiH7huwj7du3V/Yb2X9kP5L9KSkpSdnHZF9LTk5Gv379lP1Q9kfpuSz7p/T6lX1W9t3bbrtN2Z9lv5b9W9pJyT4/ceJE5Rggx4IpU6Yoxwc5TkhxiHy5IMcQmdBNJt175JFHlL9x8gWG9EmeO3cu5s2bp2xn7t+T/H6l5Y78txwvjKA9p69IP1xZX95HqfZdvHixsm3SvmT+/PnKz/D444/jsccew+zZs/Hwww8rx87cx81p06blHDPlvZL3TDtW3nHHHcr7Ku+vdoyU913ef+3YKL8b+R1px0U5Jnbt2jXneCi/X9m+m2++Oec42KxZs5xjoBz/RIBrx766desqxwM57mnHPOnlrB3v5O+97Evye9COc9r7mDtP3lobF5/JJQQZ+8VPknZV6l7lWLZi/W51xBjuLbcWSlombENJG3C+/PJL5UTZ0x/W/JETAyO3ExFiZzIzM5ULA+0iWv5fTqZlPA+UtPYPJW1AkAlF5AJcJI1sp6fbU4vCm560ZkpHMyXt8EljkVCiJuqO25dnfOSTb6JZ++FoPObzAr1nU8aNQlyJOrh2UlqecYlZknbUsnT0Hd4bsc6qqD1qp8f+t94mv6QVkaWdHzC+R/7WaJLWU99Nb1i3bp2y34kMFeHl67maSL782xeOEcmW+z3UJ2mPoeet03HT6HUY4KGVid7kl7TSb9jTNodjtKp0xr6ZM6IWJa3dQ0nrGUpaJmxDSRtQ5PaU3H2EvMn69evVtQkJTaSCViq3tM+8VBDIRVHOBRslrf1DSRtQ9u3bp1TvaPuQ/J358MMP1aWF493EYeZJRzMl7ah5L6JuogslatyKNjP2FLtdw2evRMOrE+AoPxTt5hZcbp6kdWfJB2jR7CZUaDEfyYVUFXuT/JJWjpVS9SZfZkmFWP7Kt6eeekqpJJOKMqk0W7JkiSLtn332WaXaU27Jl76pL7zwAv7+978r1dgvv/wyXnnlFbz66qt47bXX8Prrryt9HlevXo0333xTmZhGjsdy94OISTkn2bBhA9577z1s3LgRmzZtwubNm5U+idLfVT53IpPl9mipNpXWADLhlrTpkFnjv/jiC+XLamnRIX0Ud+/ercwwv2fPHqUdzv79+5XbrWWSHGlFIJMTSQXxsWPH8MMPP+D48eNKawDpL/vzzz8rt/dKNaz0N5Xb6eWLC+nzL60O5L/lfRKRKvuFVKJKJaH0gpVKSBk7ePCg8t7qQd4DkVXyvn7yySdKBapU6fmCdlfVTz/9pPzN0yLV8lrk3FEiX75oycrKyoncdSWR2d61SEsHLfLFp0R+bi2//fZbTuS9kpw7dy4n8h5qkfdRcubMmZzIe60lIyNDifwOtMjvRIuIcIn8jHIs1Y5TEqlElN9jfvRJ2jR07lAbjggHnGVvQI32D+GWKdsx1ONji09+SSvvnXzm5LMn+6B8HuVz+f333yufU/m8yjFYPsPyWZaJ0eTzLZ9zmbROPvuff/650s9Y9gnZN+SOOtlfZL+RFmeyL8k+JfuWfL7Wrl2rtNKQ/U/2w3/84x/Kvin7qOyrss9K32XZj2V/lv36b3/7m/KZ1CpL5RiwcOFC5bggxweZF8BTdalU1HqqMJXKz9y/K4k8Jv9YICNVqFI5LHcNSCsNqYqVbc9fNSw/p6eKYam6lfdIO17KXAlyrMx9nJT3WTtGyu9AfhfasVF+R/K7evfdd3OOifL71I6HciyUY0Tu46B8JuSzoR3/vvvuu5xjnxyP5Lh35MiRnGPev//9b+V4px3rZF+TfVCO0VrfbYnc7SDrsN1BEISS1jOUtEy45s6Rl25Tk9syJL169cqJ3K4hkYO8Fjl5ksitbhK5tUOL3AInkVs+JAMHDsyJ3AoiEfGiRW7T0W7VkchtdVrkFhKJ3D4jkdtKtMhkDxKpKtUit+hJ5DYUidy2p0VuT5FIbx6J3AKkRW5fkcgtQVrkthaJ3CIkkVtdtMgffu22IS1yIiCRW2MkclKgRW4rkshJgkQqnLTISYO8h7lPLryJ3OoiJ0VyoqFFTqYkcuKhRU6yJHIiIpFbmLTIiZhETlC0CzwtcsIikZM2LXICI5GTOYmczGiRkzyJnNxoF4Za5GRHIieEWuSCUSInQRK5eNQiJ0USOZmUyAmSFjnJlMgJkxY5+dQuNiVyQqpFLj61C1AtMlGFRE60JCtWrMiJnHhpF6kSOQnTIhet2oWrlpUrVyqRkzTtYlaLTN4jkZM37QJXi5zMSeRkSouc3EneeustJXKip0UuhiVy4ieRC2MtciIokQtlLXIyL5ETRImc4GuRE0aJ3KonkZNHLXJhLZGTSS1yoa1dbEu2bNmSEznZ1C7AJXKBoUVOQrWLci1yUiqRCxLtQl2LXKhI5IRVIhcvEvlc5f7sS6XTrl27KGltnv+81RtfrJ6eI18k8nuTyIWqFrkgkcgFrEQuTjRBI5ELFYlc6GrCRiIXv1rkIkaTOBK5oJHIhbJELpolcpGjCR6JXPBokQtsTfpI5KJbIhdDmgSSyIWRHOvlsygXrXKRJBHRoEXkgiaKJJqM0OSEJiw0iaFJDU10aPJDkyGaINGkiSZRNLGiyRZNvmhCRpM0clyRvxnaPiR/q5WLtkLwTtK6Y5J0NFXSLktHv9tSkOByIDKqPMp2XFmIlDmArr27oGycE5GOSqg26P18vWovxVRJa1LYk9Z35O+W3H6u7Qtynpt7Nnrp/y/j8rdPD/J3VhO0GvI3T0StnG/pQfZ12QaRyCJjQxk5H5AWF9rvQ26lzzPZUT70tjsY+sgatEkeg5q1qsIZ6X6NyJKIqd4d9fosQddZB3R9uRTuPWnl76Bcm2m/KxGBck4sn1E5B5UxubXfCNpz+4pc78j68v/hhpzHyPW69h5KqwQ53uVASWv/UNJ6JuNsJg7qbaJLScuEQBrWjM85qDMMwwRD7h14Lf63aYDHYxoT+Lx07+VJrBh7Rr6cE7mbH68lrUkxV9JKjqD/pNmo3+hGVO29waN8HbXsMDq1q4kSV7RC3SHrMHipp8dQ0oYK8oWLFBBon33p8ShfUuZHvoiX5fLls7dogla+NM6PfFEpvV3lC3FvEXEp2yD9S0MVEX5SoKH9PqSnq3xxnbu1gSd870l7BAPvfwktuqegSqXycERGIDIqEeWuG4kmI/6B5PnHPayTN+EqaeWLQPn8ai2o5LMuhSHyhaGGfJEqy6QfrxG0z4OvaHdfSWFFuCBfzMoXQVrLPOlJK8UwUk2fB0pa+4eS1kQoaZkQyMcbVuZU3uWuxtMq9HJX7WmVfFplX+5qP60CUKsIzF0lqFUO5q4m1CoMtYrD3FWIWmWiVqmYu3pRq2jMXeWoVT5qlZC5qyO1ikmtgjJ3VaVWaZm7+lKryNQqNHNXbWqVnLmrO7WKT60CNHdVqFYpqlWO5q4m1SpM5dtO7cRET6SaS6ty1Spfc1fDahWyWsVs7iparbJWq7TNXX2rVeTmrtKVql2J3CYkkVuftMjtQxKpKpPIRARapFJYkrt6WKso1iqMc1cda5XIWmVy7mplrYI5d1WzVumsVT7nrobWKqS1immtilqiVVbnrrbWKrC1iuzcVdpa5Xbuam6twlur+M5dBa5VhmuV4rmrx7WK8txV5lrluVaJnrs6XatY1yrYc1e1a5XuuavftYp4qY6XyIQTWqTKQZvYRSKTGWiRCSq0yV60dOrUSYlMdqBNAKNFJj+QyIQw2qQwWqQaSSJVMVpkkgSJTJChTRyjRSbOkMhtdNpkMlpkQoX8n32phPru7308Hs8Ye2T9I63RtEF1ZSIMbUIgiYgHLTJBhjZJkEQmy5DIbfnapEES+X1L5FipTSKkRSbVkMgkLRKRLxLp6ahNMiSRi0eJ3M6sTTqkRSZ8kciEHNpERBKpPpXIxDDaxEQSmehG+rzKLcnaREVaZBIPiUyEo01eJNEmytEmz9Em1NEm2NEm3dEm4tEm5tEm69Em8NEm9JELZok28Y9cOEu0yYG0CYO0CYTy70MS+ZsRmpLWuwx7cheGLPa8TAslbXAjFeVyPiT7jHzmZR8SASsV5p6Qc1F5nPz98wa5O0X2OzkvLAy5s0ReX87HvEHO0WQb5Bwn1JDjjbwPmvCTY5eci4oI9AZTJg5buh99734GTTv0QcUKCYiMdMCRMBzti+lbG26SVoS57A+578KQ81Wp2MyPCEFNEvraz1nQXscXZHvl77isL3flhANyja61aJHINYnc2eMRSlr7h5LWRChpmVAIe9IGFF/aHUjktl5CQhm5GMi9f8jJqHxZpFTbsN2B/ROiPWmDCe1CWySzth/JF0nSuqEwwkXSehNK2uBFig3kixntcy9fnEq7kqKQdiRRUVHKFxvFySZpGySCVr6sLw4RtSImRRgXheyvWjsGT5W+wYr8XFLEoUk0iQi/otqueMIcSXsQ/aY8h2bdhqFajcpwRjoQWWYY2i/08NhcCSdJK/1R5Ytz7XclX7BK+46ikC/05bFSWOMr2uv5grQ+knXlS1Dp1RzKSBsnKbjQ3i/5sltaiBUJJa39Q0lrIpS0TCiEkjag+NJwXyqlpEKEkFBE+m1KNbdcAMvnXaqfpB+y3NaVAyWt/UNJG1CkD7BUrWt/N6SiWfo/Fwcl7eVQ0gYncjeN9rmXKv3iBFNu5A4UWa+olgciUOXvk9xF5S3St11ErVSwF4Zsp7y2VOMXVu0bjOTuZSq/D5HWvmCk3cGg6S+jZdIwVK2aiChpd+Aoi4QGKWg89FX0mZvuYZ28CQdJK73Q5a4x7Xcln0O5I9Eb6Sl3G8o6ckeWr2iv6wtyzijryp1woYzcnapNeih34UgVv1dSmpLW/vGTpN24PQ3j523G2q2H1BFjuLfchlDSMqEQStqAIjMbaycm3kZugyck1JBqG2l3krvqT27f8lj9RElr/1DSBgSZrEzauURGRir7kJ4LbYGS9nIoaYMTaecj7US8Fhi5kEk0Zb+RdiW5+25qiKCVW7ulvZVeZKJNEbXSpio/8vdP2grJa0sLgFBC2iBJuxdpJfbHH3+oo/rRPXHYrDfRJnk0al6lTRzmQnTljqjTcwE6P7iHE4flQ1rCyedPJKC0MZOJK71FJsPUWh7I5J6+IOtK9CLtMqStkKyr5wuZYEQmbpa/7fI3XldrCUpa+8dPktZs3FtuQyhpmVAIJW3AkQsK7eSkuMgfZ6mQIiSUkM+09KfVPuc33ngjPvvsM3WpByhp7R9KWr8ilXfS71x62so+JLdsS09wqY7SAyXt5VDSBicy47yvdxuJLJXe6LIPSW/93IjAFRElcw74isy4LqJW7g7JjbTykdeU3tQZGRnqaGggotyMymB9kjYNnTvUhiPCgaj4hqjW5n7cPOkTpBQySWBxCQdJK1JW5tE4fPiwOqIPmSNCPsPSpsoXZF2JXmRfkvVuuukmZf8Ndc6cOaP+lw4oae0fSlrPbN5xFOPmpmLNhzr6PFLSMqEQStqA8+OPP+apHiwqMtkYIaGCp6o/mfxPLrKLhJLW/qGk9RtS3ScTqGl/J6Rfna99yylpL8dcSXsMPW+djptGr8OAYiYpKiqUtNYjPTnlb5LD4cipzNu0aZMiaEViGUVErTyXVMUJP/30k/K3T/bdoiYhC3f0Sdoj6Dl8CpqOfBN9nzruYbm+hNvEYb4gdz1pk/TJZNR60f5+6UGEsjYRnexXpBAoae0fSlrPrN6yXzn4Ln/7a3XECyhpmVAIJa0tkAkUZDZ77SQlf+SEXm4VIySUkMoH+XzrrvqjpLV/KGn9wpNPPpnzd6JOnTrKhEZG8F7SmiMdw0fSXq7sc5a9ATXaP4RbpmzHUI+PLTyUtP5Bmy9A5Okrr7yinINJpbpZvP/++8pzPvLIIzmTNLVv3774LyjDGFMmDvMxlLTesWDBAuWzLO1CfvjhB3XUO7S/Y94i8xTIXVeyjvQ9JkVASWv/UNJ6hpKWCdtQ0toGuSVszZo16N+/f8630fXq1cNDDz1U7KzEhAQjIpgGDx6sv+qPktb+oaT1CzK7fMWKFZW7LMy4pdh7SWuOdLRO0hqXyOZK2hMY+sgatEkeg5q1tB6ZJRFTvTvq9VmCrrMOeNUjk5LWP0jvVG3GeqmqFWlrNuvWrVOqdeU1qlWrplTUksLxRdKOnLsJ7fpNQN0WfVHzhp6o0aRHwdz4V3Rd5Hl9LZS03iFfMsjkYfKZvu6663S17pB1JN4g++eAAQOUx9esWROnT59WlxCPUNLaP5S0nqGkZcI2lLS2ROtTK7exEkLyQUlr/1DSBiV62h2YIR2tk7TGJbLZkvZyjmDg/S+hRfcUVKlUHg6ZbT4qEeWuG4kmI/6B5PmF355NSes/pEendreHfBHy6aefqkuMk56enlMFKJMe7du3T11CCkO3pJ3/FhrXTkCk+z2W97nQRPfHLQs9rJ8rlLTeI2JWa79z/fXX48SJE+qSotF+H8UhFbSaoJUe7Lt371aXkEKhpLV//CRpT/2aiQPpGTh5+oI6Ygz3llsLJS0TtqGktSWUtIQUASWt/UNJawpnv/8QK5+agQmjBiO5Vw/0TB6IkeNn4KnXP0N6pvogE/GtJ63v0tE6SWtcIlsnaXNl6X70vfsZNO3QBxUrJCAy0gFHwnC0L6T6l5LWv0gLng4dOijnY1FRUUpFrcwm7ytSaSh91xMSEpTnvOqqq3zuHx1u6JO0xzFwRB+UjCyFhBtnoeP0zzFo7h4Mmech8w9ihMfnuBxKWn0cP34c11xzjfIZlzk3tN7ORSGPlRSF9KDVvtwQQVvkBLPkMpS09o+fJO2q1L3KsWzFenO+3HBvubVQ0jJhG0paW0JJS0gRUNLaP5S0BjmLL5aPROOyl26HjnA44Ip2weG4dCEb4XChetJ8fGayqzM8cZhO6WilpL0c3ySyfyTtQfSb8hyadRuGajUqw+l+vyLLDEP7Qir7KGn9T1ZWFu67776cCS4rV66Mp59+2vse6m7kOVavXq1UFir7rzs9e/bEqVOn1EeQ4tAnadPQtUsDRMUkodVjnDgsEJw8eRKtW7dWPuuy74wdO7bIlh7afuEJ+WJkzpw5OZOESYsDVtDqgJLW/qGk9QwlLRO2oaS1JZS0hBQBJa39Q0lriHPbZqJFnAOOmAZIeWoDdp84j2z3/86f+AbvLboVTeIdiHCUR9/n0tyj5mFc0uqTjv6RtLmiQyJbJ2mPYND0l9EyaRiqVk1ElEhjR1kkNEhB46Gvos/cdA/rXAolbeCQqr0bbrghRybJxF99+vTBM888oyyT27ovXryoCFmRr1999RVefvlljBo1CuXLl89ZTyTva6+9hj///FN9ZuIN+iTtESR1b4wo2beLaWXgTShpfUP2hQcffFCZHFY++yJZ//KXvyj7S/5J8rT9Q0P2D2kD8sADDygTkWnLU1JS2INWL5S09g8lrWcoaZmwDSWtLaGkJaQIKGntH0paA5zFuxOvhjPChWvGvYNf1NHLZGDtuFru5U7UuHM9zqujZuBruwNfpaP/Ja33EtlsSTt01ptokzwaNa/S2i+4EF25I+r0XIDOD+7hxGFBgIiltWvX5rRA0JOGDRvi2WefRWamBX1KwgC9PWmHTrwDCa76uHbiPo/L9YSS1hh79+5VvtDIvT9IL+ZevXrh/vvvx6JFi3LGZbJkmVBWqmVzP176Q2/ZskV9RqILSlr7h5LWMxlnM3FQbxNdSlomFEJJa0soaQkpAkpa+4eS1gBZOHloJz7a8E98sN+T0LmIb+a2R0yEA4mjVuOcOmoGuiYOM0E6+kfS+iaRzZW0lycyi4pviGpt7sfNkz5BylJPjy08lLT24d///jeef/55jBw5UqmwFelUokQJpXdtmTJl0KBBA/Tv3x/z58/Hd999x8pZg+ieOGzpTnTocANKVeyOxre+gZ6zdmLQk99gcIHsx3BP6+cKJa05SGXslClTUKNGjTwCtrCUK1dOqUSXnrbcfwxASWv/UNKaCCUtEwqhpLUllLSEFAElrf1DSWse2efx8+Hd2P7+Wqx6bj5mThqGjvXKKsKv3K3/CJCkNUc6WilpjUpkcyXtEfQcPgVNR76Jvk/53iOTkpaEK7p70ia1RHxiJbgcal/vwhLdH7cU0xKBktZcRLh+//33eOONNzB79mylX21cXJzSykDaI7z44ov4+uuvkZ1tZjOfMIaS1v6hpDURSlomFEJJa0soaQkpAkpa+4eS1iCZOPL+UkwZ0BrXlI+GI5dUcDjiceWVZQIsac2RjtZJWuMS2VxJa04oaUm4orcnbc+UkbiqaW/ULC7NHkTXRZ6e43Ioaa0lOTlZ+dtWunRpdYSYCiWt/UNJayKUtEwohJLWllDSElIElLT2DyWtAbJwcOUo1I+VycGcKF/3ZvQeNhZTZ83H31a9h+2HfsaXT7RV2h0ETtKaE+skrXGJTElLiH3Q3e7AxFDSWkdaWlrOF5C87rEISlr7x0+SduP2NIyftxlrtx5SR4zh3nIbQknLhEIoaW0JJS0hRUBJa/9Q0vrO2Q2YVMeFCEccWk59D8cuquM5XMBH9zeCK8KBsiPfoKS1KFZI2pFzN6Fdvwmo26Ivat7QEzWa9CiYG/9aaGUfJS0JVyhpQxOtilZL3bp1kZWVpS4lpkBJa//4SdKajXvLbQglLRMKoaS1JZS0hBQBJa39Q0nrM1n7nkbXWPcFa0xrPLqzgKEFzn2KmS1ilBYI8cNewxl12Az0Slqj0tFqSWtk+0yXtPPfQuPaCYjMJSQ8pogemZS0JFwxImlHLtiBnnevRPsxz6P9ePcxZOa3xU4WljuUtNbw/vvvezwGymR7xEQoae0fSlrPbN5xFOPmpmLNhwfUES+gpGVCIZS0toSSlpAioKS1fyhpfefUaoyq4kSEoxw6zt6GU+qwkPnDJ1g2qjHiHJcuZuMGrMAJE+dW0SVpTZCOlkpag9tnrqQ9joEj+qBkZCkk3DgLHad/jkFz92DIPA+ZfxAjPD4HJS0JX3yStIs/Q4eevVAuzpn3OBAZi7h6t6HVfXs8r5cvlLTm88cff6BBgwbK76NmzZp5/j8+Ph4///yz+khiGEpa+4eS1jOrt+xXDr7L3/5aHfECSlomFEJJa0soaQkpAkpa+4eS1gBnse3RdkgUEeuIQ60WPTBo6BD07doMteIdcJRvimGjk1DdGYGYNnOwy0Oxra94L2nNkY7WSVrj22eupE1D1y4NEBWThFaP+T7RGiUtCVd0S9qlX6J922vhjHTAVbENarWbhOt73Y/ru45B7Qb1UdLhQGT5Pmg9K93z+rlCSWs+ixYtUq5zrr76aixevFj577Fjx6JXr17Kf992223qI4lhKGntH0paz1DSMmEbSlpbQklLSBFQ0to/lLTGyD6BbS9Mw5C216Ja2RjExFdE7SadMXTqEmzYdwZZx1ZgQHkHHPFdsOA78/r3eS9pzZGO1kla49tnrqQ9gqTujRGVMBztC6kq9iaUtCRc0Stph0+5G+WdLsTfNB+9FuRfnoa+Y27HFdHu5e1WYmieZQVDSWsu//nPf5CQkKBc57z77rv429/+liNpDx8+jJIlSyIyMhI7d+5U1yCGoKS1fyhpPUNJy4RtKGltCSUtIUVASWv/UNIGJd5LWnOko3WS1vj2mStpT2DoxDuQ4KqPayfu87jcm1DSknBFn6Q9hp69myMqpjtazi7sS5o9aN+mBqIqjUOXQnpma6GkNZe//OUvyjVO9+7dlX/nlrTC9OnTlX83b94cf/75pzJGDEBJa//4SdKe+jUTB9IzcPL0BXXEGO4ttxZKWiZsQ0lrSyhpCSkCSlr7h5I2KNHTk9YM6WidpDW+fWZL2lFLd6JDhxtQqmJ3NL71DfSctRODnvwGgwtkf6GTGlHSknBFn6RNQ5eOdeCsfGehkxaOWpaOPv1vgTNmINoW80UOJa157Nq1Cw6HAyVKlMCBA5fmAsovac+fP4/KlSsrYy+//LIyRgxASWv/+EnSrkrdqxzLVqzfrY4Yw73l1kJJy4RtKGltCSUtIUVASWv/UNIGJbomDjNBOlopaY1un7mSNg1dk1oiPrESXA6H8ve90BQx0RolLQlX9FbS9urTEs7YHmj1aGGVtPvQoU1NRFW8A51ZSes3br75ZuU4d++996ojBSWtsHLlSmXsyiuvxLlz59RR4hOUtPYPJa1nKGmZsA0lrS2hpCWkCChp7R9K2qBEV09aE6SjdZLW+PaZK2mPoGfKSFzVtDdqFpdmDxZa/UdJS8IV3T1p770H5Z0lkdByEfoU2L+Pof+4sUgs5ULp1i9gSJ5lBUNJaw6rVq1SjrkVK1bE2bOXj2GeJK20OWjZsqUyft9996mjxCcoae0fSlrPUNIyYRtKWltCSUtIEVDS2j+UtEGJnp60ZkhH6ySt8e0zV9KaE0paEq7olbSjln6Bdm3qIirSiZKV2+PqDpNxQ/IDuCFpPOo0aoRSTgciy3ZHiweOeV4/VyhpjfPbb7+hSpUqyrXNiy++qI5ewpOkFb744gtlAjGXy4VDhw6po0Q3lLT2DyWtZzLOZuKg3ia6lLRMKISS1pZQ0hJSBJS09g8lbVCiq92BCbFO0hqPlZJ25IId6Hn3SrQf8zzaj3f/TDO/LbQlRO5Q0pJwRbeklSz8EG27dEZCjBOR7nNqOa9WEhmH+Hqj0fr+PZ7XyxdKWuO8/vrrynt/0003FZgMrDBJK9x+++3KsmnTpqkjRDeUtPYPJa2JUNIyoRBKWltCSUtIEVDS2j+UtEGJr5LWV+noL0nry/ZZImkXf4YOPXuhXFx+aRSLuHq3odV9RUsjSloSrvgkadWMnLcNSRNfRNvblqHt2NeRNHO3V8cnLZS0xjl9+jRmzJiBgwcPqiOXKUrSFrUe8RJKWvuHktZEKGmZUAglrS2hpCWkCChp7R9K2qBEt6Q1KB0tl7QGts90Sbv0S7Rvey2ckQ64KrZBrXaTcH2v+3F91zGo3aA+SjociCzfB61npXte3x1KWhKu+CZp09B/8hI0G52KEdrYkvfRquNoNBnxDgYszv3YwkNJay1FSVpiApS09g8lrYlQ0jKhEEpaW0JJS0gRUNLaP5S0QYkuSWuCdLRU0hrcPrMl7fApd6O804X4m+aj14L8y9PQd8ztuCLavbzdSgzNs+xyKGlJuKJf0u5B9+SOiI1ywNlwDvotVccXPIer4xyIiCyJ0o0fRtJTudfxHEpaa6GktRhKWvvHT5J24/Y0jJ+3GWu3mtPj2b3lNoSSlgmFUNLaEkpaQoqAktb+oaQNSvRIWjOko5WS1uj2mStpj6Fn7+aIiumOlrOPe1gu2YP2bWogqtI4dClkojVKWhKu6JW0w++7DxVKOlGqzh1oPWUHhuVaNuyxDWib1Amlo2KRmLQuzzJPoaS1Fkpai6GktX/8JGnNxr3lNoSSlgmFUNLaEkpaQoqAktb+oaQNSryXtOZIR+skrfHtM1fSpqFLxzpwVr4TXQt5L0YtS0ef/rfAGTMQbRd6Wk5JS8IXfZL2GHr1aenel7qgxcOFVPIv/Qq3tKiCqKqT0K2YtgeUtNZCSWsxlLT2DyWtZzbvOIpxc1Ox5sMD6ogXUNIyoRBKWltCSUtIEVDS2j+UtEGJ95LWHOlonaQ1vn1mV9Iq0ii2B1o9Wpg03ocObWoiquId6FzINlPSknBFn6R17/+d3Pt/lQlF7v/J/du698lBhR6ftFDSWgslrcVQ0to/lLSeWb1lv3LwXf721+qIF1DSMqEQSlpbQklLSBFQ0to/lLRBiZ5KWjOko5WVtEa3z1xJewLD770H5Z0lkdByEfoUkELH0H/cWCSWcqF06xcwJM+yy6GkJeGKb5W0RVXS70fHtrWKPD5poaS1Fkpai6GktX8oaT1DScuEbShpbQklLSFFQElr/1DSBiW6etKaIB2tk7TGt89sSTtq6Rdo16YuoiKdKFm5Pa7uMBk3JD+AG5LGo06jRijldCCybHe0eOCY5/XdoaQl4YrunrRTp+CKEi7EN52DHvPyi9rD6DtmDBJjXIhr82KhxyctlLTWQklrMZS09g8lrWcoaZmwDSWtLaGkJaQIKGntH0raoESPpDVDOlopaY1un+mSVrLwQ7Tt0hkJMU5Euv/Gy995JZFxiK83Gq3v3+N5PTWUtCRc0StpRy3dhQ7tGsIZ6UBUQkNUaZqCuu1Go17r/qhWqwZKyHhiP9w8q5CetblCSWstlLQWQ0lr//hJ0p76NRMH0jNw8vQFdcQY7i23FkpaJmxDSWtLKGkJKQJKWvuHkjYo0SVpJQalo6WSVmJg+yyRtGpGztuGpIkvou1ty9B27OtImrkbwz08Ln8oaUm4olvSShb/C537DUelimUQGant/w5ElqyKCs3uQ/uZhz2vly+UtNZCSWsxlLT2j58k7arUvcqxbMX63eqIMdxbbi2UtEzYhpLWllDSElIElLT2DyVtUKJb0qrxVTpaLmnV+LJ91kjaNPSfvATNRqdihDa25H206jgaTUa8gwHFzDJPSUvCFZ8kbU4OY/CsVCRNeQdJ93+EAQsK61PrOZS01kJJazGUtPYPJa1nKGmZsA0lrS2hpCWkCChp7R9K2qBEv6Q1Jh2tl7S+b5/5knYPuid3RGyUA86Gc9BvqTq+4DlcHedARGRJlG78MJKeyr1O3lDSknDFmKQ1Fkpaa6GktRhKWvuHktYzlLRM2IaS1pZQ0hJSBJS09g8lbVCiT9Ial47WSlpj22e2pB1+332oUNKJUnXuQOspOzAs17Jhj21A26ROKB0Vi8SkdXmW5Q4lLQlXKGlDF0pai6GktX8oaT2TcTYTB/U20aWkZUIhlLS2hJKWkCKgpLV/KGmDEj2S1gzpaKWkNbp95kraY+jVpyWcMV3Q4uFCJipa+hVuaVEFUVUnoVshFb6UtCRcoaQNXShpLearJ4EPRjJ2zs6Z6i/LWoJO0voEJS0TCqGktSWUtIQUASWt/UNJG5R4L2nNkY7WSVrj22eupE1Dl0514KwyAV0XeVouSUdy/7Zwxg5C24WellPSkvCFkjZ0oaQlxD9Q0jJMsISS1pZQ0hJSBJS09g8lbVDivaQ1RzpaJ2mNb581lbTd0XJ2YZMW7UfHtrUQVfEOdC5kmylpSbhCSRu6UNIS4h8oaRkmWEJJa0soaQkpAkpa+4eSNijRX0lrTDpaX0nr+/aZK2lPYPjUKbiihAvxTeegx7z823QYfceMQWKMC3FtXsSQPMsuh5KWhCuUtKELJS0h/mHj9jSMn7cZa7ceUkeMQUnLMFaFktaWUNISUgTHNwPp7zF2zqlv1V8WCSZ09aQ1QTpaJ2mNb5/ZknbU0l3o0K4hnJEORCU0RJWmKajbbjTqte6ParVqoISMJ/bDzbMKac/gDiUtCVcoaUMXSlpCghNKWoaxKpS0toSSlhBCiL/RI2nNkI5WSlqj22e6pJUs/hc69xuOShXLIDIyQvk7HxHhQGTJqqjQ7D60n3nY83pqKGlJuEJJG7pQ0hISnFguaTfvOIpxc1Ox5sMD6ogXUNIyoRBKWltCSUsIIcTf6JK0EoPS0VJJKzGwfZZI2pwcxuBZqUia8g6S7v8IAxYU1pIhbyhpSbhCSRu6UNISEpxYLmlXb9mvHHyXv/21OuIFlLRMKISS1pZQ0hJCCPE3uiVtTnyTjpZL2pzo3z5rJa1voaQl4YomaZV9csZmv0Z7XUpaa6CkJSQ4oaRlGKtCSWtLKGkJIYT4G98lrW/xn6TVH0paQuxDbkkbqFDSWgMlLSHBCSUtw1gVSlpbQklLCCHE31DSXg4lLSH24b+//4HPv/sxoPk9K1vdGmImlLSE+IdTv2biQHoGTp6+oI4Yg5KWYawKJa0toaQlhBDibzRJKyJ0xOKjlmfY04eV19MjaUVUenous6NtW3GSVjJ0wUG/RHs9SlpCSKhASUuIf1iVulc5h1ixfrc6YgxKWoaxKpS0toSSlhBCiL/RJK2/o0fS+jveSFp/h5KWEBIqUNIS4h8oaRkmWEJJa0soaQkhhPibT74+jkEPrPN7bp39nroFhfNd2n88rmt1Rj7iedukR+b4eZsDkp9O/aZuBSGEBDeUtIT4B0pahgmWUNLaEkpaQgghhBBCSChDSUuIfwg6SZtxNhMH9TbRpaRlQiGUtLaEkpYQQgghhBASylDSEuIfgk7S+gQlLRMKoaS1JZS0hIQb55H2wXJMG9AXj35szqyrhBBCCCF2hpKWEP9AScswwRJKWltCSUtIuHAOh1KfxeReDVDWEYEIV31MSaWkJYQQQkjoQ0lLiH+gpGWYYAklrS2hpCUkTDj3HT5M3YWDXzyLAVWclLSEEEIICRsoaQnxDxu3pymTj67dekgdMQYlLcNYFUpaW0JJS0iYcfFbzO8QQ0lLCCGEkLCBkpaQ4ISSlmGsCiWtLaGkJSTMyDqEJd1jKWkJIYQQEjZQ0pLLcH6GYMJySbt5x1GMm5uKNR8eUEe8gJKWCYVQ0toSSlpCwoys7/FMD0paQgghhIQPlLSE8zMEJ5ZL2tVb9itNdJe//bU64gWUtEwohJLWllDSEhJmUNISQgghJMygpCWcnyE4oaRlGKtCSWtLKGkJCTMoaQkhhBASZlDSkhw4P0NQQUnLMFaFktaWUNISEmZQ0hJCCCEkzKCkJTlwfgZLOfVrJg6kZ+DkaXPeW0pahrEqlLS2hJKWkDCDkpYQQgghYQYlLcmB58KWsip1r+I8V6zfrY4Yg5KWYawKJa0toaQlJMzgiSkhhBBCwgxKWpIDz4UthZKWYYIllLS2hJKWkDCDJ6aEEEIICTMoaUkOPBe2FEpahgmWUNLaEkpaQsIMnpgSG/D+zqPK+bC/02vqP9UtKJyvD/7icV2r0/Nez9t2/JdzHh/vj/zw81l1KwghJLihpCU58FzYUoJO0maczcRBvU10KWmZUAglrS2hpCUkzOCJKbEBlLQFQ0lLCCHWQUlLcuC5sKUEnaT1CUpaJhRCSWtLKGkJCTNkRtskOTGth8mbeGJKAoMmaXs98CFGLTtheUY+88Ol19MhaXvcv8njc5kdbduKk7TdpqzzuL4V6XbveuU1KWkJIaECJS3JgZLWUihpGSZYQklrSyhpCQkzLn6Bx26OQYSjMm5/87Q6SIh/oaS9HEpaQgixHkpakgMlraVQ0jJMsISS1pZQ0hISJmSn4/3ls3HfqLao5oxw7/cOlLkuGZMenIc1315UH+QdWYdSsWLhHMya+RAeeuhSZs6cjXnL3sV3PNclXkBJezmUtIQQYj2UtCQHSlpL2bg9DePnbcbarYfUEWNQ0jKMVaGktSWUtIQQn8j+EWvG1oHLffxwxN6A8av345y6iJDioKS9HEpaQgixHkpakgMlbVBBScswVoWS1pZQ0hJCfOMCtkxrCFeEA+UHrMDRbHWYEC8IeUm79BAGPfwxkh/9DsM9Lc8VSlpCCLEeSlqSA+dnCCosl7SbdxzFuLmpWPPhAXXECyhpmVAIJa0toaQlhPhE1j4s7OI+wXXEo/eyNNDREj2EhKRd8hV6jnsazQfOQevxqRj8jIwfQ79xk1G9UgIiIyMQEVkKpWr0RZPx2zHC03O4Y1TSjpj5KloNeRwtButMykr0WVLw+SSUtISQUIOSluRgwvwMbP3lPyyXtKu37FdOepa//bU64gWUtEwohJLWllDSEkJ8IfvYC+hX1oGI2I6Y/22WOkqIdxQlaa2QjmZL2hEPP48GtRMviVj339CISBdKN3wI3abNRpXSDkSWqIzy9bujeoMmKF3S/e+S16HBuF0Y6eG5jEraYRNGI97p3hdlO/Qkuj9uWVjw+SSUtISQUIOSlpg5P4MCW3/5BUpahrEqlLS2hJKWEOILv6wagSsdEYhu+Qj+5cN5LQlvipK0VkhHUyXtM1vRolEiIqProUaX2Wg9cj5ubN8OpZ2lEFehGqISOqHplN05QjZl+lzUqlgSUdXvQren8z2XO0Yl7ahlR9B/wlRUKedEpKshrhmwFLfctqz4jF6Dfkr1b8FQ0hJCQg1KWmI+bP3lDyhpGcaqUNLaEkpaQoh+zmDtuKvgjHCh8fSP3KeohOij6HYH5ktHMyXtiOkzUNGVgCoDPsjVb3YfunZuhKiIkrgiaV2+PrTHMWBkMkqVuB6Npx7JNX4pxiXtpaTcOx2V41wo1fjxQiuKvQ0lLSEk1KCkJabD1l8eOfVrJg6kZ+DkaXOuEChpGcaqUNLaEkpaQohuLryPqde6EOGqg0n/xxu7iH686UlrpnQ0U9IOu2MYSrma44bpx/KMD582FYnOONQc8W2eccmI6dNR0XUl6txxuMAysyTtqGXp6Du8N2KdVVF71E6PrRW8DSUtISTUoKQlZsPWX55ZlbpXOYdYsX63OmIMSlqGsSqUtLaEkpYQopfM7bPQLDoCzmpjsCZDHSREB95NHGaedDRT0g6fNBYJJWqi7rh9ecZHPvkmmrUfjsZjPi+wrSnjRiGuRB1cOyktz7jEPEnrzpIP0KLZTajQYj6SC6kq9iaUtISQUIOSlpgNW395hpKWYYIllLS2hJKWkNDlzz//xMmTJ/Hzzz/rypkzZ9Rn8MRFfDu/A2IiHKgwdCVO8N4u4gPeSVp3TJKOZkraUfNeRN1EF0rUuBVtZuwpVh4Pn70SDa9OgKP8ULSbW3C5qZLWpFDSEkJCDUpaYi5s/VUYlLQMEyyhpLUllLSEhC7p6em44oorUKZMGV2pVasW/vjjD/VZ8pF9GMt6x8PhKIPk5UfZf4v4hNeS1qSYKmmXpaPfbSlIcDkQGVUeZTuuxFCPjzuArr27oGycE5GOSqg26P18vWovhZKWEEKsh5KWmApbfxVK0EnajLOZOKi3iS4lLRMKoaS1JZS0hBA9ZJ94BSmJDjjiuuLpfey/RXwjuCWt5Aj6T5qN+o1uRNXeGzzK11HLDqNTu5oocUUr1B2yDoOXenoMJS0hhPgDSlpiJmz9VThBJ2l9gpKWCYVQ0toSSlpCiB4y3hqNas4IxLSZgy/Zf4v4SPBLWu8y7MldGLLY8zItlLSEEGI9lLTEPNj6qygoaRkmWEJJa0soaQkh3nMOG++uC1dENG54YBsy1VFC9BIuktabUNISQoj1UNKGJwsXLkSfPn1057333lOfwQNs/VUklLQMEyyhpLUllLSEEK85v/lS/y3n1Zi0gf23iO9Q0l6OuZI2DX1uHYnqbZagz6KCy1OmzkbtJnej05zjBZblDiUtISTUoKQNT7777jusXr1ad44ePao+Q0HY+qtoNm5Pw/h5m7F26yF1xBiUtAxjVShpbQklLSHEO7Lx4+rRqO2MQERsNyw+wJNS4jveS1pzpKN1ktb49pkrafchaUB3lI6KQUKLp9Hn6cvLhkydhWrlXXBWSUGbh47kWqdgKGkJIaEGJS0xC7b+8i+UtAxjVShpbQklLSGkaC5gz7t/w1MP3Y6bqziV40WEIx6N+k/FnGfWYy97HhAf8F7SmiMdrZO0xrfPXEkr2Y8eA5MQF1UKZZrNR++FxzHk3pmoVs69LVWHos3Mot8rCSUtISTUoKQl5sDWX/7Gckm7ecdRjJubijUfHlBHvICSlgmFUNLaEkpaQggh/kZfuwPj0tE6SSsxtn3mS1qJe5sG9UScsyTiGyajkntbSlQbjltmFf9eSShpCSGhBiUtMQW2/vI7lkva1Vv2Kyc9y9/+Wh3xAkpaJhRCSWtLKGkJIYT4G/09aY1JR2slrcT37bNG0kr2o2vXJoiKjEBkbEc0e8C790pCSUsICTUoaYlx2PorEFDSMoxVoaS1JZS0hIQL2Tix/RXM+kt/9E4eiMGD+iJ50Dg8+vqXOMlpaYmf8W3iMN+lo/WSVuLb9lkjaY9j8N33oXKCC66KdVC6RCnE3/gkei3w9NiCoaQlhIQalLTEd9j6K5BQ0jKMVaGktSWUtISEA1lIe/NONK12Myav3osz6ujpb17BmOuvRIsp65BOUUv8iH5Ja0w6Wi9pfd8+8yXtcQyaNBmV4l0oedVYdJh9AL2HD0SCqyTib5iDnl5sEyUtISTUoKQlxD+c+jUTB9IzcPL0BXXEGPaUtH/8Fzj5JcMEd/4wZycl5kJJS0gY8PM/ccfVMWg0bQvyds/KxvGXhiAxugEmb6KMIf5Dn6Q1Lh2tlbTGts9cSXscAyfchSvjnChZexw6PJaujh9GnxGDlG2Ka/IoejyVf728oaQlhIQalLSE+IdVqXuVc4gV63erI8awp6QlhBCLoKQlJPQ5v2Eiajlj0fmpPcjfPStz6wxcHx2Dm+d8iYvqGCFW472kNUc6WidpjW+fqZJ26W507tYccVdPQMecbdGShj4jB6NshW5oPj0t37K8oaQlhIQalLSErb/8AyUtIYQYgJKWkNDn/Dt3oIrTgXI9lmBfPkt7+q3RqOosjwEr0t2nroT4B68lrUnS0TJJa8L2mVtJ687S/Uh56rjnZcuOIWX+QQ/jeUNJSwgJNShpwx22/vIXlLSEEGIASlpCQp/sIy+gf6IDEc6q6PnUdmSo48g6iOcHVEXc9VOw8aQ6Rogf0NXuwATpaF0lrTsGt890SWtCKGkJIaEGJW2Yw9ZffiPoJG3G2UwcNLGJLiGEGIGSlpBw4Aw+efgWlHNEIMJZBR1nrEda5k/44OFOqNH4VrzwFU9KiX/RP3GYsVgqaQ2GkpYQQqyHkja8Yesv/xF0kpYQQuwEJS0hYcLFQ1h9Z1OUEVHriEPdm5qhzfBF+Oh4/lNVQqyHkvZyKGkJIcR6KGnDG7b+8h+UtIQQYgBKWkLCiKyjeGtsQ0SLqI1wouLN92D1ft7ZQ/xPyEvapYcw6OGPkfzodxjuaXmuUNISQoj1UNKGN2z95T8oaQkhxACUtISECxewf/Xd6NBuHJ5eMBpNy7pPVCMciKmXgmVfUsQQ/xISknbJV+g57mk0HzgHrcenYvAzMn4M/cZNRvVKCYiMjEBEZCmUqtEXTcZvxwhPz+EOJS0hhFgPJW24w9Zf/mLj9jSMn7cZa7ceUkeMQUlLCAkrKGkJCQeykLZ6LBpf2QlP7jzv/nc2ftg0E52rOC+J2oZ34u3jvMGLFM7HH3+MoUOH4osvvlBHjBHsknbEw8+jQe3ESyLW/Tc0ItKF0g0fQrdps1GltAORJSqjfP3uqN6gCUqXdP+75HVoMG4XRnp4LqOSdsTMV9FqyONoMVhnUlaiz5KCzyehpCWEhBqUtIStv4ITSlpCSFhBSUtI6JN9dCWGV3ehxui3cPlOrmz8/OHD6FjR6T5RjcZND32KTHUJIfmZOHGi8rciMjISt99+O37++Wd1iW8UJWmtkI6mStpntqJFo0RERtdDjS6z0XrkfNzYvh1KO0shrkI1RCV0QtMpu3OEbMr0uahVsSSiqt+Fbk/ney53jEraYRNGI94plfGqMPY20f1xy8KCzyehpCWEhBqUtESBrb+CDssl7eYdRzFubirWfHhAHSGEkMBBSUtIqJONtGW9Ee+IQ/Jz+SdEyMKhF1NQwxmBmHZP4mtOaUsK4dy5c5g2bRpKlCih/M2Ij4/HggUL8Pvvv6uP0EdRktYK6WimpB0xfQYquhJQZcAHufrN7kPXzo0QFVESVySty9eH9jgGjExGqRLXo/HUI7nGL8WopB217Aj6T5iKKuWciHQ1xDUDluKW25YVn9Fr0E9p0VAw+SXtt99+ix49ejA2yJYtW5TfCSFEH5S0hK2/ghPLJe3qLfuVk57lb3+tjhBCSOCgpCUk1LmILx5rjZiIeKSszJkm4TLnN+Geei5Et3gYn7OUlhTDwYMHkZSUlCNG69ati40bN6pLvafodgfmS0czJe2wO4ahlKs5bph+LM/48GlTkeiMQ80R3+YZl4yYPh0VXVeizh2HCywzLmkvJeXe6agc50Kpxo8XWlHsbfJLWml3of3OmcDmlVdeUX4nhBB9UNKGO2z9FaxQ0hJCwgpKWkJCn4y3x+IqZzRaPPyvgi0NMrfhwRtjcdXYty/PdEtIMWzYsAHXXHNNjjjq1asXvv/+e3Vp8XjTk9ZM6WimpB0+aSwSStRE3XH78oyPfPJNNGs/HI3HfF6g92zKuFGIK1EH105KyzMuMUvSjlqWjr7DeyPWWRW1R+302P/W2+SXtKdOncK7777LBDBly5ZV9jVKWkJ8g5I2vGHrr+CFkpYQElZQ0hISBmTuwsLuFRFd/w68lZ63SuDUB9PRvEYvLP6ap6VEH9LqYN68eShdurTyd8TlcmH69Ok4f14qVIrGu4nDzJOOZkraUfNeRN1EF0rUuBVtZuwpdruGz16JhlcnwFF+KNrNLbjcPEnrzpIP0KLZTajQYj6SC6kq9ibsSWs/RowYQUlLiAEoacMZtv7yJ6d+zcSB9AycPG1Or19KWkJIWEFJS0h4kH18M54c1AhX3TQCj/79bfzfxrVYOX8CencdhYUfn8h3wkqI95w4cQK33nqr8rdEUqlSJbz66qv4888/1UcUxDtJ645J0tFUSbssHf1uS0GCy4HIqPIo23Elhnp83AF07d0FZeOciHRUQrVB7+frVXsppkpak0JJaz8oaQkxBiVtOMPWX/5kVepe5Rxixfrd6ogxKGkJIWEFJS0h4UQmTuzegrdfewl/f/l1rP14L35hxYAtuP322z1OEhRMueKKK3JErZYvvvhC/Qnz4rWkNSnmSlrJEfSfNBv1G92Iqr03eJSvo5YdRqd2NVHiilaoO2QdBi/19BhKWuIdlLSEGIOSNrxh6y//QUlLCCEGoKQlhJDAc9VVV+WIzVBKy5YtkZFR8JIn+CWtdxn25C4MWex5mRZKWuINlLSEGIOSNsxh6y+/QUlLiuE80j5YjmkD+uLRj83piUFIKEFJSwghgUeTtIsXL/Y4aZDds2LFCiQmJio/g5Y5c+bgf//7n/oT5iVcJK03oaQl3kBJS4gxKGkJW3/5h6CTtBlnM3HQxCa6pDDO4VDqs5jcqwHKOtwXC676mJLK95yQ/FDSEkJI4NEkbVpamjoSHMjkYU899RTi4+OV7S9RogTuu+8+nDt3Tn2EZyhpL4eSlngDJS0hxqCkJZdg6y+rCTpJS/zEue/wYeouHPziWQyo4qSkJaQQKGkJISTwBKOklb8bdevWVbZb0rNnTxw6dEhdWjSUtJdDSUu8gZKWEGNQ0hLiHyhpSdFc/BbzO8RQ0hJSCJS0hBASeIJJ0oqIFSEr2yupU6eO7r8hlLSXQ0lLvIGSlhBjUNIS4h8oaUnRZB3Cku6xlLSEFAIlLSGEBJ5gkLTSwkBaGUhLA9nWuLg4pdWBtDzQCyXt5VDSEm+gpCXEGJS0hPiHjdvTMH7eZqzd6t3dVcVBSRtqZH2PZ3pQ0hJSGJS0hBASeOwuaT/66CNceeWVyjZKbrvtNvz000/qUv1Q0l6OuZL2GHreOh03jV6HAU97Wu5dKGntByUtIcagpCUkOKGkDTUoaQkpEkpaQggJPHaXtBMnTlS2r3nz5tixY4c66jveS1pzpKN1ktb49pkradPQuUNtOCIccJa9ATXaP4RbpmzHUI+PLTyUtPaDkpYQY1DSEhKcWC5pN+84inFzU7HmwwPqCLEUSlpCioSSlhBCAo/dJe358+fxySef4H//+586YgzvJa050tE6SWt8+8yVtCcw9JE1aJM8BjVrVYUzMgIRkSURU7076vVZgq6zDmCkh3Xyh5LWflDSEmIMSlpCghPLJe3qLfuVk57lb3+tjhBLoaQlpEgoaQkhJPAE08RhZqCn3YEZ0tE6SWt8+8yWtJdzBAPvfwktuqegSqXycLi3LTIqEeWuG4kmI/6B5PnHPaxzKZS09oOSlhBjUNISEpxQ0oYalLSEFAklLSGEBB5KWm/iu3S0UtJejm/bZ52kzZWl+9H37mfQtEMfVKyQgMhIBxwJw9G+kBYNlLT2g5KWEGNQ0hISnFDShhqUtIQUCSUtIYQEHkpandEpHf0jaXNFx/b5R9IeRL8pz6FZt2GoVqMynO7tiSwzDO0XenisO5S09oOSlhBjUNIS4h9O/ZqJA+kZOHnaHP9GSRtqUNISUiSUtIQQEngoaXVGp3T0v6T1fvusk7RHMGj6y2iZNAxVqyYiSip7HWWR0CAFjYe+ij5z0z2scymUtPaDkpYQY1DSEuIfVqXuVc4hVqzfrY4Yg5I21KCkJaRIKGkJISTwUNJ6E9+lo38krW/bZ7akHTrrTbRJHo2aV2k9cl2IrtwRdXouQOcH93DisCCFkpYQY1DSEuIfKGlJ0VDSElIklLSEEBJ4KGkLjxnS0UpJa3T7zJW0aejcoTYcEQ5ExTdEtTb34+ZJnyBlqafHFh5KWvtBSUuIMShpCfEPlLSkaLIOYUmSSNp6mLyJkpaQ/FDSEkJI4KGkLSzmSEfrJK3x7TNX0h5Bz+FT0HTkm+j7VOETqRUXSlr7QUlLiDEoaQnxD0EnaTPOZuKgiU10STFc/AKP3RyDCEdl3P7maXWQEKJBSUsIIYGHkrawmCMdrZO0xrfPXElrTihp7QclLSHGoKQlxD8EnaQlfiI7He8vn437RrVFNWeE+4DsQJnrkjHpwXlY8+1F9UHekXUoFSsWzsGsmQ/hoYcuZebM2Zi37F18R9dOghxKWkIICTyUtNbGOklrPFZI2pFzN6Fdvwmo26Ivat7QEzWa9CiYG/+Kros8r09Jaz8oaQkxBiUtIf6Bkpb4h+wfsWZsHbjcB3ZH7A0Yv3o/zqmLCAlmKGkJISTwUNIWHaPS0WpJa2T7TJe0899C49oJiHR/nuQzVWii++OWhR7Wd4eS1n5Q0hJiDEpaQvwDJS3xExewZVpDuCIcKD9gBY5mq8OEBDmUtIQQEngoaYuICdLRUklrcPvMlbTHMXBEH5SMLIWEG2eh4/TPMWjuHgyZ5yHzD2KEx+egpLUjlLSEGIOSlhD/sHF7GsbP24y1Ww+pI8agpCWeydqHhV1iEeGIR+9laaCjJaECJS0hhAQeStrCYo50tE7SGt8+cyVtGrp2aYComCS0eowTh4USlLSEGIOSlpDghJKWeCT72AvoV9aBiNiOmP9tljpKSPBDSUsIIYGHkrawmCMdrZO0xrfPXEl7BEndGyMqYTjaF1JV7E0oae0HJS0hxqCkJSQ4sVzSbt5xFOPmpmLNhwfUERIM/LJqBK50RCC65SP4l755xwixNZS0hBASeChpC4s50tE6SWt8+8yVtCcwdOIdSHDVx7UT93lc7k0oae0HJS0hxqCkJSQ4sVzSrt6yXznpWf721+oIsT9nsHbcVXBGuNB4+ke4oI4SEgpQ0hJCSOAJpKQ9d/hzpG7ahNQvjsFf30Pr6UlrhnS0TtIa3z6zJe2opTvRocMNKFWxOxrf+gZ6ztqJQU9+g8EFsh/DPa3vDiWt/aCkJcQYlLSEBCeUtKQgF97H1GtdiHDVwaT/O6cOEhIaUNISQkjgCZykzcKhJUmIdb92/JBXcEodtRpdE4eZIB2tlLRGt89cSZuGrkktEZ9YCS6HQ/lMFZoiJlqjpLUflLSEGIOSlpDghJKWFCBz+yw0i46As9oYrMlQBwkJEShpCSEk8FDSFhZzpKN1ktb49pkraY+gZ8pIXNW0N2oWl2YPousiT89BSWtHKGkJMQYlLSH+4dSvmTiQnoGTp825B52SNkj5888/8fPPP/uc//3vf+oz5ecivp3fATERDlQYuhInstVhQkIESlpCCAk8lLSFxRzpaJ2kNb595kpac0JJaz8oaQkxBiUtIf5hVepe5Rxixfrd6ogxKGmDlN27d6Ns2bIoU6aMT/nnPws5ac8+jGW94+FwlEHy8qOgoyWhBiUtIYQEHkpaa2OdpDUeKyXtyAU70PPulWg/5nm0H+/+mWZ+W2hLiNyhpLUflLSEGIOSlhD/QElLLCX7xCtISXTAEdcVT+/LUkcJCR0oaQkhJPDYRdKePLMH6xfPwB0pfZHcfxjGzViEN3f8aPqEYr5KWl+lo78krS/bZ4mkXfwZOvTshXJxTkS6f7fy2VISGYu4ereh1X17PK+nhpLWflDSEmIMSlpC/AMlLbGUjLdGo5ozAjFt5uBLf015TIgfoaQlhJDAYwdJG9v5Dky4uQKc7v92OJ1wqj1WHdG10euJj/CzibcT6Za0BqWj5ZLWwPaZLmmXfon2ba+FM9IBV8U2qNVuEq7vdT+u7zoGtRvUR0n37zWyfB+0npXueX13KGntByUtIcagpCXEPwSdpM04m4mDJjbRJVZyDhvvrgtXRDRueGAbMtVRQkIJSlpCCAk8dpC08vrOyu0x5eVtOHouC5k/fYN35vRD3RgHIlz1Me7tH01r+6RL0pogHS2VtAa3z2xJO3zK3SjvdCH+pvnotSD/8jT0HXM7roh2L2+3EkPzLLscSlr7QUlLiDEoaQnxD0EnaUkQcX4zpl7rQoTzakzacE4dJCS0oKQlhJDAYwtJ62qICWvzi9gz2DazFeIcDsR1nI9vTLqrSI+kNUM6WilpjW6fuZL2GHr2bo6omO5oOfu4h+WSPWjfpgaiKo1Dl0ImWqOktR+UtIQYg5KWEP9ASUssIhs/rh6N2k73RUtsNyw+wH60JDShpCWEkMBjB0kb036uRwmbffhZ9Ip3uM+HOmL+t+acD3kvac2RjtZJWuPbZ66kTUOXjnXgrHwnuhbyXoxalo4+/W+BM2Yg2i70tJyS1o5Q0hJiDEpaQvwDJS0xmQvY8+7f8NRDt+PmKk7lQB7hiEej/lMx55n12MueByTEoKQlhJDAE3hJ60Ldeza5z4I8cOEjTG/scp8PXYkx/zTnziLvJa050tE6SWt8+8yupO3VpyWcsT3Q6tHCpPE+dGhTE1EV70DnQraZktZ+UNISYgxKWkL8w8btaRg/bzPWbj2kjhiDkpYQElZQ0hJCSOAJvKSNRrNZn3nuv39xFx6/Jca9ffFIWZmhDhpDTyWtGdLRykpao9tnrqQ9geH33oPyzpJIaLkIfQpI4WPoP24sEku5ULr1CxiSZ9nlUNLaD0paQoxBSUtIcEJJSwgJKyhpCSEk8NihkrbR/R95rqTN3IYHb4xWKmlHr/F3Ja050tE6SWt8+8yWtKOWfoF2beoiKtKJkpXb4+oOk3FD8gO4IWk86jRqhFJOByLLdkeLB455Xt8dSlr7QUlLiDEoaQkJTiyXtJt3HMW4ualY8+EBdYRYQtaP+OzFh3Bbz5vR5LrrcMMtvTF65ov49Dh7yxKSG0paQggJPIGXtA6UT3kFP6ujucn+8UUMKudAREwbzNllzsxheiStGdLRSklrdPtMl7SShR+ibZfOSIhxItL9uZLPlpLIOMTXG43W9+/xvJ4aSlr7QUlLiDEoaQkJTiyXtKu37FdOepa//bU6QkwnKw2rxzdBGUcEHM5oRLvcFxbKyakD8dfdhpX72FiWEA1KWkIICTx2mDjMWWUQVhzO/2X2RexZnITy7nOq6BsfxDaTTqF0SVqJQeloqaSVGNg+SyStmpHztiFp4otoe9sytB37OpJm7sZwD4/LH0pa+0FJS4gxKGkJCU4oaYOebPzwxijUu24AHvnH5zh6+iKyz6bh4+fHo1WiyFoHEnssxh4W1BKiQElLQoLs34H/ZjCM9/nfH+qHxx7YQdJGRDhRtftspB7TTOx5HHx7GtpWcCLCWR1D/n7I/Whz0C1p1fgqHS2XtGp82T5rJG0a+k9egmajUzFCG1vyPlp1HI0mI97BgMW5H1swlLT2g5KWEGNQ0hISnFDSBjvZR/D8bcPwtz35Sz2ycPjlFNRwui9CYtph7jfm3K5HSLBDSUtCgpO7gM0DGcb7nLFX2yk79KS9plsyWpZ3wFmuDlp27Y4uzWoj3uE+b3JWRNvpG5Cera5iAvolrTHpaL2k9X37zJe0e9A9uSNio9y/y4Zz0G+pOr7gOVwd50BEZEmUbvwwkp7KvU7eUNLaD0paQoxBSUuIfzj1ayYOpGfg5PJJki0AAE6jSURBVGmPMx3ohpI22Mn8HCtX/svzxBfn3sOka5yIcNXB3ZvM+cAQEuxQ0pKQgJKW0RtKWhVN0kajyV8/Rvq25bgnuTmuToxDXGItNO3+F8x5azdOq482C32S1rh0tFbSGts+syXt8PvuQ4WSTpSqcwdaT9mBYbmWDXtsA9omdULpqFgkJq3Lsyx3KGntByUtIcagpCXEP6xK3aucQ6xYv1sdMQYlbShz8RvMbR+DiJib8dgXrKQlRKCkJSEBJS2jN5S0AUWPpDVDOlopaY1un7mS9hh69WkJZ0wXtHg43cNyd5Z+hVtaVEFU1UnoVkiFLyWt/aCkJcQYlLSE+AdKWuI9Fz7C/Y1ccDW+Hx+ykJYQBUpaEhJQ0jJ6Q0kbULyXtOZIR+skrfHtM1fSpqFLpzpwVpmAros8LZekI7l/WzhjB6HtQk/LKWntCCUtIcagpCXEP1DSEq+5+NUTaBtbDt0XfWfaxBeEBDuUtCQkoKRl9IaSNqB4L2nNkY7WSVrj22dNJW13tJx93MNyyX50bFsLURXvQOdCtpmS1n5Q0hJiDEpaQvxD0EnajLOZOGhiE13iLWewZdr1KNvyIXxyRh0ihFDSktCAkpbRG0ragKK/ktaYdLS+ktb37TNX0p7A8KlTcEUJF+KbzkGPefm36TD6jhmDxBgX4tq8iCF5ll0OJa39oKQlxBiUtIT4h6CTtCQwZH69AN2uaodHtpk99QUhwQ0lLQkJKGkZvaGkDSi6etKaIB2tk7TGt89sSTtq6S50aNcQzkgHohIaokrTFNRtNxr1WvdHtVo1UELGE/vh5lmFtGdwh5LWflDSEmIMSlpC/AMlLSmec19gflITpLzwHTLVIULIJShpSUhAScvoDSVtQNEjac2QjlZKWqPbZ7qklSz+Fzr3G45KFcsgMjJC+WxFRDgQWbIqKjS7D+1nHva8nhpKWvtBSUuIMShpCfEPlLSkaLJ/xHtTO6H7Ix/il2x1jBCSAyUtCQkoaRm9oaQNKLokrcSgdLRU0koMbJ8lkjYnhzF4ViqSpryDpPs/woAFhbVkyBtKWvtBSUuIMShpCfEPG7enYfy8zVi79ZA6YgxK2pDiDHY8PRBd734HRzlTGCEeoaQlIQElLaM3lLQBRbekzYlv0tFySZsT/dtnraT1LZS09oOSlhBjUNISEpxQ0oYM5/HtilHoevvL2OtpjrbMszjL3geEUNKS0ICSltEbStqA4ruk9S3+k7T6Q0lLvIGSlhBjUNISEpxYLmk37ziKcXNTseZDe10chBYXsOfl29E55Vl86eHcMuvnf+H58ffgxSPsf0AIJS0JCShpGb2hpA0olLSXQ0lLvIGSlhBjUNISEpxYLmlXb9mvnPQsf/trdYSYy1l8/cIINIiNR7Vrm6BJk7xpfO3VuDLOiSuHrsRxOlpCKGlJaEBJy+gNJW1AoaS9HEpa4g2UtIQYg5KWkOCEkjaoyUb6P0ajTrRDOQAXGmd13L76F3UdQsIbSloSElDSMnpDSRtQNEkr6T5tg+XpOmWd8lp6JK2/tk3kq7xWcZJW0uWet/0S7fUoae0DJS0hxqCkJSQ4oaQlhIQVlLQkJKCkZfSGkjag5Ja0/oxeSevPeCNp/R1KWvtASUuIMShpCfEPp37NxIH0DJw87WlyKP1Q0hJCwgpKWhISUNIyekNJG1DO/nYRB90n8P7O9z+cVregcC78N8vjulansG3Lzv6fcsETiMhrE3tASUuIMShpCfEPq1L3Ks5zxfrd6ogxKGkJIWEFJS0JCShpGb2hpCWEBBGUtIQYg5KWEP9ASUsIIQagpCUhASUtozeUtISQIIKSlhBjUNIS4h8oaQkhxACUtCQkoKRl9IaSlhASRFDSWsvrqfsw8K/rApb5r+1Qt4RYBSUtIf4h6CRtxtlMpe+UWU10CSHECJS0JCSgpGX0hpKWEBJEUNJay9/Xf6tIhUBl5vPb1C0hVkFJS4h/CDpJSwghdoKSloQElLSM3lDSEkKCCEpaa9EkbZ+Zn2DE4mN+y4DHvqSk9ROUtIT4B0paQggxACUtCQkoaRm9oaQlhAQRlLTWoknafrP/hVHLTvgtg5+89LqUtNZDSUuIf6CkJYQQA1DSkpCAkpbRG0paQkgQQUlrLZS0oQ8lLSH+YeP2NIyftxlrtx5SR4xBSUsICSsoaUlIQEnL6A0lLSEkiKCktRZK2tCHkpaQ4ISSlhASVlDSkpCAkpbRG0paQkgQQUlrLZS0oQ8lLSHBieWSdvOOoxg3NxVrPrTXxQEhJDyhpCUhASUtozeUtISQIIKS1looaUMfSlpCghPLJe3qLfuVA/Hyt79WRwghJHBQ0pKQgJKW0RtKWkJIEEFJay2UtKEPJS0hwQklLSEkrKCkJSEBJS2jN5S0hJAggpLWWihpQx9KWkKCE0paQkhYQUlLQgJKWkZvKGkDxqlfM7Hw9S8CktNn/6tuhWcu/v6Hx/X8kcK27Zk3d3l8vNXZd/SUugXEDlDSWgslbehDSUuIf5DzvAPpGTh5+oI6YgxKWkJIWEFJS0ICSlpGbyhpA8axn84q58KByPFfzqlb4ZnfMrM8ruePFLZtPe/9p8fHW50tO4+pW0DsACWttVDShj6UtIT4h1Wpe5Xj2or1u9URY1DSEkLCCkpaEhJQ0jJ6Q0kbMHJL2gFzdvkl2uvpkbSenseKFLdtmqTt/+hOj+ubHW17KGntBSWttVDShj6UtIT4B0paQggxACUtCQkoaRm9oaQNGJqk7Xbveo/Swop0nbJOeU1vJW3nu9d4fB4r0q2YbdMk7chnfvC4vtnp9cCHyutR0toLSlproaQNfShpCfEPlLSEEGIASloSElDSMnpDSRswKGnzhpKWeAMlrbVQ0oY+lLSE+Iegk7QZZzNx0MQmuoQQYgRKWhISUNIyekNJGzAoafOGkpZ4AyWttZguaZcewqCHP0byo99huKflaihp/QclLSH+IegkLSGE2AlKWhISUNIyekNJGzBCXtJ6KWe0UNISb6CktRafJO2Sr9Bz3NNoPnAOWo9PxeBnZPwY+o2bjOqVEhAZGYGIyFIoVaMvmozfjhEenoOS1n9Q0hLiHyhpCSHEAJS0JCSgpGX0hpI2YISEpDVBzmihpCXeQElrLXol7YiHn0eD2omX9nX37yUi0oXSDR9Ct2mzUaW0A5ElKqN8/e6o3qAJSpd0/7vkdWgwbhdG5nseSlr/QUlLiH+gpCWEEANQ0pKQgJKW0RtK2oAR7JLWLDmjxYikHTHzVbQa8jhaDNaZlJXosyTvc2mhpLUnlLTWokvSPrMVLRq5jwHR9VCjy2y0HjkfN7Zvh9LOUoirUA1RCZ3QdMrunH0+Zfpc1KpYElHV70K3p/M+FyWt/6CkJcQ/bNyehvHzNmPt1kPqiDEoaQkhYQUlLQkJKGkZvaGkDRhFSVorpKPENElropzRYkTSDpswGvFOxyVZrCfR/XHLwrzPpYWS1p5Q0lqLHkk7YvoMVHQloMqAD3K1NNmHrp0bISqiJK5IWpev1clxDBiZjFIlrkfjqUdyjVPS+hNKWkKCE0paQkhYQUlLQgJKWkZvKGkDRlGS1grpKDFL0popZ7QYa3dwBP0nTEWVck5EuhrimgFLcctty4rP6DXop7RoKBhKWntCSWsteiTtsDuGoZSrOW6YfizP+PBpU5HojEPNEd/mGZeMmD7dfey4EnXuOJxnnJLWf1DSEhKcWC5pN+84inFzU7HmQ3tdHBBCwhNKWhISUNIyekNJGzCKbndgvnSUmCVpzZQzWszoSZty73RUjnOhVOPHi6wo9iaUtPaEktZa9Eja4ZPGIqFETdQdty/P+Mgn30Sz9sPReMznBdqbpIwbhbgSdXDtpLQ845S0/oOSlpDgxHJJu3rLfuVAvPztr9URQggJHJS0JCSgpGX0hpI2YHjTk9ZM6SgxS9KaKWe0mDNxWDr6Du+NWGdV1B61s9D+t96EktaeUNJai66etPNeRN1EF0rUuBVtZuwpdn8bPnslGl6dAEf5oWg3N+8ySlr/QUlLSHBCSUsICSsoaUlIQEnL6A0lbcDwbuIw86SjxLSetCbKGS3mSFp3lnyAFs1uQoUW85FcRFVxcaGktSeUtNaiS9K6j0/9bktBgsuByKjyKNtxJYZ6fNwBdO3dBWXjnIh0VEK1Qe/na4dCSetPKGkJCU4oaQkhYQUlLQkJKGkZvaGkDRjeSVp3TJKOEtMkrYlyRotpktakUNLaE0paa9EnaSVH0H/SbNRvdCOq9t5QyP59GJ3a1USJK1qh7pB1GLy04GMoaf0HJS0h/uHUr5k4kJ6Bk6cvqCPGoKQlhIQVlLQkJKCkZfSGkjZgeC1pTYx5klZijpzRQklLNJ599lmUK1cO//rXv9SRyxQlaZ9++mllva+/5vWlr+iXtN5l2JO7MGSx52USSlr/QUlLiH9YlbpXOa6tWL9bHTEGJS0hJKygpCUhASUtozeUtAEj+CWtdylOzmihpCUac+bMUY4DTZs2RXZ2tjp6icIkbXp6OkqVKqUs8yR3iXdYJWmLCyWt/6CkJcQ/UNISQogBKGlJSEBJy+gNJW3ACBdJ620oaYnGb7/9hqpVqyrHghdeeEEdvURhknbQoEHKuPw/8R1K2tCHkpYQ/0BJSwghBqCkJSEBJS2jN5S0AYOSNm8oaUlu3njjDeVYkJiYiDNnzqijniXtxx9/rIxJJa1U1BLfoaQNfShpCfEPQSdpM85m4qCJTXQJIcQIlLQkJKCkZfSGkjZgUNLmjXmSNg19bh2J6m2WoM+igstTps5G7SZ3o9Oc4wWW5Q4lbWD5888/0aZNG+V4MHnyZHW0oKT9448/0KhRI2Xs4YcfVsaI7/guaY3td5S0/oOSlhD/EHSSlhBC7IRlkvb0AXyaugmbNhVMaur7+ODjT7FzzzFkXFQfbzZnM/I897nDnyNVXvuLY7DqJYOLTJz4eiNWLn4MMyZPwp0T7sLUB5/E31Zvxfdn1YcEE5S0jN5Q0gYM7yWtOdJRYo2kNWf7zJO0+5A0oDtKR8UgocXT6PP05WVDps5CtfIuOKukoM1DR3KtUzCUtIFHJgBzOBxwOp3Yt2+fMpZf0i5btkz5d40aNZCZmamMEd/xXdIa2+8oaf0HJS0h/oGSlhBCDGCVpL341RNoGxOhPHfhcSDmyuvR++7n8OlPeSfI8J3zOLh+DlKapeC5Y9pzZuHQkiTEul8zfsgrOKWOhifZOLnzZdzX51qUc3j+ncTW6ox7Xv4SGeoaQQElLaM3lLQBw3tJa450lFgjac3ZPnPbHexHj4FJiIsqhTLN5qP3wuMYcu9MVCvn3paqQ9FmZvHvFSWtPRCRJMeELl26KNW1uSVtRkYGypUrp/z7rbfeUtcgRjDW7sD3/Y6S1n9Q0hLiHyhpCSHEAJZLWmd51GvZHu3b5047tGl1ExpWLwOnIgqdqNjhUWw9ra5shF9exuB4ByLikrGckjYfF3HorUloUd79/oggr94SQ+6ejUXPvYSVK1fgmTlTMKRZZbjkd+Ksiu5zt8GMX4lfoKRl9IaSNmDoa3dgXDpKrGt3YHz7zO9J696mQT0R5yyJ+IbJqOTelhLVhuOWWd69V5S09uA///kPEhISlOPCunXr8kjaiRMnKv8t51QicIlxjPek9W2/o6T1H5S0hPiHjdvTMH7eZqzdekgdMQYlLSEkrLBc0sZ0wPxvC2kwkPUTPnt2GOpHOxDhKIMOc3cZb0Xw80sYFO9+XUraApz7/Al0SpT3OhbXDnsG205kqUtyceF7/POeFijriIAj5gZM2xwkmpaSltEbStqAob8nrTHpKLG2J62x7bNm4rD96Nq1CaIiIxAZ2xHNHvD+vaKktQ9LlixRjgu1atXCwIEDlf+eOnWq0gpB8u2336qPJEYxZ+Iw/fsdJa3/oKQlJDihpCWEhBUBlbRC9gn8Y1R1ON3bENNmDnYZtbSUtJ7J2otneiXCEeFAYtd52FmUpzi/E4+3L6M8tnyfZTjkweXaDkpaRm8oaQOGbxOH+S4dJdZPHOb79pkvaY9j8N33oXKCC66KdVC6RCnE3/gkei3w9NiCoaS1DzI52LXXXqscG/JnwoQJ6qOIGRiXtL7td5S0/oOSlpDgxHJJu3nHUYybm4o1H9rr4oAQEp4EXNIiG0eW9Uacexuc1cZi7Xl1WOXs9x9i5VMzMGHUYCT36oGeyQMxcvwMPPX6Z0jPM09GJrY/PRxJXZqimtP9us4qaNKpG7r1+AuWf3M+j6Q9mZmObSsfx+Tb3M/ZOxmDb5+Kea9/jh9zy8isA3h5Yk90656MWf+XvzvrRXy3Yix6uN+7HmOW4+v8P17G/2FW3+7onvwQNuQywt79LFk4+MpE9OzWHb3ufg2HPQrSLKStuge9unfHgEdTvWpJkPnZLDSLdr8vrmsxeVNxM4Nl48TrY3B9k04YPOl5fF6007AHlLSM3lDSBgz9ktaYdJRYK2mNbZ+5kvY4Bk2ajErxLpS8aiw6zD6A3sMHIsFVEvE3zEFPL7aJktZebNmyJUfMapF+tNKXlpiHMUnr+35HSes/KGkJCU4sl7Srt+xXDsTL3/5aHSGEkMAReEmbhe+e6qQIVGedu7HxgjqMs/hi+Ug0Liv9U93P43DAFe2CQ5vsyuFC9aT5+CzHN17ABw+0Ru0aFREvj3HEoWKNq3DVNV3xxL/O5kja2K4TcV/X6pf6rsrzaHHEoF7KC9id8/oX8OF9jeCKcKHu3ZuQxx1nH8GyPvFwuNdzxPXCsrS8k56d2zAJ1zgdiOu+GAcUyarvZ7n45Ry0iXHAEd8di/d7sLRZ+7G4u/v1HZUxbOWPyPvqnriIXY/fghj3a7nqTcamfCI8JKCkZfSGkjZg6JO0xqWjxDpJa3z7zJO0xzFwwl24Ms6JkrXHocNj6er4YfQZMUjZprgmj6LHU/nXyxtKWvvRr1+/y+cr7ixbtkxdQszCd0lrbL+jpPUflLSEBCeUtISQsCLgkvb8F3iyo3pr/YAVSFeN47ltM9EizgFHTAOkPLUBu0+cR7b7f+dPfIP3Ft2KJjI5mKM8+j6XlldSFtPuQH5WZ+U2GLfoHXx+MB3Hv9+Bf87phzrSF9dZBSNeuyw9z/3fXajjikB0s1n4LHfV7sk3cOuVmnC9EqP+kbuBwgV8dH8juByx6DT/O/cr+/CzZO3Bgi5xcDji0GXBHuU5cpP17Xx0inXAWf02rP5FHSySDLw+4lKrgzKDX8LP6mhIQUnL6A0lbcDwXtKaIx0l1khac7bPNEm7dDc6d2uOuKsnoGPOtmhJQ5+Rg1G2Qjc0n56Wb1neUNLajyNHjlw651CTnZ3nzIeYgM+S1uB+R0nrPyhpCQlOKGkJIWFFQCRt9kWc+yUNX6W+jJn9GyBOKkpd9TB+7c+qID2LdydeDWeEC9eMewcFPWQG1o6r5V7uRI071+etci1O0roaYdK7P+WIWIXsH7FqZFXl+WpN3HD5+U6/g7E1nIiI7YIFey+r0nPvSaWsC3Wvvw5lHC7Un5KKnALcizswu1WM++dugzlfys/ty8/i3t5ne6Gsw4HYDvOwO8/bp1bFOpyoPX6te20vyDqIxd1j3b9nF+rcvenytoYSlLSM3lDSBgyvJa1J0lFiiaQ1aftMbXewdD9SnjruedmyY0iZf9DDeN5Q0tqTGTNmKMeIjz76SB0hZmKo3YGB/Y6S1n9Q0hLiH079mokD6Rk4edqcq05KWkJIWGG5pBUxWlycFXDLjI34McecZuHkoZ34aMM/8cH+PI1nVS7im7ntESOTYI1ajTyXtcVI2ugbH8S2Ak+ZhQOLuirL4we9lEuk/oI3bq0Mh6MsBqz4QRW7mfj0oZsQ7ayNsYtno737Z5QJzxQf6yZrzwJ0jnUguvksbFdex7efJfvYCgxMlOrbW/B47tnUMj/Hwy2iFal99/8V11tWJWsPnup0SdJeO3ULJS3DSChpA4audgcmSEeJZe0OTNg+8ycOMxZK2sBz+vRpvP7664pMat68OSpUqACn06kcI2JiYpTjRdeuXfHggw9i69atrKw1AeMTh/kWSlr/QUlLiH9YlbpXOa6tWL9bHTEGJS0hJKwIlKR1uOJRuc5N6DpsKhat24Mz6noeyT6Pnw/vxvb312LVc/Mxc9IwdKxXVrl9v9yt/9AlaeP6vYDjBa5lspH+XLIyeVlc39zLs3H8pSFIdDhR9fY3L1WtZu3Fgs6xcFQYipXH3sOka5xwxCfjb0dkpWwc+Vsyyjiicf2MrfCkZL3+WbJPYNWIKnBGxKDVozuhadrMbQ+gaXQEXI2m4QOt5Pfcj/h+/z7s25cv+w/hR/G42el4LjnO/b47UX3c2ryVx6ECJS2jN5S0AUP/xGHGY+3EYcZCSUs0tm/fjoEDB6JEiRJ5zpmKS6VKlRRh+8svXvVAIh6gpA19KGkJ8Q+UtIQQYgDr2x20x+NfnMbZs2dzcu7cBVwstugjE0feX4opA1rjmvLRyiRd2sWIwxGPK6+81MdWr6SNH/IKcneQvURuSfs8fsi1bdlHliO5jAOu+pcm3Mr+YQUGlnMgLmkJDmX9glUjKsLhrILb38xwL/wJK4dWgMPVAPduzq1CfftZTq75C65yRuSqyj2PD5TJzKJx44PbciTwhdQpqO+6/Jw5cV6DuzbKdpzH/911DZzusbiez+Jwse99EEJJy+gNJW3AoKTNG0pacvjwYfTo0SPn77fD4UCHDh0wd+5cpb3B8ePHcfHiRfzvf/9zn0Odw4EDB/DPf/4T99xzD2rXrp2znlTZzp49W3ks0YfpknbpIQx6+GMkP/odhntaroaS1n9Q0hLiHyhpCSHEAAGfOMwjWTi4chTqx8qEWk6Ur3szeg8bi6mz5uNvq97D9kM/48sn2iotAqyWtMjaj8Xd4uCIbo5Zn2fi9JoxqOaMQavZO3BRKmeX9UG8Q9oIvI8LGWswproTzmsmYUNOJwIDP8uZDZhU14WI6KZ4QHo0nNuEyfXd/45phUd3Xn5Pi5e02fjxpcEo74iAs+ptWH3y0npFkX38ZYy6vhV63zYDr37lsSbYXlDSMnpDSRswQl7SeilntFDShi9//vknnnvuOZQqVUrZ/0uXLo2//vWv+Pe//60+onjkOaTlQW7J27BhQ+zdu1d9BPEGnyTtkq/Qc9zTaD5wDlqPT8XgZ2T8GPqNm4zqlRIQGen+fUSWQqkafdFk/HaM8PAclLT+g5KWEP8QdJI242wmDprYRJcQQoxgS0l7dgMm1XEhwhGHllPfw7ECq1/AR/dLRakDZUe+Ya2kVXrGtkNMRCw6PfUVUqdeC5erPqakXjqGX/zmSbRz/5wxrR/FtrUTcbXTiRpj38FpZakbIz8LzmPLtOuUytmmD2xDxqbJqO9yILb9PHyT+3mKa3fgJvvY3zGoggMRzipIefmY+ycuiiwcfq4fKjgi4IjvjsUHLk+aZlsoaRm9oaTVxdGjR9X/Mk5ISFoT5IwWStrwRPrIjhs3LkesDhs2DD///LO61Dek6vaaa65Rnk+E78aNG9UlpDj0StoRDz+PBrUTL+3r8juMdKF0w4fQbdpsVCntQGSJyihfvzuqN2iC0iXd/y55HRqM24WR+Z6HktZ/UNIS4h+CTtISQoidsKOkzdr3NLrGyrqt81SM5nDuU8xsEaO0DYgf9lrefrYnX8ZgRdL2xjKlT6xgRNICmf96GC2iHSjTcyruae1+3Sq3YbX2JJlbMaNJNBxxHTF0cF24nFUwKlepqqGfxU3mpw/hpugIRLd4EMumNobLEY9ui/a5fyK9nMK7k+orMjj62rF482jhz5B97E3cUd/l3iYnqo94rcD7YSVy0bp06VLs3LlTHfESSlpGbyhpveaFF15Qtq1t27b4+mvjd4IFu6Q1S85oMSJpR8x8Fa2GPI4Wg3UmZSX6LMn7XFooaa1H/tYNHTpU+fyULFkSr776qrrEOL/99huGDBmiPLdMNrZu3Tp1CSkKXZL2ma1o0ch9DIiuhxpdZqP1yPm4sX07lHaWQlyFaohK6ISmU3bn7PMp0+eiVsWSiKp+F7o9nfe5KGn9ByUtIf6BkpYQQgxgy0raU6sxqooTEY5y6Dh7Wx6pmvnDJ1g2qjHiHJcujuMGrMCJ3BLxnHvdRAciXA0xce2Pqsw0JmkVEXt9NByx8Yh3OlAm+TkczXnMWayfUBtOh0PpIeeoOBQrc2+QkZ9FuPgl5rSJgcNVG3Vqu+Ao2wfLvvetsjUrbRVGXSPy1YHyN92OxZsO5pPCWfh550uY2DpRkcbOKn2wdLd/Wx3IpCnyXkRGRuLWW2/FTz/9pC4pBkpaRm8oab3mX//6FxITE5Xtk+Pc6NGjDVX8FSVprZCOEtMkrYlyRosRSTtswmjl75L8bnQluj9uWZj3ubRQ0lrPlClTlN+D/K3r2LEj/vjjD3WJORw8eBCxsbHKa0RHRyv7MCkaPZJ2xPQZqOhKQJUBH+RqabIPXTs3QlRESVyRtC5fq5PjGDAyGaVKXI/GU4/kGqek9SeUtIT4B0paQggxgD170p7FtkfbIVHkpSMOtVr0wKChQ9C3azPUinfAUb4pho1OQnVnBGLazMGu3E9/8Ss80TZWkYwORzTiyl+HKRtPG5O0OI/UKVKFKhe3MWg/9xvkfsmfXxuOiopodaD8gBVIz7O+gZ9FIQvfPdVZFbkOJA5cgZwuDrrJxslP5qLXVSJqZXtiUf3Grhh461hMGH8bBnVq6L7ouHSx76zYFve/e8yHil1jSHWR9OOTyiLZjri4OMybNw9ZWcVsCSUtozeUtLr49ddfce+998LlcuXsm0888YRPExQVJWmtkI4SsyStmXJGi7F2B0fQf8JUVCnnRKSrIa4ZsBS33Las+Ixeg35Ki4aCoaS1ljfffFP5zJYoUQIrV65E5cqVkZKSYpqo/f7771GlShXlOeULFXkt+XdGRob6COIJPZJ22B3DUMrVHDdMP5ZnfPi0qUh0xqHmiG/zjEtGTJ/uPnZciTp3HM4zTknrPyhpCfEPG7enYfy8zVi79ZA6YgxKWkJIWGFPSesm+wS2vTANQ9pei2plYxATXxG1m3TG0KlLsGHfGWQdW4EB5R1wxHfBgu/yCrxTnz2Lv7SvhwqxTjgiYpH0zD7sMyRpgTPr7kRtp/vncTXG9I/zVpdmpy1D73gHIhxl0GfZYfez5cPAzyJkHXoWvcrK81fGsFd/LPj8Ojl/8D3Mv6Mz6rov6hVZmyuOmKponjILq3fndNUNCDLTde/evXO2q06dOnjvvffUpR6gpGX0hpLWJ0QA5d43a9WqhTVr1qhLvaPodgfmS0eJWZLWTDmjxYyetCn3TkflOBdKNX68yIpib0JJax3/+c9/UL58eWXfeeaZZ5SxQ4cOKaJW2h8YFbW5Ba186fn777+jRYsWyuuNHDlSfRTxhB5JO3zSWCSUqIm64/blGR/55Jto1n44Go/5vEB7k5RxoxBXog6unZSWZ5yS1n9Q0hISnFDSEkLCCqskLTGP7CPPIbmcA87qt+PNX9RBE8g6fQS7PlyPN1etxMuvrMKb727FtyfsNallamoq6tWrp3xGJUlJScptnAWgpGX0hpLWEFu2bMF1112Xs2/q6VfrTU9aM6WjxCxJa6ac0WLOxGHp6Du8N2KdVVF71M5C+996E0raoin2zo4iGD9+vLK/SIuDP//8Ux291J6gUqVKiqgVueoL8uVm1apVcwSthkhg7e4Utj0oHF09aee9iLqJLpSocSvazNhT7P42fPZKNLw6AY7yQ9Fubt5llLT+g5KWkODEckm7ecdRjJubijUf2uvigBASnlDS2p0sfL+sD8o6XKgz8V0Etr41MMgF8cKFC1GmTBnlsyq3W0+bNg3nzuUSGpS0jN5Q0hpGRJBc9OrtV+vdxGHmSUeJaT1pTZQzWsyRtO4s+QAtmt2ECi3mI7mIquLiQklbOE8++aTSpmDq1Kl5/wZ5wb///W9lXelDu2fPHnX0MgcOHFBE7bBhw3SLWk3QyoRhntadPn26so/KF52hiojuChUqYNCgQUhPT1dHvUeXpHUfn/rdloIElwORUeVRtuNKDPX4uAPo2rsLysY5EemohGqD3s/XDoWS1p9Q0hISnFguaVdv2a8ciJe/bXx2XEIIMQolrb3JOrYWk5rEwBF9Ex7aZq8qV3/zyy+/YMyYMYoIks/slVdeiZdeeulSNRIlLaM3IS5p//e//ym3TsvtzpmZmcqM7yKVpLes9KaU265ln5LJ+UQe/fDDDzh27BiOHDmiCB8RHvv378fevXvx3Xff4ZtvvsFXX32FL7/8Ejt37lQq8j777DNs27YN69evxw033KBsvxaZ+K+wfrXeSVp3TJKOEtMkrYlyRotpktakUNIWzvPPP69IVvmMS4uCN954I09FbFE89NBDynoDB7qPP4Ugolb+tg0fPtxrUSvHjGrVqilysrB1ZH8vVaqU8vrSEiEU2bdvX85kafKzzpo1Szn2eYs+SSs5gv6TZqN+oxtRtfeGQvbvw+jUriZKXNEKdYesw+ClBR9DSes/KGkJCU4oaQkhYYUmaZs1a6ac0DJ2yFT0v7EKqlarjPIxUYiMcKBc4364+yFPjw2/9OzZU/nM5s6OTa94FnEM4yEvTG6KB6eOx4wZM3D//fcrldkyKdY999yDu+66CxMnTsSdd96pXMj95S9/UapDR40apfR0FHkityQPHjxYkS39+/dH3759lT6t8tmUSrWuXbuic+fOyi3N7du3xy233IKbb74ZrVq1UvpD3nTTTWjatCmaNGmCRo0aoWHDhkqFnXyWa9asidq1ayvStkaNGkp1nMggETdSJSb9LMuWLatUlsvkXTExMcrs7VJh7nQ6cwSSHSL9aj1VDHotaU2MeZJWYo6c0UJJG1x88cUXyjmT9jmXfdzT5zw3InJlf5DHf/DBB+qoZ+TLEdnfR4wYUayolS9VqlevrhyLiutnK8cvef3Zs2erI6HH8ePHlXYP2u9G3pvVq1erS4tGv6T1LsOe3IUhiz0vk1DS+g9KWkKCE0paQkhYoUlahgnmRDkc2PDozR6FHMPkT8v6lybuCeWIrI2KilLkr/SjFJlbunRpxMfHIyEhAeXKlVPaFFSsWFG5xVomGxKhIZJYZNLVV1+NunXron79+rj22muV/rPXX3+9UjF74403KpKqZcuWaN26Ndq0aaM8Nv82vPPOO+pfmrwEv6T1LsXJGS2UtMGHVKq/8MILOZOAyRckU6ZMwdmzZ9VH5EXEqzxO9jlvKmTl8bJvSkV6YY/XBO2AAQO8mnBMKt5lG5o3b66OhC5S4Z+7ul96ZsvdAEVhlaQtLpS0/oOSlhD/cOrXTBxIz8DJ0+bcBUpJSwgJK1577TWP1YpMYPPQ/XfjjttuxW1j78Z0D8vDOT169Mi58NLCSlpGT16890bMnnEX5syZgyeeeAJz587F/Pnzld7HixYtwpIlS7B06VLlgu65555TZMzf//53vPzyy1i5cqVy3Hz99deVCq233noL//znPxUhKRJkw4YNSvuYTZs24f3331eq5j766CNs3boVn376KbZv3660CpCWAbt27VIm29q9e7fSUkBu15XbnWWiH2k5cPToUaW3olSH/fjjj0qv15MnT+LUqVM4c+aMIoTOnz+PCxcuKK0FpH+zCB1vb782A5FD8r6J/JV9Uap6Z86cWeRtxuEiab0NJW3wIq1DZDIwrYJdvvCQ40P+fVCOH7JchKq3yPFARK1U8ecXtXJskEp7bwWtIO1OpF2QCOX//ve/6mjoool0rWe2fGklck5aP3iCkjb0oaQlxD+sSt2rHNdWrN+tjhiDkpYQQgixISKobrvttjwXw6+88gp70jK+xWY9aYMRkc9SZSv7o0RaPkh1X3FQ0uYNJW3wI72apUJV2xekxcm3336rLgUmT56sjD/++OPqiHdIT2hpcyJ/+0Q6CpqglVYr3gpajTp16ijbIV8MhQvSh1vef62ljLSLWbx4cYH3jpI29KGkJcQ/UNISQgghIYxUBz711FM5lXrSe/O+++7LO7M2JS2jN5S0PiMTjUlPXtkfJdIa4b333lOXFg8lbd7YXdJKVbT0UJZeytJTWVpciISUXqydOnVCly5d0L17d6Unc58+fdCvXz+lwlM+I9K/WXqrSjWo9HaWHs/jxo3DhAkTlP7PIs+mTp2qHNOlR/SDDz6o3DEhfVMfe+wxpdJ93rx5WLBggVLl/swzz+DZZ5/F8uXLlSrJF198UfmyLnd1+5o1a3Iq2+VzuXHjRmzevFmpav/444+VW+Fl0jupaJf+sjIhnkhL6Ssr1asyaZ5WyS4T6kkVu0ywJ1XsUjkr0i93BbvIPvmyUCSqVMxeccUVyn4hlZvS51oeL++HjMk26iW3qJUvQUTQynusV9AK0i9btkMq/sMNaSGh/fwS+YJJ7nbQoKQNfShpCfEPlLSEEEJIiCIX17l7XYoEkFvBC0BJy+gNJa1ufv/9dzz55JM5M6hLn1sRaSKq9EBJmzd2l7TSVkM7BjOFR+7ykFYCnpbJ5IDy//I3zRdEIEsfaekrnZycrHx56Qvalyvypae0UpCIAJZIWwAtIpq1SN9diby+FqlG1SI9riUymaEWeX4tMsGhRLZdixxDtMhxREupUqWUSNsULdJTW4t8SSuRqlgt8p5rETEukbYOWuT3oiX370SLfLGQlpZmW0nLuSPMDyUtIdYSdJI242wmDprYRJcQQggJNb7//ntFyGon1CJqpc9noVDSMnpDSauL1NTUPF+YSGWgVBn6AiVt3pgnaY+h563TcdPodRjwtKfl3iW/pJV+qFJxKpWnUoH6ySefKK0utmzZolSoiniUysx169bh7bffVvo0S0WrVI2++uqrSi9nqTCVylepgJVKWOn7/PTTTyt3SUilrFTMivB/5JFHlJ7GDzzwgFJZKxW29957r1KROmnSJKUCVypxpSL39ttvVybWGj58uFKxKwJSPpd9+/ZVWm9I/3Kp8JVK344dO6Jdu3bKJHetWrVSKoKlMlgml2rcuLEiURs0aKB8xqUy/KqrrlIm5ZIJ9aS1jkhMEZUiI0U4ilAUgSiSUESgtl8UFpmQT/7fV0krvallW0RQ5m59oJchQ4YU2LZwj3FJa2y/o6T1fyhpCbGWoJO0hBBCCPGMyAC5MJcLUTmRliocuYgvtmqIkpbRG0parxERp13c1q9fP88twr7gvaQ1RzpKrJG05myfeZI2DZ071IYjwgFn2RtQo/1DuGXKdgz1+NjCw560+pF2B9J+QNovaO0OJCKHZTJAaU8g/xZ5rRf5MqRWrVpKBa20ZpDnHzNmjE+iVqS1bIe0iJAWDtLrXfLLL7/kRNo6aJFJtiQyWaEWafmg5fTp00pkIkMt0t5Bi1RhS6Q9kRZpFaHlt99+y4m0j5BIew0tMsGZFqnYl0hFvxY5N9Ai779EziO0yHukRdpYaD+/RI5lcmzT8F3SGtvv2O6AEBJqUNISQgghIYLMfC8XT3JbolQLycWjV1DSMnpDSes10p9TKhDnz59f/BcmXuC9pDVHOkqskbTmbJ+Z7Q6GPrIGbZLHoGatqnBGRiAisiRiqndHvT5L0HXWAYz0sE7+UNLqRyqMpTJXE4BSobt161Z1KZT+uzI+d+5cdcQ7NEEr1Z7avicTkomolWpivaJWxKRsh8jecEHE8LRp03K+/JV2DAsXLizQ09dIuwMj+x0lLSEk1KCkJYQQQkIEqXyRW2Hl1lpdUNIyekNJGzD0tDswQzpKrGp3YMb2WdOT9ggG3v8SWnRPQZVK5eFwb1tkVCLKXTcSTUb8A8nzj3tY51Ioab3n2LFjeSbRk9YIL730UgF5Km0eZLm0ZfCW48ePo3bt2krrhvxfjshEZ9J+4Y477vBa1EqVqtavVf471JHqZqkYlt+JvPfy5a+0yJBqYU+Y05NW/35HSUsICTU2bk/D+HmbsXarh3lEfICSlhBCCAk2KGkZvaGkDRi+9aT1XTpKrO9J6/v2WT5x2NL96Hv3M2jaoQ8qVkhAZKQDjoThaF9IiwZK2uKR6sy//vWvymRWIgClP+2DDz6o3MLvCZGq8rjKlSsr8rA4NEHbq1cv5bZ+T2iiVvpreiNqpa+0bEOTJk3UkdBFvuht2bKl8vNKpAdxcV/+mj5xmJf7HSUtIYQUDSUtIYQQEmxQ0jJ6Q0kbMAxPHKZTOkr8OnGYzu2zXtIeRL8pz6FZt2GoVqMynO7tiSwzDO0XenisO5S0hSMyVPrOXnnllTkCMCUlRZnYqyhEzFatWlV5vLT1KYp///vfyuRlMnlmYYJW45tvvlFErUymVpyolapbeX2ZlC1UkT66o0ePzpnMTapopZrWGzFuvqT1br+jpCWEkKKxXNJu3nEU4+amYs2HvDgghBBCTIGSltEbStqAYVzS6pOOEv9KWn3bZ1W7g0HTX0bLpGGoWjURUVLZ6yiLhAYpaDz0VfSZm+5hnUuhpC2cUaNG5cjZ5s2bFytcczN16lRlPXmOwtAEbY8ePYoVtBoiasuVK4fx48cXKiNl8q64uDjl9ffs2aOOhhZpaWkoW7as8jNK/1npQysVz95iVrsDvfsdJS0hhBSN5ZJ29Zb9yoF4+dtfqyOEEEIIMQQlLaM3lLQBw9d2B75KR4k/2h34un2mThw26020SR6NmldpPXJdiK7cEXV6LkDnB/dw4jCD3H///bjmmmvw2muved0LVkMm4JMKzxIlSuDIkSPq6GV+/PFH5bmTkpJw8eJFddQ7vv76a0XU3nnnnR5F7WOPPabIy7Zt26ojocf333+vTAomgvvgwYPqqPcYmjjMwH5HSUsIIUVDSUsIIYQEG5S0jN5Q0gYMXROHmSAdJZZNHGbC9pknadPQuUNtOCIciIpviGpt7sfNkz5BylJPjy08lLTWMWLECEWW9u3bVx25hCZou3fvrlvQanz11VdKJemECRPyiFqpzi1durTyuh988IE6SvLju6Q1tt9R0hJCSNFQ0hJCCCHBBiUtozeUtAHDe0lrjnSUWCNpzdk+8yTtEfQcPgVNR76Jvk8VPZFaUaGktQ6ZEEwTplKNK5w4cQJ16tQxJGg1du3apYjaiRMnKqJWqn27du2qvF5ycrL6KOIJ3yWtsf2OkpYQEmqc+jUTB9IzcPL0BXXEGJS0hBBCSLBBScvoDSVtwPBe0pojHSXWSFpzts/yicN0hpLWWp5//nlFmsbExGDTpk2oW7cuunXrZljQaoioTUhIwKRJkzB9+nTltWRyManWJYVj+sRhXoaSlhASaqxK3asc11as362OGIOSlhBCCAk2KGkZvaGkDRiGJw7zIX6dOExnzJa0I+duQrt+E1C3RV/UvKEnajTpUTA3/hVdF3len5LWWqTCdeTIkYo8jYqKQqtWrfDf//5XXWoOX375JaKjo3NeIzU1VV1CCsOopPV1v6OkJYSEGpS0hBBCSLhDScvoDSVtwNAraY1KR0nYSNr5b6Fx7QRERkQogq7QRPfHLQs9rO8OJa31SNWs1oYgPj5eqag1i6ysLNx11105v+uXXnpJXUKKwpCkNbDfUdISQkINSlpCCCEk3KGkZfSGkjZg6JK0JkhHiZWS1qhENk/SHsfAEX1QMrIUEm6chY7TP8eguXswZJ6HzD+IER6fg5LWX0j1bL9+/ZTPb2RkJKZMmYLz58+rS33j22+/xU033aQ8Z4kSJfDqq6+qS0hx+C5pje13lLSEkFAj6CRtxtlMHDSxiS4hhBAS9lDSMnpDSRswvJe05khHiWWS1gSJbJ6kTUPXLg0QFZOEVo9x4rBgQCb2mj17NhwOh/I5qVSpEhYvXoxz54r+nOZn//79GD16tNLaQJ6nWrVq+PTTT9WlxBt8l7TG9jtKWkJIqBF0kpYQQgghJkNJy+gNJW3A8F7SmiMdJdZIWnMksnmS9giSujdGVMJwtC+iqri4UNL6ny+++CKnAlYSGxuLlJQUvPzyy9i3bx9+//139ZGXOHPmjCJhn3zySaWnrbaeyN4JEybg119/VR9JvMV3SWtsv6OkJYSEGpS0hBBCSLhDScvoDSVtwPBe0pojHSXWSFpzJLKZPWmHTrwDCa76uHbiPo/LvQklbWCQqtp33nkHbdq0yZGuuVOmTBlcccUViImJKbBMxv7yl7/g0KFD6rMRvRjpSWtkv6OkJYSEGpS0hBBCSLhDScvoDSVtDme//xArn5qBCaMGI7lXD/RMHoiR42fgqdc/Q3qm+iAT0dOT1gzpKLFG0pojkU2dOGzpTnTocANKVeyOxre+gZ6zdmLQk99gcIHsx3BP67tDSRt4Dh8+jIULFyI5ORk1a9bMaYeQW8pef/31iph98803DfeyJQYnDjOw31HSEkJCjY3b0zB+3mas3WrOF4eUtIQQQkiwQUnL6A0lrZuz+GL5SDQuqwoghwOuaBccDlUGOVyonjQfn51VH24SuiYOM0E6SqzqSWuGRDa1J21SS8QnVoIrn9QrkCJ65FLS2o/s7GxkZGTgl19+UfrV/vnnn+oSYhaGetIa2O8oaQkhpGgoaQkhhJBgg5KW0RtKWpzbNhMt4hxwxDRAylMbsPvEeWS7/3f+xDd4b9GtaBLvQISjPPo+l+YeNQ9dPWlNkI4SyyYOM0Eim9mTtmfKSFzVtDdqFpdmD6LrIk/PQUlLwhMjPWmN7HeUtIQQUjSWS9rNO45i3NxUrPmQFweEEEKIKVDSMnoT9pL2LN6deDWcES5cM+4d/KKOXiYDa8fVci93osad62HmzdR6etKaIR0llvWkNUEim9ruwIRQ0pJwxFC7AwOhpCWEkKKxXNKu3rJfORAvf/trdYQQQgghhqCkZfQm7CVtFk4e2omPNvwTH+z31Hj2Ir6Z2x4xEQ4kjlqNotWmPnS1OzApVvWkNUMiWyVpRy7YgZ53r0T7Mc+j/fjV6DHz2yJbQmihpCXhiFmSVu9+R0lLCCFFQ0lLCCGEBBuUtIzesN1BXrLP4+fDu7H9/bVY9dx8zJw0DB3rlYUjwoFyt/7DFpLWV+kosazdgQkxXdIu/gwdevZCuTgnInNX80bGIq7ebWh13x7P66mhpCXhiGFJ6+N+R0lLCCFFQ0lLCCGEBBuUtIzeUNK6ycSR95diyoDWuKZ8NBy5xILDEY8rryxjD0lrUDpK/CFpfZXIpkrapV+ifdtr4Yx0wFWxDWq1m4Tre92P67uOQe0G9VHS4UBk+T5oPSvd8/ruUNKScMSQpDWw31HSEkJCjVO/ZuJAegZOnr6gjhiDkpYQQggJNihpGb1huwMcXDkK9WNlcjAnyte9Gb2HjcXUWfPxt1XvYfuhn/HlE22VdgcBlbQmSEeJpZLWoEQ2U9IOn3I3yjtdiL9pPnotyL88DX3H3I4rot3L263E0DzLLoeSloQjRiStkf2OkpYQEmqsSt2rHNdWrN+tjhiDkpYQQggJNihpGb0Jd0l7dgMm1XEhwhGHllPfw7GL6ngOF/DR/Y3ginCg7Mg3AiZpzZCOEsskrQkS2TxJeww9ezdHVEx3tJx93MNyyR60b1MDUZXGoUshPXIpaUk44rukNbbfUdISQkINSlpCCCEk3KGkZfQmzCVt1r6n0TU2AhExrfHozgKGFjj3KWa2iFFaIMQPew1n1GEz8F7SmiMdJVZJWjMksnmSNg1dOtaBs/KdhU5SNmpZOvr0vwXOmIFou9DTckpaEp74LmmN7XeUtISQUIOSlhBCCAl3KGkZvQn3StpTqzGqihMRjnLoOHsbTqnDQuYPn2DZqMaIc1y6bT9uwAqcyFYXmoD3ktYc6SixRtKaI5HNrKTt1aclnLE90OrRwrZnHzq0qYmoinegcyHbQ0lLwhEjlbRG9jtKWkJIqBF0kjbjbCYOmthElxBCCAl7KGkZvQn7nrRnse3RdkgUEeuIQ60WPTBo6BD07doMteIdcJRvimGjk1DdGYGYNnOwy0Oxra/oqaQ1QzpKrJG05khkU3vS3nsPyjtLIqHlIvQp8HrH0H/cWCSWcqF06xcwJM+yy6GkJeGIoZ60BvY7SlpCSKgRdJKWEEIIISZDScvoTdhLWjfZJ7DthWkY0vZaVCsbg5j4iqjdpDOGTl2CDfvOIOvYCgwo74AjvgsWfJelrmQcXT1pTZCOEqsqac2QyGZK2lFLv0C7NnURFelEycrtcXWHybgh+QHckDQedRo1QimnA5Flu6PFA8c8r+8OJS0JR4xIWiP7HSUtISTUoKQlhBBCwh1KWkZvKGkDhh5Ja4Z0lFjWk9YEiWyqpJUs/BBtu3RGQowTkRGXWlYoiYxDfL3RaH3/Hs/rqaGkJeGIIUkr8XG/o6QlhIQalLSEEEJIuENJy+gNJW3A0CVpJQalo8QqSWuGRDZd0qoZOW8bkia+iLa3LUPbsa8jaeZuDPfwuPyhpCXhiGFJq0bvfkdJSwgJNTZuT8P4eZuxdushdcQYlLSEEEJIsEFJy+gNJW3A0C1p1fgqHSWWSVqJQYlsvqRNQ//JS9BsdCpGaGNL3kerjqPRZMQ7GLA492MLhpKWhCPGJa1v+x0lLSGEFA0lLSGEEBJsUNIyekNJGzD0S1pj0lFiqaRV46tENlfS7kH35I6IjXLA2XAO+i1Vxxc8h6vjHIiILInSjR9G0lO518kbSloSjhiTtL7vd5S0hBBSNJZL2s07jmLc3FSs+ZAXB4QQQogpUNIyekNJGzD0SVrj0lFiraQ1JpHNlLTD77sPFUo6UarOHWg9ZQeG5Vo27LENaJvUCaWjYpGYtC7PstyhpCXhiBFJa2S/o6QlhJCisVzSrt6yXzkQL3/7a3WEEEIIIYagpGX0hpI2YOiRtGZIR4l1kta4RDZP0h5Drz4t4YzpghYPp3tY7s7Sr3BLiyqIqjoJ3QqRx5S0JBzxXdIa2+8oaQkhpGgoaQkhhJBgg5KW0RtK2oDhvaQ1RzpKrJK0Zkhk8yRtGrp0qgNnlQnousjTckk6kvu3hTN2ENou9LSckpaEJ75LWmP7HSUtIYQUDSUtIYQQEmxQ0jJ6Q0kbMLyXtOZIR4k1ktYciWx+JW13tJx93MNyyX50bFsLURXvQOdC3lNKWhKOGK+k9W2/o6QlhIQap37NxIH0DJw8fUEdMQYlLSGEEBJsUNIyekNJGzD0V9Iak44SayStORLZ1J60U6fgihIuxDedgx7z8r9nh9F3zBgkxrgQ1+ZFDMmz7HIoaUk4YqgnrYH9jpKWEBJqrErdqxzXVqzfrY4Yg5KWEEIICTYoaRm9oaQNGLp60pogHSXWVtIak8hmStpRS3ehQ7uGcEY6EJXQEFWapqBuu9Go17o/qtWqgRIyntgPN88qpPLXHUpaEo4YkbRG9jtKWkJIqEFJSwghhIQ7lLSM3lDSBgw9ktYM6SixrCetCRLZVEkrWfwvdO43HJUqlkFkZAQiIiQORJasigrN7kP7mYc9r6eGkpaEI4YkrcTH/Y6SlhASalDSEkIIIeEOJS2jN5S0AUOXpJUYlI4SqyStGRLZdEmbk8MYPCsVSVPeQdL9H2HAgsKqffOGkpaEI4YlbU707XeUtISQUCPoJG3G2UwcNLGJLiGEEBL2UNIyekNJGzB0S9qc+CYdJZZJWolBiWydpPUtlLQkHDFP0uoLJS0hJNQIOklLCCGEEJOhpGX0hpI2YPguaX2PpZI2J75JZEpaQgIPJS0hhJgDJS0hhBAS7lDSMnpDSRswQlfS+hZKWkICDyUtIYSYAyUtIYQQEu5Q0jJ6Q0kbMChp84aSlpDAQ0lLCCHmsHF7GsbP24y1Ww+pI8agpCWEEEKCDUpaRm8oaQOGJmklA+bs8ku01/NW0tpp2zRJmzzrU/R95HPLo20PJS0JJyhpCSHEnlDSEkIIIcEGJS2jN5S0ASO3pPV39Ehaf6c4SevvUNKScIKSlhBC7InlknbzjqMYNzcVaz7kxQEhhBBiCpS0jN5Q0gaMU79mYuEbXwQkp8/+V90Kz1z8/Q+P6/kjhW2b9HZ75b3v/J60f59Rt4CQ0IeSlhBC7Inlknb1lv3KgXj521+rI4QQQggxBCUtozeUtIQQQlQoaQkhxJ5Q0hJCCCHBBiUtozeUtIQQQlQoaQkhxJ5Q0hJCCCHBBiUtozeUtIQQQlQoaQkhxBykrdWB9AycPH1BHTEGJS0hhBASbFDSMnpDSUsIIURFk7SS7tM2+C3aa1LSEkJCBemlL8e1Fet3qyPGoKQlhBBCgg1KWkZvKGkJIYSo5Ja0gQglLSEkVKCkJYQQQsIdSlpGbyhpCSGEqPznzAUcTM8IWH48eV7dEkIICW4oaQkhhJBwh5KW0RtKWkIIIYQQQkwl6CRtxtlM5dsys5roEkIIIWEPJS2jN5S0hBBCCCGEmErQSVpCCCGEmAwlLaM3lLSEEEIIIYSYCiUtIYQQEu5Q0jJ6Q0lLCCGEEEKIqVDSEkIIIeEOJS2jN5S0hBBCCCGEmMrG7WkYP28z1m49pI4Yg5KWEEIICTYoaRm9oaQlhBBCCCHE1lDSEkIIIcEGJS2jN5S0hBBCCCGE2BrLJe3mHUcxbm4q1nzIiwNCCCHEFChpGb2hpCWEEEIIIcTWWC5pV2/ZrzTRXf721+oIIYQQQgxBScvoDSUtIYQQQgghtoaSlhBCCAk2KGkZvaGkJYQQQgghxNZQ0hJCCCHBBiUtozeUtIQQQgghhJjKqV8zcSA9AydPX1BHjEFJSwghhAQb2b8DF08zjPf53x/qh4cQQgghhBBiBqtS9yrOc8X63eqIMShpCSGEEEIIIYQQQgghRAeUtIQQQgghhBBCCCGEEBJAKGkJIYQQEmacR9oHyzFtQF88+rE5/Z4IIYQQQgghxAhBJ2kzzmbioIlNdAkhhBASLpzDodRnMblXA5R1RCDCVR9TUnk+QQghhBBCCAk8QSdpCSGEEEJ84tx3+DB1Fw5+8SwGVHFS0hJCCCGEEEJsAyUtIYQQQsKLi99ifocYSlpCCCGEEEKIbaCkJYQQQkh4kXUIS7rHUtISQgghhBBCbMPG7WkYP28z1m49pI4Yg5KWEEIIIfYm63s804OSlhBCCCGEEBK6UNISQgghxN5Q0hJCCCGEEEJCHMsl7eYdRzFubirWfHhAHSGEEEII0QElLSGEEEIIISTEsVzSrt6yX2miu/ztr9URQgghhBAdUNISQgghhBBCQhxKWkIIIYTYG0paQgghhBBCSIhDSUsIIYQQe0NJSwghhBBCCLEZp37NxIH0DJw8bc41CiUtIYQQQuwNJS0hhBBCCCHEZqxK3as4zxXrd6sjxqCkJYQQQoi9oaQlhBBCCCGE2AxKWkIIIYSEF5S0hBBCCCGEEJtBSUsIIYSQ8CLrEJYkiaSth8mbKGkJIYQQQgghgSfoJG3G2UwcNLGJLiGEEELCjItf4LGbYxDhqIzb3zytDhJCCCGEEEJI4Ag6SUsIIYQQ4hPZ6Xh/+WzcN6otqjkjEBHhQJnrkjHpwXlY8+1F9UHek3UoFSsWzsGsmQ/hoYcuZebM2Zi37F18x++SCSGEEEIIITqgpCWEEEII8ZXsH7FmbB24IiLgiL0B41fvxzl1ESGEEEIIIYR4CyUtIYQQQojPXMCWaQ3hinCg/IAVOJqtDhNCCCGEEEKIDjZuT8P4eZuxdushdcQYlLSEEEIICR+y9mFhl1hEOOLRe1ka6GgJIYQQQgghdoCSlhBCCCFhQ/axF9CvrAMRsR0x/9ssdZQQQgghhBBCAovlknbzjqMYNzcVaz48oI4QQgghhASGX1aNwJWOCES3fAT/0j/3GCGEEEIIIYRYguWSdvWW/UoT3eVvf62OEEIIIYQEgjNYO+4qOCNcaDz9I1xQRwkhhBBCCCEk0FDSEkIIISQ8uPA+pl7rQoSrDib93zl1kBBCCCGEEEICDyUtIYQQQsKCzO2z0Cw6As5qY7AmQx0khBBCyP+3d7exdZZlHMBPmoYYCJCY4BdjjG8h08QPvqBRUYMJ8EFlCKJDUWDqmDpQMjfGBmPABtt4FYGB0zl0GAJBGMhcGSCgIKIpG4x1Y2OUsTFK27UdLaXU3O5pnsf4xPu09uk5PT3d75dcH3bn/2+yZNl6rnu7B0AB7V19oaW1I7R1Vubf6FnSAgATRmtra2hubi40u3btSr9KTH/YtPy4cGipIbzr9NvCnsH0GAAAoIA16zcP7TxXrt2YnoyNJS0AMGFMnz49TJkypdBMnTo1/SoRg9vDTV89IjQ0HBmmrtgZ7GgBAICxsKQFABilwT2rw7SjGkLD4SeEa58fSE8BAACKsaQFABiljjunh/c0lsKhxy4O/+hPDwEAAAqquyVtR3df2FrBR3QBAEanJ6w77+hwSOkd4WPzHw996SkAAEBRdbekBQCoqf1NYfZHDgmlxg+GWff3pIcAAADFWdICAPzfBsPuO6aHDzSWQumwE8P1Ld6jBQAAxs6SFgBgRL3huftuDldddHb43LsbQ6lUCqWGI8JHT5kdFt+wNmz25gEAADAG657YEWYuawr3PLotPRkbS1oAAAAAgBqypAUAAAAAqKGqL2mbntoZzlm6Ptz1cEt6AgBQ1EDYcfuM8Kkpnw8LHupNzwAAAOpb1Ze0d2zYMvSI7oq7m9MTAIBiBratCtPe1xhKjR8K567bn54CAADUN0taAKA+DGwJt552dHjnkQ2WtAAAwKRiSQsA1IH+8OyNJ4ePT1seFn75cEtaAACgptq7+kJLa0do66zMM2yWtADAhNfXfF34yifODGu27wg3nWRJCwAA1Naa9ZuHdp4r125MT8bGkhYAmNj2Px2Wn3hMmHFnaxgc3GlJCwAA1JwlLQBwEOkJTy4+Pnx61r1h9+CBH1rSAgAAE4AlLQBw0Nj3+KLwpc/ODuv2JhvaAyxpAQCACaDulrQd3X1hawUf0QUADhIdj4QFX/xCmLehPT04wJIWAACYAOpuSQsAMHptoWnuseG4hY+FfenJEEtaAABgArCkBQAmucGw94HzwzGfnBV+//SmsGnTf83GR8Li4w8Lpcb3h7NW/fPA2bPhhb19aQ8AAGB8WNICAJPc/nDvzPeGxlIplEacw8IJ1z4fBtImAADAeFj3xI4wc1lTuOfRbenJ2FjSAgATTH94Zs0lYe6cOWHO/8yscNKHDwmlhqPCZ86YfeDH88IND+4J6X8rBgAAUJcsaQGA+uFNWgAAYBKq+pK26amd4Zyl68NdD7ekJwAABVnSAgAAk1DVl7R3bNgy9Ijuirub0xMAgIIsaQEAgEnIkhYAqB+WtAAAwCRkSQsAAAAAMArtXX2hpbUjtHX2pidjY0kLAAAAADAKa9ZvHtp5rly7MT0ZG0taAAAAAIBRsKQFAAAAAKihul3SJhPT8lJHOGfp+rJzze1Pp8m85M2HWD6bor2rb/97mszbWqXeVWvivW0vd0bz2RTtLS/Te2Gy93aN0PvdU2kyr2hv+yv7ovlslv22sr0dI/SWjnPvytv+libzXtw92Xtd0Xw2RXtXrI73du6pTm/J6ifTZN5L4917tTuaz2bJb+q717p3+N7iVZXtvTxC7/JVT6TJvGr1Lvt1vLfrtZ5oPhu9+Fz6q7+mybxX2qrTW1Smt7ttfzSfTaV7e14fvnfJyr+kybzCvfYRer+s796r7W9E89ksHOfexbc+nibz9nZUp3dRmd5r1erdUqbX2RvNZ1MvvQW3PJYm85J3+2L5bCrde33f8L35Kyrc6+qL5rOZf3Nle8l7iLF8Nhfe/GiazJssvXk3xXsd3dXpXVCm19n9ZjSfTeHejX9Ok3mdPdXpzS3T2zfJe137+6P5bOb8orK97jeG7/3shkfSZF699Hp634rms5n988nTy/addbOkTX6TSz7AfWfRH9OTvOatr/3nJxWb869/OE3mPbOtOr2fXvdQmsyrVu8n18Z7G19oi+azqXRv0/bx7T07Qu+8azakybzCvR2vR/PZnFvh3nMj9GZdXdne5hdH6j2YJvOq1fvxVeV67dF8NkV7P1oe7z2/szq9Hy5vSpN5W16qUm9ZvJdccsXy2RTtzSzXax3fXnLJFctnk/yhGFO0l1xyxfLZzKhwL7l0iuWzmXFlhXu7hu/94Io/pcm8avW+X6aXXFbF8tkU7i2J95JLp1g+m6K97y1ZlybzkkugWD6bor3pi8v1uqL5bIr2zi7TSy6BYvlsKt1LLoFi+WzOvvyBNJlXuPdqdzSfzVmXVbaXXMrE8tmcWeFecrkSy2fz3Uvj38+Pdy+5tIjlsynaK/d5pVq9MxbdnybzkkuSWD6bor1vXxLvJZcksXw2hXsL473kkiSWz6bivfbhe99aeF+azCvaSy4fYvlsTr+4sr3k8iGWz6bSveTyIZbPZtpFa9NkXrV63yzX6+yN5rMp2vvGgngvuUSI5bMp3Jt/b5rMSy4RYvlsivZOK9fr6ovmsyna+/qF8V6ynI/ls6l0L9lbxfLZnHrhPWkyr2gvWc7H8tmcOq/CvZ7he6dUuJcsy2P5bL52wR/SZF61eifPjfeSJXssn81oenWzpE0kv3CTb8Jiet8cGPpAXW704lPvvb7+4XvJh4sYPb3YJB9+Y/r6347ms9GLz8Hae/OtEXp7utJknp5ebJKlY0y/XprM04v33hoYjOazSZbpMXp6sUkue2L09GJTrjfw9vC95BIzRk8vNskle8zbg/+K5rPRi49efJK/PBIzWMFecgFSCeOypAUAAAAAIM6SFgAAAACghixpAQAAAABqyJIWAAAAAKCGLGkBAAAAAGrIkhYAAAAAoIYsaQEAAAAAasiSFgAAAACghixpAQAAAABqyJIWAAAAAKCGLGkBAAAAAGrIkhYAAAAAoIYsaQEAAAAAasiSFgAAAACgZkL4N7goZnsqjWHQAAAAAElFTkSuQmCC;" vertex="1" parent="1">
          <mxGeometry x="-100" y="60" width="1385" height="803" as="geometry" />
        </mxCell>
      </root>
    </mxGraphModel>
  </diagram>
</mxfile>
